%TF.GenerationSoftware,KiCad,Pcbnew,10.0.3*%
%TF.CreationDate,2026-06-22T12:07:45+03:00*%
%TF.ProjectId,rover_bms_ble_controller_hw,726f7665-725f-4626-9d73-5f626c655f63,rev?*%
%TF.SameCoordinates,Original*%
%TF.FileFunction,Paste,Bot*%
%TF.FilePolarity,Positive*%
%FSLAX46Y46*%
G04 Gerber Fmt 4.6, Leading zero omitted, Abs format (unit mm)*
G04 Created by KiCad (PCBNEW 10.0.3) date 2026-06-22 12:07:45*
%MOMM*%
%LPD*%
G01*
G04 APERTURE LIST*
G04 Aperture macros list*
%AMRoundRect*
0 Rectangle with rounded corners*
0 $1 Rounding radius*
0 $2 $3 $4 $5 $6 $7 $8 $9 X,Y pos of 4 corners*
0 Add a 4 corners polygon primitive as box body*
4,1,4,$2,$3,$4,$5,$6,$7,$8,$9,$2,$3,0*
0 Add four circle primitives for the rounded corners*
1,1,$1+$1,$2,$3*
1,1,$1+$1,$4,$5*
1,1,$1+$1,$6,$7*
1,1,$1+$1,$8,$9*
0 Add four rect primitives between the rounded corners*
20,1,$1+$1,$2,$3,$4,$5,0*
20,1,$1+$1,$4,$5,$6,$7,0*
20,1,$1+$1,$6,$7,$8,$9,0*
20,1,$1+$1,$8,$9,$2,$3,0*%
G04 Aperture macros list end*
%ADD10C,0.010000*%
%ADD11RoundRect,0.237500X-0.237500X0.250000X-0.237500X-0.250000X0.237500X-0.250000X0.237500X0.250000X0*%
%ADD12R,1.000000X1.400000*%
%ADD13R,1.500000X0.900000*%
%ADD14R,0.900000X1.500000*%
%ADD15R,0.900000X0.900000*%
%ADD16RoundRect,0.225000X0.225000X0.250000X-0.225000X0.250000X-0.225000X-0.250000X0.225000X-0.250000X0*%
%ADD17RoundRect,0.250000X-1.000000X1.950000X-1.000000X-1.950000X1.000000X-1.950000X1.000000X1.950000X0*%
%ADD18RoundRect,0.237500X-0.250000X-0.237500X0.250000X-0.237500X0.250000X0.237500X-0.250000X0.237500X0*%
%ADD19RoundRect,0.225000X-0.225000X-0.250000X0.225000X-0.250000X0.225000X0.250000X-0.225000X0.250000X0*%
%ADD20RoundRect,0.250002X-1.799998X1.799998X-1.799998X-1.799998X1.799998X-1.799998X1.799998X1.799998X0*%
%ADD21RoundRect,0.250000X-0.550000X1.050000X-0.550000X-1.050000X0.550000X-1.050000X0.550000X1.050000X0*%
%ADD22RoundRect,0.237500X0.237500X-0.250000X0.237500X0.250000X-0.237500X0.250000X-0.237500X-0.250000X0*%
%ADD23RoundRect,0.225000X-0.250000X0.225000X-0.250000X-0.225000X0.250000X-0.225000X0.250000X0.225000X0*%
%ADD24RoundRect,0.225000X0.250000X-0.225000X0.250000X0.225000X-0.250000X0.225000X-0.250000X-0.225000X0*%
%ADD25RoundRect,0.050000X-0.260000X-0.075000X0.260000X-0.075000X0.260000X0.075000X-0.260000X0.075000X0*%
%ADD26RoundRect,0.127000X0.325000X-0.525000X0.325000X0.525000X-0.325000X0.525000X-0.325000X-0.525000X0*%
%ADD27RoundRect,0.237500X0.250000X0.237500X-0.250000X0.237500X-0.250000X-0.237500X0.250000X-0.237500X0*%
%ADD28R,0.550000X1.200000*%
%ADD29R,3.000000X1.600000*%
%ADD30R,0.400000X1.200000*%
%ADD31RoundRect,0.250000X0.550000X-1.500000X0.550000X1.500000X-0.550000X1.500000X-0.550000X-1.500000X0*%
%ADD32RoundRect,0.250000X-0.550000X1.500000X-0.550000X-1.500000X0.550000X-1.500000X0.550000X1.500000X0*%
%ADD33RoundRect,0.127000X-0.325000X0.525000X-0.325000X-0.525000X0.325000X-0.525000X0.325000X0.525000X0*%
%ADD34R,0.280000X1.130000*%
%ADD35R,0.230000X1.130000*%
G04 APERTURE END LIST*
D10*
%TO.C,U2*%
X131395000Y-80350000D02*
X131395000Y-79350000D01*
X131395000Y-79347000D01*
X131395000Y-79345000D01*
X131396000Y-79342000D01*
X131396000Y-79340000D01*
X131397000Y-79337000D01*
X131397000Y-79335000D01*
X131398000Y-79332000D01*
X131399000Y-79330000D01*
X131400000Y-79327000D01*
X131402000Y-79325000D01*
X131403000Y-79323000D01*
X131405000Y-79321000D01*
X131406000Y-79319000D01*
X131408000Y-79317000D01*
X131410000Y-79315000D01*
X131412000Y-79313000D01*
X131414000Y-79311000D01*
X131416000Y-79310000D01*
X131418000Y-79308000D01*
X131420000Y-79307000D01*
X131422000Y-79305000D01*
X131425000Y-79304000D01*
X131427000Y-79303000D01*
X131430000Y-79302000D01*
X131432000Y-79302000D01*
X131435000Y-79301000D01*
X131437000Y-79301000D01*
X131440000Y-79300000D01*
X131442000Y-79300000D01*
X131445000Y-79300000D01*
X132555000Y-79300000D01*
X132558000Y-79300000D01*
X132560000Y-79300000D01*
X132563000Y-79301000D01*
X132565000Y-79301000D01*
X132568000Y-79302000D01*
X132570000Y-79302000D01*
X132573000Y-79303000D01*
X132575000Y-79304000D01*
X132578000Y-79305000D01*
X132580000Y-79307000D01*
X132582000Y-79308000D01*
X132584000Y-79310000D01*
X132586000Y-79311000D01*
X132588000Y-79313000D01*
X132590000Y-79315000D01*
X132592000Y-79317000D01*
X132594000Y-79319000D01*
X132595000Y-79321000D01*
X132597000Y-79323000D01*
X132598000Y-79325000D01*
X132600000Y-79327000D01*
X132601000Y-79330000D01*
X132602000Y-79332000D01*
X132603000Y-79335000D01*
X132603000Y-79337000D01*
X132604000Y-79340000D01*
X132604000Y-79342000D01*
X132605000Y-79345000D01*
X132605000Y-79347000D01*
X132605000Y-79350000D01*
X132605000Y-80350000D01*
X132605000Y-80353000D01*
X132605000Y-80355000D01*
X132604000Y-80358000D01*
X132604000Y-80360000D01*
X132603000Y-80363000D01*
X132603000Y-80365000D01*
X132602000Y-80368000D01*
X132601000Y-80370000D01*
X132600000Y-80373000D01*
X132598000Y-80375000D01*
X132597000Y-80377000D01*
X132595000Y-80379000D01*
X132594000Y-80381000D01*
X132592000Y-80383000D01*
X132590000Y-80385000D01*
X132588000Y-80387000D01*
X132586000Y-80389000D01*
X132584000Y-80390000D01*
X132582000Y-80392000D01*
X132580000Y-80393000D01*
X132578000Y-80395000D01*
X132575000Y-80396000D01*
X132573000Y-80397000D01*
X132570000Y-80398000D01*
X132568000Y-80398000D01*
X132565000Y-80399000D01*
X132563000Y-80399000D01*
X132560000Y-80400000D01*
X132558000Y-80400000D01*
X132555000Y-80400000D01*
X131445000Y-80400000D01*
X131442000Y-80400000D01*
X131440000Y-80400000D01*
X131437000Y-80399000D01*
X131435000Y-80399000D01*
X131432000Y-80398000D01*
X131430000Y-80398000D01*
X131427000Y-80397000D01*
X131425000Y-80396000D01*
X131422000Y-80395000D01*
X131420000Y-80393000D01*
X131418000Y-80392000D01*
X131416000Y-80390000D01*
X131414000Y-80389000D01*
X131412000Y-80387000D01*
X131410000Y-80385000D01*
X131408000Y-80383000D01*
X131406000Y-80381000D01*
X131405000Y-80379000D01*
X131403000Y-80377000D01*
X131402000Y-80375000D01*
X131400000Y-80373000D01*
X131399000Y-80370000D01*
X131398000Y-80368000D01*
X131397000Y-80365000D01*
X131397000Y-80363000D01*
X131396000Y-80360000D01*
X131396000Y-80358000D01*
X131395000Y-80355000D01*
X131395000Y-80353000D01*
X131395000Y-80350000D01*
G36*
X132563000Y-79301000D02*
G01*
X132565000Y-79301000D01*
X132568000Y-79302000D01*
X132570000Y-79302000D01*
X132573000Y-79303000D01*
X132575000Y-79304000D01*
X132578000Y-79305000D01*
X132580000Y-79307000D01*
X132582000Y-79308000D01*
X132584000Y-79310000D01*
X132586000Y-79311000D01*
X132588000Y-79313000D01*
X132590000Y-79315000D01*
X132592000Y-79317000D01*
X132594000Y-79319000D01*
X132595000Y-79321000D01*
X132597000Y-79323000D01*
X132598000Y-79325000D01*
X132600000Y-79327000D01*
X132601000Y-79330000D01*
X132602000Y-79332000D01*
X132603000Y-79335000D01*
X132603000Y-79337000D01*
X132604000Y-79340000D01*
X132604000Y-79342000D01*
X132605000Y-79345000D01*
X132605000Y-79347000D01*
X132605000Y-79350000D01*
X132605000Y-80350000D01*
X132605000Y-80353000D01*
X132605000Y-80355000D01*
X132604000Y-80358000D01*
X132604000Y-80360000D01*
X132603000Y-80363000D01*
X132603000Y-80365000D01*
X132602000Y-80368000D01*
X132601000Y-80370000D01*
X132600000Y-80373000D01*
X132598000Y-80375000D01*
X132597000Y-80377000D01*
X132595000Y-80379000D01*
X132594000Y-80381000D01*
X132592000Y-80383000D01*
X132590000Y-80385000D01*
X132588000Y-80387000D01*
X132586000Y-80389000D01*
X132584000Y-80390000D01*
X132582000Y-80392000D01*
X132580000Y-80393000D01*
X132578000Y-80395000D01*
X132575000Y-80396000D01*
X132573000Y-80397000D01*
X132570000Y-80398000D01*
X132568000Y-80398000D01*
X132565000Y-80399000D01*
X132563000Y-80399000D01*
X132560000Y-80400000D01*
X132558000Y-80400000D01*
X132555000Y-80400000D01*
X131445000Y-80400000D01*
X131442000Y-80400000D01*
X131440000Y-80400000D01*
X131437000Y-80399000D01*
X131435000Y-80399000D01*
X131432000Y-80398000D01*
X131430000Y-80398000D01*
X131427000Y-80397000D01*
X131425000Y-80396000D01*
X131422000Y-80395000D01*
X131420000Y-80393000D01*
X131418000Y-80392000D01*
X131416000Y-80390000D01*
X131414000Y-80389000D01*
X131412000Y-80387000D01*
X131410000Y-80385000D01*
X131408000Y-80383000D01*
X131406000Y-80381000D01*
X131405000Y-80379000D01*
X131403000Y-80377000D01*
X131402000Y-80375000D01*
X131400000Y-80373000D01*
X131399000Y-80370000D01*
X131398000Y-80368000D01*
X131397000Y-80365000D01*
X131397000Y-80363000D01*
X131396000Y-80360000D01*
X131396000Y-80358000D01*
X131395000Y-80355000D01*
X131395000Y-80353000D01*
X131395000Y-80350000D01*
X131395000Y-79350000D01*
X131395000Y-79347000D01*
X131395000Y-79345000D01*
X131396000Y-79342000D01*
X131396000Y-79340000D01*
X131397000Y-79337000D01*
X131397000Y-79335000D01*
X131398000Y-79332000D01*
X131399000Y-79330000D01*
X131400000Y-79327000D01*
X131402000Y-79325000D01*
X131403000Y-79323000D01*
X131405000Y-79321000D01*
X131406000Y-79319000D01*
X131408000Y-79317000D01*
X131410000Y-79315000D01*
X131412000Y-79313000D01*
X131414000Y-79311000D01*
X131416000Y-79310000D01*
X131418000Y-79308000D01*
X131420000Y-79307000D01*
X131422000Y-79305000D01*
X131425000Y-79304000D01*
X131427000Y-79303000D01*
X131430000Y-79302000D01*
X131432000Y-79302000D01*
X131435000Y-79301000D01*
X131437000Y-79301000D01*
X131440000Y-79300000D01*
X131442000Y-79300000D01*
X131445000Y-79300000D01*
X132555000Y-79300000D01*
X132558000Y-79300000D01*
X132560000Y-79300000D01*
X132563000Y-79301000D01*
G37*
X131445000Y-80600000D02*
X132555000Y-80600000D01*
X132558000Y-80600000D01*
X132560000Y-80600000D01*
X132563000Y-80601000D01*
X132565000Y-80601000D01*
X132568000Y-80602000D01*
X132570000Y-80602000D01*
X132573000Y-80603000D01*
X132575000Y-80604000D01*
X132578000Y-80605000D01*
X132580000Y-80607000D01*
X132582000Y-80608000D01*
X132584000Y-80610000D01*
X132586000Y-80611000D01*
X132588000Y-80613000D01*
X132590000Y-80615000D01*
X132592000Y-80617000D01*
X132594000Y-80619000D01*
X132595000Y-80621000D01*
X132597000Y-80623000D01*
X132598000Y-80625000D01*
X132600000Y-80627000D01*
X132601000Y-80630000D01*
X132602000Y-80632000D01*
X132603000Y-80635000D01*
X132603000Y-80637000D01*
X132604000Y-80640000D01*
X132604000Y-80642000D01*
X132605000Y-80645000D01*
X132605000Y-80647000D01*
X132605000Y-80650000D01*
X132605000Y-81650000D01*
X132605000Y-81653000D01*
X132605000Y-81655000D01*
X132604000Y-81658000D01*
X132604000Y-81660000D01*
X132603000Y-81663000D01*
X132603000Y-81665000D01*
X132602000Y-81668000D01*
X132601000Y-81670000D01*
X132600000Y-81673000D01*
X132598000Y-81675000D01*
X132597000Y-81677000D01*
X132595000Y-81679000D01*
X132594000Y-81681000D01*
X132592000Y-81683000D01*
X132590000Y-81685000D01*
X132588000Y-81687000D01*
X132586000Y-81689000D01*
X132584000Y-81690000D01*
X132582000Y-81692000D01*
X132580000Y-81693000D01*
X132578000Y-81695000D01*
X132575000Y-81696000D01*
X132573000Y-81697000D01*
X132570000Y-81698000D01*
X132568000Y-81698000D01*
X132565000Y-81699000D01*
X132563000Y-81699000D01*
X132560000Y-81700000D01*
X132558000Y-81700000D01*
X132555000Y-81700000D01*
X131445000Y-81700000D01*
X131442000Y-81700000D01*
X131440000Y-81700000D01*
X131437000Y-81699000D01*
X131435000Y-81699000D01*
X131432000Y-81698000D01*
X131430000Y-81698000D01*
X131427000Y-81697000D01*
X131425000Y-81696000D01*
X131422000Y-81695000D01*
X131420000Y-81693000D01*
X131418000Y-81692000D01*
X131416000Y-81690000D01*
X131414000Y-81689000D01*
X131412000Y-81687000D01*
X131410000Y-81685000D01*
X131408000Y-81683000D01*
X131406000Y-81681000D01*
X131405000Y-81679000D01*
X131403000Y-81677000D01*
X131402000Y-81675000D01*
X131400000Y-81673000D01*
X131399000Y-81670000D01*
X131398000Y-81668000D01*
X131397000Y-81665000D01*
X131397000Y-81663000D01*
X131396000Y-81660000D01*
X131396000Y-81658000D01*
X131395000Y-81655000D01*
X131395000Y-81653000D01*
X131395000Y-81650000D01*
X131395000Y-80650000D01*
X131395000Y-80647000D01*
X131395000Y-80645000D01*
X131396000Y-80642000D01*
X131396000Y-80640000D01*
X131397000Y-80637000D01*
X131397000Y-80635000D01*
X131398000Y-80632000D01*
X131399000Y-80630000D01*
X131400000Y-80627000D01*
X131402000Y-80625000D01*
X131403000Y-80623000D01*
X131405000Y-80621000D01*
X131406000Y-80619000D01*
X131408000Y-80617000D01*
X131410000Y-80615000D01*
X131412000Y-80613000D01*
X131414000Y-80611000D01*
X131416000Y-80610000D01*
X131418000Y-80608000D01*
X131420000Y-80607000D01*
X131422000Y-80605000D01*
X131425000Y-80604000D01*
X131427000Y-80603000D01*
X131430000Y-80602000D01*
X131432000Y-80602000D01*
X131435000Y-80601000D01*
X131437000Y-80601000D01*
X131440000Y-80600000D01*
X131442000Y-80600000D01*
X131445000Y-80600000D01*
G36*
X132563000Y-80601000D02*
G01*
X132565000Y-80601000D01*
X132568000Y-80602000D01*
X132570000Y-80602000D01*
X132573000Y-80603000D01*
X132575000Y-80604000D01*
X132578000Y-80605000D01*
X132580000Y-80607000D01*
X132582000Y-80608000D01*
X132584000Y-80610000D01*
X132586000Y-80611000D01*
X132588000Y-80613000D01*
X132590000Y-80615000D01*
X132592000Y-80617000D01*
X132594000Y-80619000D01*
X132595000Y-80621000D01*
X132597000Y-80623000D01*
X132598000Y-80625000D01*
X132600000Y-80627000D01*
X132601000Y-80630000D01*
X132602000Y-80632000D01*
X132603000Y-80635000D01*
X132603000Y-80637000D01*
X132604000Y-80640000D01*
X132604000Y-80642000D01*
X132605000Y-80645000D01*
X132605000Y-80647000D01*
X132605000Y-80650000D01*
X132605000Y-81650000D01*
X132605000Y-81653000D01*
X132605000Y-81655000D01*
X132604000Y-81658000D01*
X132604000Y-81660000D01*
X132603000Y-81663000D01*
X132603000Y-81665000D01*
X132602000Y-81668000D01*
X132601000Y-81670000D01*
X132600000Y-81673000D01*
X132598000Y-81675000D01*
X132597000Y-81677000D01*
X132595000Y-81679000D01*
X132594000Y-81681000D01*
X132592000Y-81683000D01*
X132590000Y-81685000D01*
X132588000Y-81687000D01*
X132586000Y-81689000D01*
X132584000Y-81690000D01*
X132582000Y-81692000D01*
X132580000Y-81693000D01*
X132578000Y-81695000D01*
X132575000Y-81696000D01*
X132573000Y-81697000D01*
X132570000Y-81698000D01*
X132568000Y-81698000D01*
X132565000Y-81699000D01*
X132563000Y-81699000D01*
X132560000Y-81700000D01*
X132558000Y-81700000D01*
X132555000Y-81700000D01*
X131445000Y-81700000D01*
X131442000Y-81700000D01*
X131440000Y-81700000D01*
X131437000Y-81699000D01*
X131435000Y-81699000D01*
X131432000Y-81698000D01*
X131430000Y-81698000D01*
X131427000Y-81697000D01*
X131425000Y-81696000D01*
X131422000Y-81695000D01*
X131420000Y-81693000D01*
X131418000Y-81692000D01*
X131416000Y-81690000D01*
X131414000Y-81689000D01*
X131412000Y-81687000D01*
X131410000Y-81685000D01*
X131408000Y-81683000D01*
X131406000Y-81681000D01*
X131405000Y-81679000D01*
X131403000Y-81677000D01*
X131402000Y-81675000D01*
X131400000Y-81673000D01*
X131399000Y-81670000D01*
X131398000Y-81668000D01*
X131397000Y-81665000D01*
X131397000Y-81663000D01*
X131396000Y-81660000D01*
X131396000Y-81658000D01*
X131395000Y-81655000D01*
X131395000Y-81653000D01*
X131395000Y-81650000D01*
X131395000Y-80650000D01*
X131395000Y-80647000D01*
X131395000Y-80645000D01*
X131396000Y-80642000D01*
X131396000Y-80640000D01*
X131397000Y-80637000D01*
X131397000Y-80635000D01*
X131398000Y-80632000D01*
X131399000Y-80630000D01*
X131400000Y-80627000D01*
X131402000Y-80625000D01*
X131403000Y-80623000D01*
X131405000Y-80621000D01*
X131406000Y-80619000D01*
X131408000Y-80617000D01*
X131410000Y-80615000D01*
X131412000Y-80613000D01*
X131414000Y-80611000D01*
X131416000Y-80610000D01*
X131418000Y-80608000D01*
X131420000Y-80607000D01*
X131422000Y-80605000D01*
X131425000Y-80604000D01*
X131427000Y-80603000D01*
X131430000Y-80602000D01*
X131432000Y-80602000D01*
X131435000Y-80601000D01*
X131437000Y-80601000D01*
X131440000Y-80600000D01*
X131442000Y-80600000D01*
X131445000Y-80600000D01*
X132555000Y-80600000D01*
X132558000Y-80600000D01*
X132560000Y-80600000D01*
X132563000Y-80601000D01*
G37*
%TD*%
D11*
%TO.C,R11*%
X103000000Y-77412500D03*
X103000000Y-75587500D03*
%TD*%
D12*
%TO.C,D2*%
X116150000Y-91500000D03*
X112350000Y-91500000D03*
%TD*%
D13*
%TO.C,U4*%
X83150000Y-74380000D03*
X83150000Y-75650000D03*
X83150000Y-76920000D03*
X83150000Y-78190000D03*
X83150000Y-79460000D03*
X83150000Y-80730000D03*
X83150000Y-82000000D03*
X83150000Y-83270000D03*
X83150000Y-84540000D03*
X83150000Y-85810000D03*
X83150000Y-87080000D03*
X83150000Y-88350000D03*
X83150000Y-89620000D03*
X83150000Y-90890000D03*
D14*
X84915000Y-92140000D03*
X86185000Y-92140000D03*
X87455000Y-92140000D03*
X88725000Y-92140000D03*
X89995000Y-92140000D03*
X91265000Y-92140000D03*
X92535000Y-92140000D03*
X93805000Y-92140000D03*
X95075000Y-92140000D03*
X96345000Y-92140000D03*
X97615000Y-92140000D03*
X98885000Y-92140000D03*
D13*
X100650000Y-90890000D03*
X100650000Y-89620000D03*
X100650000Y-88350000D03*
X100650000Y-87080000D03*
X100650000Y-85810000D03*
X100650000Y-84540000D03*
X100650000Y-83270000D03*
X100650000Y-82000000D03*
X100650000Y-80730000D03*
X100650000Y-79460000D03*
X100650000Y-78190000D03*
X100650000Y-76920000D03*
X100650000Y-75650000D03*
X100650000Y-74380000D03*
D15*
X92000000Y-80700000D03*
X92000000Y-82100000D03*
X92000000Y-83500000D03*
X93400000Y-80700000D03*
X93400000Y-83500000D03*
X94800000Y-80700000D03*
X94800000Y-82100000D03*
X94800000Y-83500000D03*
%TD*%
D16*
%TO.C,C13*%
X133775000Y-77500000D03*
X132225000Y-77500000D03*
%TD*%
D17*
%TO.C,C3*%
X141500000Y-77800000D03*
X141500000Y-85200000D03*
%TD*%
D11*
%TO.C,R14*%
X106000000Y-90587500D03*
X106000000Y-92412500D03*
%TD*%
D18*
%TO.C,R3*%
X132087500Y-76000000D03*
X133912500Y-76000000D03*
%TD*%
D19*
%TO.C,C20*%
X79225000Y-77500000D03*
X80775000Y-77500000D03*
%TD*%
D20*
%TO.C,L2*%
X125500000Y-83750000D03*
X125500000Y-93250000D03*
%TD*%
D21*
%TO.C,C5*%
X150000000Y-80700000D03*
X150000000Y-84300000D03*
%TD*%
D22*
%TO.C,R6*%
X135500000Y-80912500D03*
X135500000Y-79087500D03*
%TD*%
D16*
%TO.C,C19*%
X80775000Y-75500000D03*
X79225000Y-75500000D03*
%TD*%
D23*
%TO.C,C15*%
X107000000Y-74725000D03*
X107000000Y-76275000D03*
%TD*%
D24*
%TO.C,C7*%
X133500000Y-85775000D03*
X133500000Y-84225000D03*
%TD*%
D23*
%TO.C,C12*%
X162000000Y-88725000D03*
X162000000Y-90275000D03*
%TD*%
D25*
%TO.C,U2*%
X130610000Y-81750000D03*
X130610000Y-81250000D03*
X130610000Y-80750000D03*
X130610000Y-80250000D03*
X130610000Y-79750000D03*
X130610000Y-79250000D03*
X133390000Y-79250000D03*
X133390000Y-79750000D03*
X133390000Y-80250000D03*
X133390000Y-80750000D03*
X133390000Y-81250000D03*
X133390000Y-81750000D03*
%TD*%
D24*
%TO.C,C6*%
X135500000Y-85775000D03*
X135500000Y-84225000D03*
%TD*%
D22*
%TO.C,R8*%
X113500000Y-86912500D03*
X113500000Y-85087500D03*
%TD*%
D26*
%TO.C,BUT2*%
X71900000Y-93575000D03*
X71900000Y-89425000D03*
X69750000Y-93575000D03*
X69750000Y-89425000D03*
%TD*%
D21*
%TO.C,C4*%
X155000000Y-80700000D03*
X155000000Y-84300000D03*
%TD*%
D22*
%TO.C,R2*%
X135500000Y-77412500D03*
X135500000Y-75587500D03*
%TD*%
D18*
%TO.C,R5*%
X100587500Y-94000000D03*
X102412500Y-94000000D03*
%TD*%
D27*
%TO.C,R9*%
X104412500Y-81500000D03*
X102587500Y-81500000D03*
%TD*%
D23*
%TO.C,C8*%
X140500000Y-88725000D03*
X140500000Y-90275000D03*
%TD*%
%TO.C,C9*%
X142500000Y-88725000D03*
X142500000Y-90275000D03*
%TD*%
D28*
%TO.C,U3*%
X115600000Y-82000000D03*
X116550000Y-82000000D03*
X117500000Y-82000000D03*
X117500000Y-84600000D03*
X115600000Y-84600000D03*
%TD*%
D18*
%TO.C,R15*%
X74087500Y-89500000D03*
X75912500Y-89500000D03*
%TD*%
D29*
%TO.C,L3*%
X116500000Y-79200000D03*
X116500000Y-76800000D03*
%TD*%
D18*
%TO.C,R7*%
X102587500Y-83500000D03*
X104412500Y-83500000D03*
%TD*%
D30*
%TO.C,IC2*%
X79925000Y-84900000D03*
X79275000Y-84900000D03*
X78625000Y-84900000D03*
X77975000Y-84900000D03*
X77325000Y-84900000D03*
X76675000Y-84900000D03*
X76025000Y-84900000D03*
X75375000Y-84900000D03*
X74725000Y-84900000D03*
X74075000Y-84900000D03*
X74075000Y-79100000D03*
X74725000Y-79100000D03*
X75375000Y-79100000D03*
X76025000Y-79100000D03*
X76675000Y-79100000D03*
X77325000Y-79100000D03*
X77975000Y-79100000D03*
X78625000Y-79100000D03*
X79275000Y-79100000D03*
X79925000Y-79100000D03*
%TD*%
D24*
%TO.C,C14*%
X105000000Y-76275000D03*
X105000000Y-74725000D03*
%TD*%
D31*
%TO.C,C10*%
X147500000Y-92700000D03*
X147500000Y-87300000D03*
%TD*%
%TO.C,C11*%
X157500000Y-92700000D03*
X157500000Y-87300000D03*
%TD*%
D11*
%TO.C,R10*%
X115500000Y-86487500D03*
X115500000Y-88312500D03*
%TD*%
D23*
%TO.C,C16*%
X117500000Y-86625000D03*
X117500000Y-88175000D03*
%TD*%
D16*
%TO.C,C21*%
X79025000Y-88750000D03*
X77475000Y-88750000D03*
%TD*%
D11*
%TO.C,R13*%
X110000000Y-90087500D03*
X110000000Y-91912500D03*
%TD*%
D32*
%TO.C,C17*%
X111000000Y-77800000D03*
X111000000Y-83200000D03*
%TD*%
D33*
%TO.C,RST2*%
X69750000Y-82925000D03*
X69750000Y-87075000D03*
X71900000Y-82925000D03*
X71900000Y-87075000D03*
%TD*%
D34*
%TO.C,USB-C2*%
X112825000Y-94318000D03*
X112025000Y-94318000D03*
D35*
X110750000Y-94318000D03*
X109750000Y-94318000D03*
X109250000Y-94318000D03*
X108250000Y-94318000D03*
D34*
X106975000Y-94318000D03*
X106175000Y-94318000D03*
X106425000Y-94318000D03*
X107225000Y-94318000D03*
D35*
X107750000Y-94318000D03*
X108750000Y-94318000D03*
X110250000Y-94318000D03*
X111250000Y-94318000D03*
D34*
X111775000Y-94318000D03*
X112575000Y-94318000D03*
%TD*%
D18*
%TO.C,R4*%
X127087500Y-78000000D03*
X128912500Y-78000000D03*
%TD*%
D19*
%TO.C,C22*%
X77475000Y-87250000D03*
X79025000Y-87250000D03*
%TD*%
%TO.C,C18*%
X103225000Y-79000000D03*
X104775000Y-79000000D03*
%TD*%
D18*
%TO.C,R12*%
X73587500Y-87250000D03*
X75412500Y-87250000D03*
%TD*%
D24*
%TO.C,C2*%
X129000000Y-81275000D03*
X129000000Y-79725000D03*
%TD*%
M02*
