%TF.GenerationSoftware,KiCad,Pcbnew,10.0.3*%
%TF.CreationDate,2026-06-22T12:07:45+03:00*%
%TF.ProjectId,rover_bms_ble_controller_hw,726f7665-725f-4626-9d73-5f626c655f63,rev?*%
%TF.SameCoordinates,Original*%
%TF.FileFunction,Copper,L1,Top*%
%TF.FilePolarity,Positive*%
%FSLAX46Y46*%
G04 Gerber Fmt 4.6, Leading zero omitted, Abs format (unit mm)*
G04 Created by KiCad (PCBNEW 10.0.3) date 2026-06-22 12:07:45*
%MOMM*%
%LPD*%
G01*
G04 APERTURE LIST*
%TA.AperFunction,ComponentPad*%
%ADD10C,0.800000*%
%TD*%
%TA.AperFunction,ComponentPad*%
%ADD11C,1.600000*%
%TD*%
%TA.AperFunction,SMDPad,CuDef*%
%ADD12O,2.500000X1.500000*%
%TD*%
%TA.AperFunction,SMDPad,CuDef*%
%ADD13R,2.000000X1.100000*%
%TD*%
%TA.AperFunction,SMDPad,CuDef*%
%ADD14O,4.000000X3.000000*%
%TD*%
%TA.AperFunction,ComponentPad*%
%ADD15C,5.000000*%
%TD*%
%TA.AperFunction,ViaPad*%
%ADD16C,0.700000*%
%TD*%
%TA.AperFunction,Conductor*%
%ADD17C,0.254000*%
%TD*%
G04 APERTURE END LIST*
D10*
%TO.P,U4,41,EPAD(GND)_41*%
%TO.N,GND*%
X92000000Y-81400000D03*
X92000000Y-82800000D03*
X92700000Y-80700000D03*
X92700000Y-83500000D03*
D11*
X93400000Y-82100000D03*
D10*
X94100000Y-80700000D03*
X94100000Y-83500000D03*
X94800000Y-81400000D03*
X94800000Y-82800000D03*
%TD*%
D12*
%TO.P,J14,1,Pin_1_1*%
%TO.N,Net-(D8-DO)*%
X69500000Y-91000000D03*
%TD*%
D13*
%TO.P,D3,1,DI_1*%
%TO.N,/TOP/MCU&LEDS/LED_SPI_MOSI*%
X75054000Y-78800000D03*
%TO.P,D3,2,CI_2*%
%TO.N,/TOP/MCU&LEDS/LED_SPI_CLK*%
X75054000Y-80500000D03*
%TO.P,D3,3,GND_3*%
%TO.N,GND*%
X75054000Y-82200000D03*
%TO.P,D3,4,VCC_4*%
%TO.N,+5V*%
X79854000Y-82200000D03*
%TO.P,D3,5,CO_5*%
%TO.N,Net-(D3-CO)*%
X79854000Y-80500000D03*
%TO.P,D3,6,DO_6*%
%TO.N,Net-(D3-DO)*%
X79854000Y-78800000D03*
%TD*%
%TO.P,D12,1,DI_1*%
%TO.N,Net-(D12-DI)*%
X159854000Y-92200000D03*
%TO.P,D12,2,CI_2*%
%TO.N,Net-(D12-CI)*%
X159854000Y-90500000D03*
%TO.P,D12,3,GND_3*%
%TO.N,GND*%
X159854000Y-88800000D03*
%TO.P,D12,4,VCC_4*%
%TO.N,+5V*%
X155054000Y-88800000D03*
%TO.P,D12,5,CO_5*%
%TO.N,Net-(D11-CI)*%
X155054000Y-90500000D03*
%TO.P,D12,6,DO_6*%
%TO.N,Net-(D11-DI)*%
X155054000Y-92200000D03*
%TD*%
%TO.P,D8,1,DI_1*%
%TO.N,Net-(D8-DI)*%
X79854000Y-92200000D03*
%TO.P,D8,2,CI_2*%
%TO.N,Net-(D8-CI)*%
X79854000Y-90500000D03*
%TO.P,D8,3,GND_3*%
%TO.N,GND*%
X79854000Y-88800000D03*
%TO.P,D8,4,VCC_4*%
%TO.N,+5V*%
X75054000Y-88800000D03*
%TO.P,D8,5,CO_5*%
%TO.N,Net-(D8-CO)*%
X75054000Y-90500000D03*
%TO.P,D8,6,DO_6*%
%TO.N,Net-(D8-DO)*%
X75054000Y-92200000D03*
%TD*%
D14*
%TO.P,J4,1,Pin_1_1*%
%TO.N,+5V*%
X164750000Y-85500000D03*
%TD*%
D12*
%TO.P,J12,1,Pin_1_1*%
%TO.N,/TOP/MCU&LEDS/LED_SPI_MOSI*%
X69500000Y-78000000D03*
%TD*%
D13*
%TO.P,D9,1,DI_1*%
%TO.N,Net-(D10-DO)*%
X99854000Y-92200000D03*
%TO.P,D9,2,CI_2*%
%TO.N,Net-(D10-CO)*%
X99854000Y-90500000D03*
%TO.P,D9,3,GND_3*%
%TO.N,GND*%
X99854000Y-88800000D03*
%TO.P,D9,4,VCC_4*%
%TO.N,+5V*%
X95054000Y-88800000D03*
%TO.P,D9,5,CO_5*%
%TO.N,Net-(D8-CI)*%
X95054000Y-90500000D03*
%TO.P,D9,6,DO_6*%
%TO.N,Net-(D8-DI)*%
X95054000Y-92200000D03*
%TD*%
%TO.P,D10,1,DI_1*%
%TO.N,Net-(D10-DI)*%
X120200000Y-92200000D03*
%TO.P,D10,2,CI_2*%
%TO.N,Net-(D10-CI)*%
X120200000Y-90500000D03*
%TO.P,D10,3,GND_3*%
%TO.N,GND*%
X120200000Y-88800000D03*
%TO.P,D10,4,VCC_4*%
%TO.N,+5V*%
X115400000Y-88800000D03*
%TO.P,D10,5,CO_5*%
%TO.N,Net-(D10-CO)*%
X115400000Y-90500000D03*
%TO.P,D10,6,DO_6*%
%TO.N,Net-(D10-DO)*%
X115400000Y-92200000D03*
%TD*%
%TO.P,D4,1,DI_1*%
%TO.N,Net-(D3-DO)*%
X96600000Y-78800000D03*
%TO.P,D4,2,CI_2*%
%TO.N,Net-(D3-CO)*%
X96600000Y-80500000D03*
%TO.P,D4,3,GND_3*%
%TO.N,GND*%
X96600000Y-82200000D03*
%TO.P,D4,4,VCC_4*%
%TO.N,+5V*%
X101400000Y-82200000D03*
%TO.P,D4,5,CO_5*%
%TO.N,Net-(D4-CO)*%
X101400000Y-80500000D03*
%TO.P,D4,6,DO_6*%
%TO.N,Net-(D4-DO)*%
X101400000Y-78800000D03*
%TD*%
D14*
%TO.P,J6,1,Pin_1_1*%
%TO.N,GND*%
X70250000Y-75250000D03*
%TD*%
%TO.P,J9,1,Pin_1_1*%
%TO.N,GND*%
X70250000Y-95750000D03*
%TD*%
D10*
%TO.P,H3,1,1_1*%
%TO.N,GND*%
X157614281Y-98000000D03*
X158163456Y-96674175D03*
X158163456Y-99325825D03*
X159489281Y-96125000D03*
D15*
X159489281Y-98000000D03*
D10*
X159489281Y-99875000D03*
X160815106Y-96674175D03*
X160815106Y-99325825D03*
X161364281Y-98000000D03*
%TD*%
D14*
%TO.P,J8,1,Pin_1_1*%
%TO.N,GND*%
X164750000Y-75250000D03*
%TD*%
D12*
%TO.P,J17,1,Pin_1_1*%
%TO.N,Net-(D12-CI)*%
X165500000Y-93000000D03*
%TD*%
D13*
%TO.P,D6,1,DI_1*%
%TO.N,Net-(D5-DO)*%
X135100000Y-78800000D03*
%TO.P,D6,2,CI_2*%
%TO.N,Net-(D5-CO)*%
X135100000Y-80500000D03*
%TO.P,D6,3,GND_3*%
%TO.N,GND*%
X135100000Y-82200000D03*
%TO.P,D6,4,VCC_4*%
%TO.N,+5V*%
X139900000Y-82200000D03*
%TO.P,D6,5,CO_5*%
%TO.N,Net-(D6-CO)*%
X139900000Y-80500000D03*
%TO.P,D6,6,DO_6*%
%TO.N,Net-(D6-DO)*%
X139900000Y-78800000D03*
%TD*%
%TO.P,D7,1,DI_1*%
%TO.N,Net-(D6-DO)*%
X155054000Y-78800000D03*
%TO.P,D7,2,CI_2*%
%TO.N,Net-(D6-CO)*%
X155054000Y-80500000D03*
%TO.P,D7,3,GND_3*%
%TO.N,GND*%
X155054000Y-82200000D03*
%TO.P,D7,4,VCC_4*%
%TO.N,+5V*%
X159854000Y-82200000D03*
%TO.P,D7,5,CO_5*%
%TO.N,Net-(D7-CO)*%
X159854000Y-80500000D03*
%TO.P,D7,6,DO_6*%
%TO.N,Net-(D7-DO)*%
X159854000Y-78800000D03*
%TD*%
D10*
%TO.P,H4,1,1_1*%
%TO.N,GND*%
X73625000Y-98000000D03*
X74174175Y-96674175D03*
X74174175Y-99325825D03*
X75500000Y-96125000D03*
D15*
X75500000Y-98000000D03*
D10*
X75500000Y-99875000D03*
X76825825Y-96674175D03*
X76825825Y-99325825D03*
X77375000Y-98000000D03*
%TD*%
D12*
%TO.P,J13,1,Pin_1_1*%
%TO.N,/TOP/MCU&LEDS/LED_SPI_CLK*%
X69500000Y-80000000D03*
%TD*%
D14*
%TO.P,J3,1,Pin_1_1*%
%TO.N,+5V*%
X70250000Y-85500000D03*
%TD*%
%TO.P,J5,1,Pin_1_1*%
%TO.N,GND*%
X164750000Y-95750000D03*
%TD*%
D13*
%TO.P,D5,1,DI_1*%
%TO.N,Net-(D4-DO)*%
X115054000Y-78800000D03*
%TO.P,D5,2,CI_2*%
%TO.N,Net-(D4-CO)*%
X115054000Y-80500000D03*
%TO.P,D5,3,GND_3*%
%TO.N,GND*%
X115054000Y-82200000D03*
%TO.P,D5,4,VCC_4*%
%TO.N,+5V*%
X119854000Y-82200000D03*
%TO.P,D5,5,CO_5*%
%TO.N,Net-(D5-CO)*%
X119854000Y-80500000D03*
%TO.P,D5,6,DO_6*%
%TO.N,Net-(D5-DO)*%
X119854000Y-78800000D03*
%TD*%
D12*
%TO.P,J11,1,Pin_1_1*%
%TO.N,Net-(D7-CO)*%
X165500000Y-80000000D03*
%TD*%
%TO.P,J15,1,Pin_1_1*%
%TO.N,Net-(D12-DI)*%
X165500000Y-91000000D03*
%TD*%
%TO.P,J10,1,Pin_1_1*%
%TO.N,Net-(D7-DO)*%
X165500000Y-78000000D03*
%TD*%
D10*
%TO.P,H5,1,1_1*%
%TO.N,GND*%
X73625000Y-73000000D03*
X74174175Y-71674175D03*
X74174175Y-74325825D03*
X75500000Y-71125000D03*
D15*
X75500000Y-73000000D03*
D10*
X75500000Y-74875000D03*
X76825825Y-71674175D03*
X76825825Y-74325825D03*
X77375000Y-73000000D03*
%TD*%
D12*
%TO.P,J16,1,Pin_1_1*%
%TO.N,Net-(D8-CO)*%
X69500000Y-93000000D03*
%TD*%
D13*
%TO.P,D11,1,DI_1*%
%TO.N,Net-(D11-DI)*%
X139854000Y-92200000D03*
%TO.P,D11,2,CI_2*%
%TO.N,Net-(D11-CI)*%
X139854000Y-90500000D03*
%TO.P,D11,3,GND_3*%
%TO.N,GND*%
X139854000Y-88800000D03*
%TO.P,D11,4,VCC_4*%
%TO.N,+5V*%
X135054000Y-88800000D03*
%TO.P,D11,5,CO_5*%
%TO.N,Net-(D10-CI)*%
X135054000Y-90500000D03*
%TO.P,D11,6,DO_6*%
%TO.N,Net-(D10-DI)*%
X135054000Y-92200000D03*
%TD*%
D10*
%TO.P,H2,1,1_1*%
%TO.N,GND*%
X157606583Y-73000000D03*
X158155758Y-71674175D03*
X158155758Y-74325825D03*
X159481583Y-71125000D03*
D15*
X159481583Y-73000000D03*
D10*
X159481583Y-74875000D03*
X160807408Y-71674175D03*
X160807408Y-74325825D03*
X161356583Y-73000000D03*
%TD*%
D16*
%TO.N,GND*%
X164750000Y-75250000D03*
X164750000Y-95750000D03*
X70250000Y-95750000D03*
X70250000Y-75250000D03*
X114600000Y-83200000D03*
X77600000Y-92200000D03*
X77200000Y-90000000D03*
X104750000Y-77750000D03*
X106000000Y-77750000D03*
X118500000Y-88750000D03*
X81250000Y-88750000D03*
X73500000Y-95000000D03*
X70750000Y-81750000D03*
X89500000Y-81500000D03*
X85750000Y-81500000D03*
X152250000Y-88750000D03*
X150250000Y-88750000D03*
X144500000Y-88750000D03*
X131500000Y-88750000D03*
X128750000Y-88750000D03*
X126250000Y-88750000D03*
X123500000Y-88750000D03*
X112250000Y-88750000D03*
X110000000Y-88750000D03*
X98750000Y-78750000D03*
X98750000Y-80250000D03*
X141500000Y-74250000D03*
X152500000Y-75000000D03*
X146750000Y-75000000D03*
X155000000Y-96000000D03*
X149750000Y-96000000D03*
X144500000Y-96000000D03*
X138500000Y-96000000D03*
X132250000Y-96000000D03*
X125500000Y-96500000D03*
X118000000Y-96000000D03*
%TO.N,+5V*%
X163250000Y-91750000D03*
X162500000Y-91250000D03*
%TO.N,/TOP/MCU&LEDS/LED_SPI_MOSI*%
X77250000Y-80500000D03*
%TO.N,/TOP/MCU&LEDS/LED_SPI_CLK*%
X76750000Y-81750000D03*
%TO.N,GND*%
X99000000Y-96500000D03*
X115000000Y-96000000D03*
X80000000Y-96500000D03*
X144000000Y-75000000D03*
X85750000Y-75000000D03*
X89500000Y-77750000D03*
X121000000Y-74500000D03*
X130000000Y-76500000D03*
X90000000Y-89000000D03*
X127500000Y-76500000D03*
X88000000Y-89000000D03*
X98750000Y-81750000D03*
X92500000Y-96500000D03*
X120000000Y-77000000D03*
X112000000Y-74500000D03*
X95750000Y-96500000D03*
X109000000Y-74500000D03*
X138250000Y-75000000D03*
X129000000Y-96000000D03*
X92000000Y-89000000D03*
X102250000Y-96500000D03*
X89000000Y-96500000D03*
X152000000Y-96000000D03*
X147000000Y-96000000D03*
X135500000Y-96000000D03*
X68750000Y-81750000D03*
X150000000Y-75000000D03*
X83000000Y-96500000D03*
X92750000Y-77750000D03*
X118000000Y-74500000D03*
X155500000Y-75000000D03*
X86000000Y-89000000D03*
X85750000Y-77750000D03*
X141500000Y-96000000D03*
X97750000Y-89000000D03*
X89500000Y-75000000D03*
X92750000Y-75000000D03*
X121500000Y-96000000D03*
X86000000Y-96500000D03*
X115000000Y-74500000D03*
X96500000Y-75000000D03*
X122250000Y-77000000D03*
X73250000Y-82000000D03*
X105250000Y-96500000D03*
%TO.N,+5V*%
X163250000Y-90500000D03*
X104500000Y-85000000D03*
X162500000Y-92250000D03*
X78000000Y-81500000D03*
%TO.N,/TOP/MCU&LEDS/GPIO0\u005CBUT1*%
X78500000Y-93500000D03*
X83000000Y-93000000D03*
%TO.N,/TOP/MCU&LEDS/ESP_EN*%
X73000000Y-77000000D03*
X98500000Y-76920000D03*
%TO.N,/TOP/MCU&LEDS/GPIO20\u005CUSB_D+*%
X102500000Y-91500000D03*
X107500000Y-91500000D03*
%TO.N,/TOP/MCU&LEDS/GPIO19\u005CUSB_D-*%
X102500000Y-89000000D03*
X107500000Y-89000000D03*
%TO.N,+5V*%
X119000000Y-84800000D03*
%TD*%
%TO.N,/TOP/MCU&LEDS/ESP_EN*%
D17*
X96289000Y-76400000D02*
X96809000Y-76920000D01*
X73600000Y-76400000D02*
X96289000Y-76400000D01*
X73000000Y-77000000D02*
X73600000Y-76400000D01*
X96809000Y-76920000D02*
X98500000Y-76920000D01*
%TO.N,Net-(D12-DI)*%
X160154000Y-92952000D02*
X160154000Y-92500000D01*
X160452000Y-93250000D02*
X160154000Y-92952000D01*
X165000000Y-91250000D02*
X163000000Y-93250000D01*
X163000000Y-93250000D02*
X160452000Y-93250000D01*
%TO.N,Net-(D12-CI)*%
X164750000Y-93750000D02*
X165000000Y-93500000D01*
X158750000Y-93750000D02*
X164750000Y-93750000D01*
X158000000Y-93000000D02*
X158750000Y-93750000D01*
X158000000Y-91000000D02*
X158000000Y-93000000D01*
X158500000Y-90500000D02*
X158000000Y-91000000D01*
X159854000Y-90500000D02*
X158500000Y-90500000D01*
%TO.N,/TOP/MCU&LEDS/LED_SPI_MOSI*%
X77250000Y-80500000D02*
X77250000Y-79750000D01*
X71300000Y-78800000D02*
X71000000Y-78500000D01*
X75054000Y-78800000D02*
X71300000Y-78800000D01*
X77250000Y-79750000D02*
X76500000Y-79000000D01*
X76500000Y-79000000D02*
X75254000Y-79000000D01*
X71000000Y-78500000D02*
X68500000Y-78500000D01*
%TO.N,/TOP/MCU&LEDS/LED_SPI_CLK*%
X75054000Y-80500000D02*
X69500000Y-80500000D01*
X76750000Y-81750000D02*
X75500000Y-80500000D01*
%TO.N,+5V*%
X78000000Y-81500000D02*
X78409130Y-81909130D01*
X78409130Y-81909130D02*
X79563130Y-81909130D01*
%TO.N,Net-(D4-CO)*%
X115054000Y-80500000D02*
X101400000Y-80500000D01*
%TO.N,Net-(D4-DO)*%
X101400000Y-78800000D02*
X115054000Y-78800000D01*
%TO.N,Net-(D10-DO)*%
X99854000Y-92200000D02*
X100654000Y-93000000D01*
X114254000Y-93000000D02*
X115054000Y-92200000D01*
X100654000Y-93000000D02*
X114254000Y-93000000D01*
%TO.N,Net-(D10-CO)*%
X99854000Y-90500000D02*
X115054000Y-90500000D01*
%TO.N,Net-(D10-DI)*%
X119854000Y-92200000D02*
X135054000Y-92200000D01*
%TO.N,Net-(D10-CI)*%
X119854000Y-90500000D02*
X135054000Y-90500000D01*
%TO.N,Net-(D11-DI)*%
X139854000Y-92200000D02*
X155054000Y-92200000D01*
%TO.N,Net-(D11-CI)*%
X155054000Y-90500000D02*
X139854000Y-90500000D01*
%TO.N,Net-(D5-CO)*%
X135100000Y-80500000D02*
X119854000Y-80500000D01*
%TO.N,Net-(D5-DO)*%
X119854000Y-78800000D02*
X135054000Y-78800000D01*
%TO.N,Net-(D6-DO)*%
X139854000Y-78800000D02*
X155054000Y-78800000D01*
%TO.N,Net-(D6-CO)*%
X155054000Y-80500000D02*
X139854000Y-80500000D01*
%TO.N,Net-(D7-CO)*%
X159854000Y-80500000D02*
X163000000Y-80500000D01*
X163500000Y-80000000D02*
X165500000Y-80000000D01*
X163000000Y-80500000D02*
X163500000Y-80000000D01*
%TO.N,Net-(D7-DO)*%
X159854000Y-78800000D02*
X162700000Y-78800000D01*
X162700000Y-78800000D02*
X163500000Y-78000000D01*
X163500000Y-78000000D02*
X165500000Y-78000000D01*
%TO.N,Net-(D8-CO)*%
X75998935Y-90500000D02*
X76500000Y-91001065D01*
X75054000Y-90500000D02*
X75998935Y-90500000D01*
X72000000Y-93000000D02*
X69500000Y-93000000D01*
X72500000Y-93500000D02*
X72000000Y-93000000D01*
X76000000Y-93500000D02*
X72500000Y-93500000D01*
X76500000Y-93000000D02*
X76000000Y-93500000D01*
X76500000Y-91001065D02*
X76500000Y-93000000D01*
%TO.N,Net-(D8-DO)*%
X72200000Y-92200000D02*
X75054000Y-92200000D01*
X69500000Y-91000000D02*
X71000000Y-91000000D01*
X71000000Y-91000000D02*
X72200000Y-92200000D01*
%TO.N,/TOP/MCU&LEDS/GPIO0\u005CBUT1*%
X82500000Y-93500000D02*
X78500000Y-93500000D01*
X83000000Y-93000000D02*
X82500000Y-93500000D01*
%TO.N,/TOP/MCU&LEDS/GPIO20\u005CUSB_D+*%
X107500000Y-91500000D02*
X102500000Y-91500000D01*
%TO.N,/TOP/MCU&LEDS/GPIO19\u005CUSB_D-*%
X107500000Y-89000000D02*
X102500000Y-89000000D01*
%TO.N,Net-(D3-CO)*%
X81500000Y-80500000D02*
X79854000Y-80500000D01*
X96600000Y-80500000D02*
X95500000Y-80500000D01*
X94500000Y-79500000D02*
X82500000Y-79500000D01*
X95500000Y-80500000D02*
X94500000Y-79500000D01*
X82500000Y-79500000D02*
X81500000Y-80500000D01*
%TO.N,Net-(D3-DO)*%
X79854000Y-78800000D02*
X96600000Y-78800000D01*
%TO.N,Net-(D8-DI)*%
X79854000Y-92200000D02*
X95054000Y-92200000D01*
%TO.N,Net-(D8-CI)*%
X79854000Y-90500000D02*
X95054000Y-90500000D01*
%TD*%
%TA.AperFunction,Conductor*%
%TO.N,+5V*%
G36*
X140943039Y-82019685D02*
G01*
X140988794Y-82072489D01*
X141000000Y-82124000D01*
X141000000Y-84200000D01*
X138500000Y-84200000D01*
X138500000Y-82124000D01*
X138519685Y-82056961D01*
X138572489Y-82011206D01*
X138624000Y-82000000D01*
X140876000Y-82000000D01*
X140943039Y-82019685D01*
G37*
%TD.AperFunction*%
%TD*%
%TA.AperFunction,Conductor*%
%TO.N,+5V*%
G36*
X156500000Y-87250000D02*
G01*
X156500000Y-88876000D01*
X156480315Y-88943039D01*
X156427511Y-88988794D01*
X156376000Y-89000000D01*
X153624000Y-89000000D01*
X153556961Y-88980315D01*
X153511206Y-88927511D01*
X153500000Y-88876000D01*
X153500000Y-87250000D01*
X153500000Y-86500000D01*
X156500000Y-86500000D01*
X156500000Y-87250000D01*
G37*
%TD.AperFunction*%
%TD*%
%TA.AperFunction,Conductor*%
%TO.N,+5V*%
G36*
X76500000Y-88876000D02*
G01*
X76480315Y-88943039D01*
X76427511Y-88988794D01*
X76376000Y-89000000D01*
X73624000Y-89000000D01*
X73556961Y-88980315D01*
X73511206Y-88927511D01*
X73500000Y-88876000D01*
X73500000Y-87250000D01*
X76500000Y-87250000D01*
X76500000Y-88876000D01*
G37*
%TD.AperFunction*%
%TD*%
%TA.AperFunction,Conductor*%
%TO.N,+5V*%
G36*
X102443039Y-82019685D02*
G01*
X102488794Y-82072489D01*
X102500000Y-82124000D01*
X102500000Y-84200000D01*
X100000000Y-84200000D01*
X100000000Y-82124000D01*
X100019685Y-82056961D01*
X100072489Y-82011206D01*
X100124000Y-82000000D01*
X102376000Y-82000000D01*
X102443039Y-82019685D01*
G37*
%TD.AperFunction*%
%TD*%
%TA.AperFunction,Conductor*%
%TO.N,+5V*%
G36*
X136500000Y-87250000D02*
G01*
X136500000Y-88876000D01*
X136480315Y-88943039D01*
X136427511Y-88988794D01*
X136376000Y-89000000D01*
X133624000Y-89000000D01*
X133556961Y-88980315D01*
X133511206Y-88927511D01*
X133500000Y-88876000D01*
X133500000Y-87250000D01*
X133500000Y-86500000D01*
X136500000Y-86500000D01*
X136500000Y-87250000D01*
G37*
%TD.AperFunction*%
%TD*%
%TA.AperFunction,Conductor*%
%TO.N,+5V*%
G36*
X166896539Y-84219685D02*
G01*
X166942294Y-84272489D01*
X166953500Y-84324000D01*
X166953500Y-87126000D01*
X166933815Y-87193039D01*
X166881011Y-87238794D01*
X166829500Y-87250000D01*
X156500000Y-87250000D01*
X156500000Y-86500000D01*
X153500000Y-86500000D01*
X153500000Y-87250000D01*
X136500000Y-87250000D01*
X136500000Y-86500000D01*
X133500000Y-86500000D01*
X133500000Y-87250000D01*
X117000000Y-87250000D01*
X117000000Y-86500000D01*
X114000000Y-86500000D01*
X114000000Y-87250000D01*
X99000000Y-87250000D01*
X99000000Y-84200000D01*
X161000000Y-84200000D01*
X166829500Y-84200000D01*
X166896539Y-84219685D01*
G37*
%TD.AperFunction*%
%TD*%
%TA.AperFunction,Conductor*%
%TO.N,+5V*%
G36*
X163750000Y-91844061D02*
G01*
X163730315Y-91911100D01*
X163713681Y-91931742D01*
X162931743Y-92713681D01*
X162870420Y-92747166D01*
X162844062Y-92750000D01*
X162124000Y-92750000D01*
X162056961Y-92730315D01*
X162011206Y-92677511D01*
X162000000Y-92626000D01*
X162000000Y-87250000D01*
X163750000Y-87250000D01*
X163750000Y-91844061D01*
G37*
%TD.AperFunction*%
%TD*%
%TA.AperFunction,Conductor*%
%TO.N,+5V*%
G36*
X89375692Y-84002561D02*
G01*
X89442724Y-84022262D01*
X89488466Y-84075077D01*
X89499659Y-84126513D01*
X89500096Y-85249999D01*
X89500097Y-85250000D01*
X96500000Y-85250000D01*
X96500000Y-84324000D01*
X96519685Y-84256961D01*
X96572489Y-84211206D01*
X96624000Y-84200000D01*
X99000000Y-84200000D01*
X99000000Y-87250000D01*
X68124500Y-87250000D01*
X68057461Y-87230315D01*
X68011706Y-87177511D01*
X68000500Y-87126000D01*
X68000500Y-84121414D01*
X68020185Y-84054375D01*
X68072989Y-84008620D01*
X68124529Y-83997414D01*
X89375692Y-84002561D01*
G37*
%TD.AperFunction*%
%TD*%
%TA.AperFunction,Conductor*%
%TO.N,+5V*%
G36*
X80943039Y-82019685D02*
G01*
X80988794Y-82072489D01*
X81000000Y-82124000D01*
X81000000Y-84000533D01*
X78500000Y-83999927D01*
X78500000Y-82124000D01*
X78519685Y-82056961D01*
X78572489Y-82011206D01*
X78624000Y-82000000D01*
X80876000Y-82000000D01*
X80943039Y-82019685D01*
G37*
%TD.AperFunction*%
%TD*%
%TA.AperFunction,Conductor*%
%TO.N,+5V*%
G36*
X160943039Y-82019685D02*
G01*
X160988794Y-82072489D01*
X161000000Y-82124000D01*
X161000000Y-84200000D01*
X158500000Y-84200000D01*
X158500000Y-82124000D01*
X158519685Y-82056961D01*
X158572489Y-82011206D01*
X158624000Y-82000000D01*
X160876000Y-82000000D01*
X160943039Y-82019685D01*
G37*
%TD.AperFunction*%
%TD*%
%TA.AperFunction,Conductor*%
%TO.N,+5V*%
G36*
X96500000Y-88876000D02*
G01*
X96480315Y-88943039D01*
X96427511Y-88988794D01*
X96376000Y-89000000D01*
X93624000Y-89000000D01*
X93556961Y-88980315D01*
X93511206Y-88927511D01*
X93500000Y-88876000D01*
X93500000Y-87250000D01*
X96500000Y-87250000D01*
X96500000Y-88876000D01*
G37*
%TD.AperFunction*%
%TD*%
%TA.AperFunction,Conductor*%
%TO.N,+5V*%
G36*
X117000000Y-87250000D02*
G01*
X117000000Y-88876000D01*
X116980315Y-88943039D01*
X116927511Y-88988794D01*
X116876000Y-89000000D01*
X114124000Y-89000000D01*
X114056961Y-88980315D01*
X114011206Y-88927511D01*
X114000000Y-88876000D01*
X114000000Y-87250000D01*
X114000000Y-86500000D01*
X117000000Y-86500000D01*
X117000000Y-87250000D01*
G37*
%TD.AperFunction*%
%TD*%
%TA.AperFunction,Conductor*%
%TO.N,+5V*%
G36*
X120943039Y-82019685D02*
G01*
X120988794Y-82072489D01*
X121000000Y-82124000D01*
X121000000Y-84200000D01*
X118500000Y-84200000D01*
X118500000Y-82124000D01*
X118519685Y-82056961D01*
X118572489Y-82011206D01*
X118624000Y-82000000D01*
X120876000Y-82000000D01*
X120943039Y-82019685D01*
G37*
%TD.AperFunction*%
%TD*%
%TA.AperFunction,Conductor*%
%TO.N,GND*%
G36*
X93037539Y-87775185D02*
G01*
X93083294Y-87827989D01*
X93094500Y-87879500D01*
X93094500Y-88876008D01*
X93103767Y-88962197D01*
X93114973Y-89013706D01*
X93114974Y-89013710D01*
X93137690Y-89085360D01*
X93137691Y-89085361D01*
X93137691Y-89085362D01*
X93204751Y-89193059D01*
X93250498Y-89245854D01*
X93250502Y-89245857D01*
X93250505Y-89245861D01*
X93328077Y-89315042D01*
X93328078Y-89315042D01*
X93328079Y-89315043D01*
X93442712Y-89369388D01*
X93442714Y-89369388D01*
X93442715Y-89369389D01*
X93509754Y-89389074D01*
X93570308Y-89397780D01*
X93633864Y-89426804D01*
X93663320Y-89464563D01*
X93668172Y-89474159D01*
X93668354Y-89475304D01*
X93720698Y-89578035D01*
X93720761Y-89578159D01*
X93720827Y-89578518D01*
X93731973Y-89611225D01*
X93735065Y-89627688D01*
X93735675Y-89630832D01*
X93736223Y-89633656D01*
X93729665Y-89703218D01*
X93724977Y-89713565D01*
X93668353Y-89824695D01*
X93668353Y-89824697D01*
X93663126Y-89857698D01*
X93659115Y-89867941D01*
X93658982Y-89875370D01*
X93648123Y-89896018D01*
X93644391Y-89905550D01*
X93644481Y-89905606D01*
X93644178Y-89906094D01*
X93643744Y-89907205D01*
X93641118Y-89911133D01*
X93640855Y-89911469D01*
X93640760Y-89911669D01*
X93639146Y-89914084D01*
X93638149Y-89914916D01*
X93636630Y-89916856D01*
X93636216Y-89916531D01*
X93614015Y-89935079D01*
X93595665Y-89951545D01*
X93596496Y-89952879D01*
X93595068Y-89953768D01*
X93592311Y-89954556D01*
X93589524Y-89957057D01*
X93584431Y-89959491D01*
X93584217Y-89959045D01*
X93570652Y-89960746D01*
X93529534Y-89972500D01*
X81386792Y-89972500D01*
X81386787Y-89972499D01*
X81386785Y-89972500D01*
X81351851Y-89967475D01*
X81336852Y-89963070D01*
X81278082Y-89925300D01*
X81273764Y-89920317D01*
X81245001Y-89858509D01*
X81241171Y-89834327D01*
X81240788Y-89829456D01*
X81240785Y-89829441D01*
X81240785Y-89829440D01*
X81239649Y-89824714D01*
X81239647Y-89824699D01*
X81239646Y-89824697D01*
X81239646Y-89824696D01*
X81182050Y-89711658D01*
X81182046Y-89711654D01*
X81182045Y-89711652D01*
X81092347Y-89621954D01*
X81092344Y-89621952D01*
X81092342Y-89621950D01*
X81092340Y-89621949D01*
X81092339Y-89621948D01*
X81015519Y-89582805D01*
X81015519Y-89582806D01*
X81007101Y-89578517D01*
X80979301Y-89564352D01*
X80979299Y-89564351D01*
X80979298Y-89564351D01*
X80979296Y-89564350D01*
X80885530Y-89549500D01*
X80885524Y-89549500D01*
X78822482Y-89549500D01*
X78822478Y-89549500D01*
X78757846Y-89559736D01*
X78757842Y-89559737D01*
X78741519Y-89562323D01*
X78728696Y-89564354D01*
X78615658Y-89621950D01*
X78615657Y-89621951D01*
X78615652Y-89621954D01*
X78612652Y-89624953D01*
X78612649Y-89624955D01*
X78525953Y-89711651D01*
X78520044Y-89723249D01*
X78507021Y-89748809D01*
X78506752Y-89749336D01*
X78506751Y-89749337D01*
X78468353Y-89824695D01*
X78468350Y-89824703D01*
X78453500Y-89918469D01*
X78453500Y-91081519D01*
X78457063Y-91104011D01*
X78460387Y-91125000D01*
X78468354Y-91175304D01*
X78523619Y-91283767D01*
X78525996Y-91290014D01*
X78526368Y-91294780D01*
X78531973Y-91311227D01*
X78536084Y-91333118D01*
X78533194Y-91390928D01*
X78531938Y-91395207D01*
X78523443Y-91416578D01*
X78468352Y-91524698D01*
X78468350Y-91524703D01*
X78453500Y-91618469D01*
X78453500Y-92624452D01*
X78453499Y-92624458D01*
X78453500Y-92624461D01*
X78448475Y-92659396D01*
X78444070Y-92674394D01*
X78406301Y-92733160D01*
X78400748Y-92737972D01*
X78343734Y-92765879D01*
X78281097Y-92778338D01*
X78281079Y-92778344D01*
X78144517Y-92834908D01*
X78144508Y-92834913D01*
X78144491Y-92834923D01*
X78021581Y-92917049D01*
X78021580Y-92917050D01*
X78021574Y-92917055D01*
X77917055Y-93021574D01*
X77917050Y-93021580D01*
X77917049Y-93021581D01*
X77834923Y-93144491D01*
X77834913Y-93144508D01*
X77834908Y-93144517D01*
X77778344Y-93281079D01*
X77778338Y-93281098D01*
X77749500Y-93426076D01*
X77749500Y-93529551D01*
X77744237Y-93547471D01*
X77778338Y-93718899D01*
X77778344Y-93718919D01*
X77834908Y-93855481D01*
X77834913Y-93855490D01*
X77834923Y-93855507D01*
X77917049Y-93978417D01*
X77917050Y-93978418D01*
X77917055Y-93978424D01*
X78021574Y-94082943D01*
X78021578Y-94082946D01*
X78021580Y-94082948D01*
X78021584Y-94082951D01*
X78144498Y-94165080D01*
X78144511Y-94165087D01*
X78281082Y-94221656D01*
X78281087Y-94221658D01*
X78281091Y-94221658D01*
X78281092Y-94221659D01*
X78281357Y-94221711D01*
X78281358Y-94221712D01*
X78281382Y-94221717D01*
X78426077Y-94250500D01*
X78426079Y-94250500D01*
X78426082Y-94250500D01*
X78573920Y-94250500D01*
X78671462Y-94231096D01*
X78718913Y-94221658D01*
X78838552Y-94172102D01*
X78848944Y-94167797D01*
X78851735Y-94166824D01*
X78853179Y-94166156D01*
X78857849Y-94164108D01*
X78867107Y-94160273D01*
X78875990Y-94151389D01*
X78978416Y-94082951D01*
X78978419Y-94082948D01*
X78984951Y-94076416D01*
X78984964Y-94076409D01*
X79013195Y-94055275D01*
X79036288Y-94042666D01*
X79095711Y-94027500D01*
X82569445Y-94027500D01*
X82569446Y-94027500D01*
X82569447Y-94027500D01*
X82636527Y-94009526D01*
X82703608Y-93991552D01*
X82769330Y-93953607D01*
X82823893Y-93922105D01*
X82922105Y-93823893D01*
X82922105Y-93823892D01*
X82939541Y-93806456D01*
X82939547Y-93806449D01*
X82946572Y-93799424D01*
X82974829Y-93778271D01*
X82997921Y-93765663D01*
X83057341Y-93750500D01*
X83073920Y-93750500D01*
X83171462Y-93731096D01*
X83218913Y-93721658D01*
X83355495Y-93665084D01*
X83478416Y-93582951D01*
X83582951Y-93478416D01*
X83665084Y-93355495D01*
X83721658Y-93218913D01*
X83731503Y-93169421D01*
X83733547Y-93159145D01*
X83733547Y-93159143D01*
X83750500Y-93073921D01*
X83750500Y-92926080D01*
X83750500Y-92926079D01*
X83743954Y-92893174D01*
X83742065Y-92857941D01*
X83743303Y-92844108D01*
X83768883Y-92779093D01*
X83825552Y-92738227D01*
X83835947Y-92734560D01*
X83877191Y-92727500D01*
X93521208Y-92727500D01*
X93556144Y-92732523D01*
X93571142Y-92736927D01*
X93586140Y-92746565D01*
X93603245Y-92751588D01*
X93629918Y-92774700D01*
X93634235Y-92779682D01*
X93662996Y-92841488D01*
X93668350Y-92875293D01*
X93668350Y-92875294D01*
X93668703Y-92876354D01*
X93670670Y-92879850D01*
X93725950Y-92988342D01*
X93725952Y-92988344D01*
X93725954Y-92988347D01*
X93815652Y-93078045D01*
X93815653Y-93078045D01*
X93815657Y-93078049D01*
X93815662Y-93078053D01*
X93815882Y-93078164D01*
X93920132Y-93131283D01*
X93920133Y-93131283D01*
X93928698Y-93135647D01*
X94022220Y-93150458D01*
X94022457Y-93150497D01*
X94022466Y-93150497D01*
X94022475Y-93150499D01*
X94022481Y-93150500D01*
X96085518Y-93150499D01*
X96179304Y-93135646D01*
X96292342Y-93078050D01*
X96382050Y-92988342D01*
X96439646Y-92875304D01*
X96439646Y-92875302D01*
X96439647Y-92875301D01*
X96439648Y-92875293D01*
X96440785Y-92870560D01*
X96440785Y-92870558D01*
X96440789Y-92870539D01*
X96441173Y-92865668D01*
X96454111Y-92783979D01*
X96454437Y-92782154D01*
X96454499Y-92781523D01*
X96454500Y-92781519D01*
X96454499Y-91618482D01*
X96439646Y-91524696D01*
X96387406Y-91422170D01*
X96376025Y-91388773D01*
X96371914Y-91366881D01*
X96374811Y-91309048D01*
X96376068Y-91304769D01*
X96378845Y-91297783D01*
X96378888Y-91297362D01*
X96379138Y-91297045D01*
X96384556Y-91283423D01*
X96385744Y-91281092D01*
X96439646Y-91175304D01*
X96439646Y-91175302D01*
X96439647Y-91175301D01*
X96439649Y-91175291D01*
X96440785Y-91170560D01*
X96440785Y-91170558D01*
X96440789Y-91170539D01*
X96441173Y-91165668D01*
X96454111Y-91083979D01*
X96454437Y-91082154D01*
X96454499Y-91081523D01*
X96454500Y-91081519D01*
X96454499Y-89918482D01*
X96439646Y-89824696D01*
X96387406Y-89722170D01*
X96376025Y-89688773D01*
X96371914Y-89666881D01*
X96374811Y-89609048D01*
X96376068Y-89604769D01*
X96378845Y-89597783D01*
X96378888Y-89597362D01*
X96379138Y-89597045D01*
X96384556Y-89583423D01*
X96384794Y-89582956D01*
X96439646Y-89475304D01*
X96439646Y-89475302D01*
X96439647Y-89475301D01*
X96439647Y-89475299D01*
X96439706Y-89475184D01*
X96440765Y-89470818D01*
X96455826Y-89444718D01*
X96468726Y-89417502D01*
X96473207Y-89414599D01*
X96475687Y-89410302D01*
X96496077Y-89399784D01*
X96523799Y-89381827D01*
X96585360Y-89362310D01*
X96693057Y-89295250D01*
X96745861Y-89249495D01*
X96815042Y-89171923D01*
X96869389Y-89057285D01*
X96889074Y-88990246D01*
X96905500Y-88876000D01*
X96905500Y-87879500D01*
X96925185Y-87812461D01*
X96977989Y-87766706D01*
X97029500Y-87755500D01*
X113470500Y-87755500D01*
X113537539Y-87775185D01*
X113583294Y-87827989D01*
X113594500Y-87879500D01*
X113594500Y-88876008D01*
X113603767Y-88962197D01*
X113614973Y-89013706D01*
X113614974Y-89013710D01*
X113637690Y-89085360D01*
X113637691Y-89085361D01*
X113637691Y-89085362D01*
X113704751Y-89193059D01*
X113750498Y-89245854D01*
X113750502Y-89245857D01*
X113750505Y-89245861D01*
X113828077Y-89315042D01*
X113942715Y-89369389D01*
X113942717Y-89369389D01*
X113942912Y-89369482D01*
X113995057Y-89415987D01*
X114003519Y-89432107D01*
X114009802Y-89446565D01*
X114010292Y-89449657D01*
X114014354Y-89475304D01*
X114068314Y-89581206D01*
X114069829Y-89584692D01*
X114070349Y-89588852D01*
X114077973Y-89611225D01*
X114081065Y-89627688D01*
X114081675Y-89630832D01*
X114082223Y-89633656D01*
X114075665Y-89703218D01*
X114070977Y-89713565D01*
X114014353Y-89824695D01*
X114014353Y-89824697D01*
X114009126Y-89857698D01*
X114005115Y-89867941D01*
X114004982Y-89875370D01*
X113994123Y-89896018D01*
X113990391Y-89905550D01*
X113990481Y-89905606D01*
X113990178Y-89906094D01*
X113989744Y-89907205D01*
X113987118Y-89911133D01*
X113986855Y-89911469D01*
X113986760Y-89911669D01*
X113985146Y-89914084D01*
X113984149Y-89914916D01*
X113982630Y-89916856D01*
X113982216Y-89916531D01*
X113960015Y-89935079D01*
X113941665Y-89951545D01*
X113942496Y-89952879D01*
X113941068Y-89953768D01*
X113938311Y-89954556D01*
X113935524Y-89957057D01*
X113930431Y-89959491D01*
X113930217Y-89959045D01*
X113916652Y-89960746D01*
X113875534Y-89972500D01*
X107734670Y-89972500D01*
X107719350Y-89968001D01*
X107703392Y-89968490D01*
X107699740Y-89967478D01*
X107693878Y-89965757D01*
X107678876Y-89956117D01*
X107667631Y-89952815D01*
X107659958Y-89943960D01*
X107635098Y-89927985D01*
X107622817Y-89901098D01*
X107621876Y-89900011D01*
X107621637Y-89898512D01*
X107606071Y-89864431D01*
X107616012Y-89795272D01*
X107637092Y-89770934D01*
X107638925Y-89766573D01*
X107643726Y-89763275D01*
X107661733Y-89742487D01*
X107662457Y-89742020D01*
X107663222Y-89741529D01*
X107692764Y-89729596D01*
X107696520Y-89727017D01*
X107699365Y-89726929D01*
X107706116Y-89724203D01*
X107708939Y-89723641D01*
X107710903Y-89723251D01*
X107710904Y-89723250D01*
X107718913Y-89721658D01*
X107855495Y-89665084D01*
X107896589Y-89637626D01*
X107978418Y-89582950D01*
X107978419Y-89582948D01*
X108082948Y-89478419D01*
X108082950Y-89478417D01*
X108082951Y-89478416D01*
X108165084Y-89355495D01*
X108221658Y-89218913D01*
X108250500Y-89073918D01*
X108250500Y-88926082D01*
X108250500Y-88926079D01*
X108250500Y-88926076D01*
X108221717Y-88781383D01*
X108221419Y-88779885D01*
X108219338Y-88775487D01*
X108165087Y-88644511D01*
X108165080Y-88644498D01*
X108082951Y-88521584D01*
X108082948Y-88521580D01*
X108082943Y-88521574D01*
X107978424Y-88417055D01*
X107978418Y-88417050D01*
X107978417Y-88417049D01*
X107855507Y-88334923D01*
X107855506Y-88334922D01*
X107855501Y-88334919D01*
X107855488Y-88334912D01*
X107855481Y-88334908D01*
X107718919Y-88278344D01*
X107718920Y-88278344D01*
X107718917Y-88278343D01*
X107718907Y-88278340D01*
X107718905Y-88278339D01*
X107718900Y-88278338D01*
X107573922Y-88249500D01*
X107573920Y-88249500D01*
X107573918Y-88249500D01*
X107426082Y-88249500D01*
X107426080Y-88249500D01*
X107426078Y-88249500D01*
X107281096Y-88278338D01*
X107281079Y-88278344D01*
X107144517Y-88334908D01*
X107144508Y-88334913D01*
X107144491Y-88334923D01*
X107021588Y-88417045D01*
X107021583Y-88417048D01*
X107015051Y-88423580D01*
X106988227Y-88443659D01*
X106986803Y-88444725D01*
X106963718Y-88457331D01*
X106904289Y-88472500D01*
X103103060Y-88472500D01*
X103068124Y-88467477D01*
X103042882Y-88460065D01*
X102990134Y-88428766D01*
X102978422Y-88417053D01*
X102978418Y-88417050D01*
X102978417Y-88417049D01*
X102855507Y-88334923D01*
X102855506Y-88334922D01*
X102855501Y-88334919D01*
X102855488Y-88334912D01*
X102855481Y-88334908D01*
X102718919Y-88278344D01*
X102718920Y-88278344D01*
X102718917Y-88278343D01*
X102718907Y-88278340D01*
X102718905Y-88278339D01*
X102718900Y-88278338D01*
X102573922Y-88249500D01*
X102573920Y-88249500D01*
X102573918Y-88249500D01*
X102426082Y-88249500D01*
X102426080Y-88249500D01*
X102426078Y-88249500D01*
X102281096Y-88278338D01*
X102281079Y-88278344D01*
X102144517Y-88334908D01*
X102144508Y-88334913D01*
X102144491Y-88334923D01*
X102021581Y-88417049D01*
X102021580Y-88417050D01*
X102021574Y-88417055D01*
X101917055Y-88521574D01*
X101917050Y-88521580D01*
X101917049Y-88521581D01*
X101834923Y-88644491D01*
X101834913Y-88644508D01*
X101834908Y-88644517D01*
X101778344Y-88781079D01*
X101778338Y-88781098D01*
X101749500Y-88926076D01*
X101749500Y-89029551D01*
X101744237Y-89047471D01*
X101778338Y-89218899D01*
X101778344Y-89218919D01*
X101834908Y-89355481D01*
X101834913Y-89355490D01*
X101834923Y-89355507D01*
X101917049Y-89478417D01*
X101917050Y-89478418D01*
X101917055Y-89478424D01*
X102021574Y-89582943D01*
X102021580Y-89582948D01*
X102021584Y-89582951D01*
X102144498Y-89665080D01*
X102144511Y-89665087D01*
X102281082Y-89721656D01*
X102281087Y-89721658D01*
X102281091Y-89721658D01*
X102281092Y-89721659D01*
X102289085Y-89723249D01*
X102289874Y-89723406D01*
X102305080Y-89731145D01*
X102320671Y-89733885D01*
X102323147Y-89735145D01*
X102328561Y-89737977D01*
X102339786Y-89748809D01*
X102349754Y-89753882D01*
X102353525Y-89757361D01*
X102360215Y-89768521D01*
X102378840Y-89786493D01*
X102383948Y-89808109D01*
X102389450Y-89817287D01*
X102389061Y-89829750D01*
X102394908Y-89854490D01*
X102387650Y-89875062D01*
X102387275Y-89887123D01*
X102379309Y-89898707D01*
X102371664Y-89920380D01*
X102356082Y-89932487D01*
X102347688Y-89944696D01*
X102331782Y-89951369D01*
X102316520Y-89963229D01*
X102314877Y-89963876D01*
X102291313Y-89968348D01*
X102283259Y-89971728D01*
X102278196Y-89970838D01*
X102269443Y-89972500D01*
X101386792Y-89972500D01*
X101351851Y-89967475D01*
X101336852Y-89963070D01*
X101278082Y-89925300D01*
X101273764Y-89920317D01*
X101245001Y-89858509D01*
X101240447Y-89829750D01*
X101239647Y-89824698D01*
X101231194Y-89808109D01*
X101182050Y-89711658D01*
X101182046Y-89711654D01*
X101182045Y-89711652D01*
X101092347Y-89621954D01*
X101092344Y-89621952D01*
X101092342Y-89621950D01*
X101092340Y-89621949D01*
X101092339Y-89621948D01*
X101015519Y-89582805D01*
X101015519Y-89582806D01*
X101007101Y-89578517D01*
X100979301Y-89564352D01*
X100979299Y-89564351D01*
X100979298Y-89564351D01*
X100979296Y-89564350D01*
X100885530Y-89549500D01*
X100885524Y-89549500D01*
X98822482Y-89549500D01*
X98822478Y-89549500D01*
X98757846Y-89559736D01*
X98757842Y-89559737D01*
X98741519Y-89562323D01*
X98728696Y-89564354D01*
X98615658Y-89621950D01*
X98615657Y-89621951D01*
X98615652Y-89621954D01*
X98612652Y-89624953D01*
X98612649Y-89624955D01*
X98525953Y-89711651D01*
X98520044Y-89723249D01*
X98507021Y-89748809D01*
X98506752Y-89749336D01*
X98506751Y-89749337D01*
X98468353Y-89824695D01*
X98468350Y-89824703D01*
X98453500Y-89918469D01*
X98453500Y-91081519D01*
X98457063Y-91104011D01*
X98460387Y-91125000D01*
X98468354Y-91175304D01*
X98523619Y-91283767D01*
X98525996Y-91290014D01*
X98526368Y-91294780D01*
X98531973Y-91311227D01*
X98536084Y-91333118D01*
X98533194Y-91390928D01*
X98531938Y-91395207D01*
X98523443Y-91416578D01*
X98468352Y-91524698D01*
X98468350Y-91524703D01*
X98453500Y-91618469D01*
X98453500Y-91618475D01*
X98453500Y-92781517D01*
X98456426Y-92799989D01*
X98456426Y-92800001D01*
X98468352Y-92875299D01*
X98468352Y-92875300D01*
X98468353Y-92875303D01*
X98468354Y-92875304D01*
X98525950Y-92988342D01*
X98525952Y-92988344D01*
X98525954Y-92988347D01*
X98615652Y-93078045D01*
X98615653Y-93078045D01*
X98615657Y-93078049D01*
X98615662Y-93078053D01*
X98615882Y-93078164D01*
X98720132Y-93131283D01*
X98720133Y-93131283D01*
X98728698Y-93135647D01*
X98822220Y-93150458D01*
X98822457Y-93150497D01*
X98822466Y-93150497D01*
X98822475Y-93150499D01*
X98822481Y-93150500D01*
X99989311Y-93150499D01*
X100021546Y-93154762D01*
X100022906Y-93155128D01*
X100036580Y-93159143D01*
X100043039Y-93160548D01*
X100045943Y-93161330D01*
X100073269Y-93178030D01*
X100101382Y-93193379D01*
X100101389Y-93193386D01*
X100226500Y-93318497D01*
X100226521Y-93318519D01*
X100227564Y-93319562D01*
X100231894Y-93323892D01*
X100231895Y-93323893D01*
X100330107Y-93422105D01*
X100384670Y-93453607D01*
X100450392Y-93491552D01*
X100517473Y-93509526D01*
X100584553Y-93527500D01*
X100584554Y-93527500D01*
X100584555Y-93527500D01*
X114323445Y-93527500D01*
X114323446Y-93527500D01*
X114323447Y-93527500D01*
X114390527Y-93509526D01*
X114457608Y-93491552D01*
X114523330Y-93453607D01*
X114577893Y-93422105D01*
X114676105Y-93323893D01*
X114676105Y-93323892D01*
X114693532Y-93306465D01*
X114693538Y-93306457D01*
X114800576Y-93199418D01*
X114828827Y-93178271D01*
X114851917Y-93165663D01*
X114911339Y-93150499D01*
X116431517Y-93150499D01*
X116431518Y-93150499D01*
X116525304Y-93135646D01*
X116638342Y-93078050D01*
X116728050Y-92988342D01*
X116785646Y-92875304D01*
X116785646Y-92875302D01*
X116785647Y-92875301D01*
X116785648Y-92875293D01*
X116786785Y-92870560D01*
X116786785Y-92870558D01*
X116786789Y-92870539D01*
X116787173Y-92865668D01*
X116800111Y-92783979D01*
X116800437Y-92782154D01*
X116800499Y-92781523D01*
X116800500Y-92781519D01*
X116800499Y-91618482D01*
X116785646Y-91524696D01*
X116733406Y-91422170D01*
X116722025Y-91388773D01*
X116717914Y-91366881D01*
X116720811Y-91309048D01*
X116722068Y-91304769D01*
X116724845Y-91297783D01*
X116724888Y-91297362D01*
X116725138Y-91297045D01*
X116730556Y-91283423D01*
X116731744Y-91281092D01*
X116785646Y-91175304D01*
X116785646Y-91175302D01*
X116785647Y-91175301D01*
X116785649Y-91175291D01*
X116786785Y-91170560D01*
X116786785Y-91170558D01*
X116786789Y-91170539D01*
X116787173Y-91165668D01*
X116800111Y-91083979D01*
X116800437Y-91082154D01*
X116800499Y-91081523D01*
X116800500Y-91081519D01*
X116800499Y-89918482D01*
X116785646Y-89824696D01*
X116733406Y-89722170D01*
X116722025Y-89688773D01*
X116717914Y-89666881D01*
X116720811Y-89609048D01*
X116722068Y-89604769D01*
X116724845Y-89597783D01*
X116724888Y-89597362D01*
X116725138Y-89597045D01*
X116730556Y-89583423D01*
X116730797Y-89582951D01*
X116785646Y-89475304D01*
X116785646Y-89475303D01*
X116787559Y-89471549D01*
X116835534Y-89420753D01*
X116884787Y-89404555D01*
X116962199Y-89396232D01*
X117013710Y-89385026D01*
X117085360Y-89362310D01*
X117193057Y-89295250D01*
X117245861Y-89249495D01*
X117315042Y-89171923D01*
X117369389Y-89057285D01*
X117389074Y-88990246D01*
X117405500Y-88876000D01*
X117405500Y-87879500D01*
X117425185Y-87812461D01*
X117477989Y-87766706D01*
X117529500Y-87755500D01*
X132970500Y-87755500D01*
X133037539Y-87775185D01*
X133083294Y-87827989D01*
X133094500Y-87879500D01*
X133094500Y-88876008D01*
X133103767Y-88962197D01*
X133114973Y-89013706D01*
X133114974Y-89013710D01*
X133137690Y-89085360D01*
X133137691Y-89085361D01*
X133137691Y-89085362D01*
X133204751Y-89193059D01*
X133250498Y-89245854D01*
X133250502Y-89245857D01*
X133250505Y-89245861D01*
X133328077Y-89315042D01*
X133328078Y-89315042D01*
X133328079Y-89315043D01*
X133442712Y-89369388D01*
X133442714Y-89369388D01*
X133442715Y-89369389D01*
X133509754Y-89389074D01*
X133570308Y-89397780D01*
X133633864Y-89426804D01*
X133663320Y-89464563D01*
X133668172Y-89474159D01*
X133668354Y-89475304D01*
X133720698Y-89578035D01*
X133720761Y-89578159D01*
X133720827Y-89578518D01*
X133731973Y-89611225D01*
X133735065Y-89627688D01*
X133735675Y-89630832D01*
X133736223Y-89633656D01*
X133729665Y-89703218D01*
X133724977Y-89713565D01*
X133668353Y-89824695D01*
X133668353Y-89824697D01*
X133663126Y-89857698D01*
X133659115Y-89867941D01*
X133658982Y-89875370D01*
X133648123Y-89896018D01*
X133644391Y-89905550D01*
X133644481Y-89905606D01*
X133644178Y-89906094D01*
X133643744Y-89907205D01*
X133641118Y-89911133D01*
X133640855Y-89911469D01*
X133640760Y-89911669D01*
X133639146Y-89914084D01*
X133638149Y-89914916D01*
X133636630Y-89916856D01*
X133636216Y-89916531D01*
X133614015Y-89935079D01*
X133595665Y-89951545D01*
X133596496Y-89952879D01*
X133595068Y-89953768D01*
X133592311Y-89954556D01*
X133589524Y-89957057D01*
X133584431Y-89959491D01*
X133584217Y-89959045D01*
X133570652Y-89960746D01*
X133529534Y-89972500D01*
X121732792Y-89972500D01*
X121732787Y-89972499D01*
X121732785Y-89972500D01*
X121697851Y-89967475D01*
X121682852Y-89963070D01*
X121624082Y-89925300D01*
X121619764Y-89920317D01*
X121591001Y-89858509D01*
X121587171Y-89834327D01*
X121586788Y-89829456D01*
X121586785Y-89829441D01*
X121586785Y-89829440D01*
X121585649Y-89824714D01*
X121585647Y-89824699D01*
X121585646Y-89824697D01*
X121585646Y-89824696D01*
X121528050Y-89711658D01*
X121528046Y-89711654D01*
X121528045Y-89711652D01*
X121438347Y-89621954D01*
X121438344Y-89621952D01*
X121438342Y-89621950D01*
X121438340Y-89621949D01*
X121438339Y-89621948D01*
X121361519Y-89582805D01*
X121361519Y-89582806D01*
X121353101Y-89578517D01*
X121325301Y-89564352D01*
X121325299Y-89564351D01*
X121325298Y-89564351D01*
X121325296Y-89564350D01*
X121231530Y-89549500D01*
X121231524Y-89549500D01*
X119168482Y-89549500D01*
X119168478Y-89549500D01*
X119103846Y-89559736D01*
X119103842Y-89559737D01*
X119087519Y-89562323D01*
X119074696Y-89564354D01*
X118961658Y-89621950D01*
X118961657Y-89621951D01*
X118961652Y-89621954D01*
X118958652Y-89624953D01*
X118958649Y-89624955D01*
X118871953Y-89711651D01*
X118866044Y-89723249D01*
X118853021Y-89748809D01*
X118852752Y-89749336D01*
X118852751Y-89749337D01*
X118814353Y-89824695D01*
X118814350Y-89824703D01*
X118799500Y-89918469D01*
X118799500Y-91081519D01*
X118803063Y-91104011D01*
X118806387Y-91125000D01*
X118814354Y-91175304D01*
X118869619Y-91283767D01*
X118871996Y-91290014D01*
X118872368Y-91294780D01*
X118877973Y-91311227D01*
X118882084Y-91333118D01*
X118879194Y-91390928D01*
X118877938Y-91395207D01*
X118869443Y-91416578D01*
X118814352Y-91524698D01*
X118814350Y-91524703D01*
X118799500Y-91618469D01*
X118799500Y-91618475D01*
X118799500Y-92781517D01*
X118802426Y-92799989D01*
X118802426Y-92800001D01*
X118814352Y-92875299D01*
X118814352Y-92875300D01*
X118814353Y-92875303D01*
X118814354Y-92875304D01*
X118871950Y-92988342D01*
X118871952Y-92988344D01*
X118871954Y-92988347D01*
X118961652Y-93078045D01*
X118961653Y-93078045D01*
X118961657Y-93078049D01*
X118961662Y-93078053D01*
X118961882Y-93078164D01*
X119066132Y-93131283D01*
X119066133Y-93131283D01*
X119074698Y-93135647D01*
X119168220Y-93150458D01*
X119168457Y-93150497D01*
X119168466Y-93150497D01*
X119168475Y-93150499D01*
X119168481Y-93150500D01*
X121231518Y-93150499D01*
X121325304Y-93135646D01*
X121438342Y-93078050D01*
X121528050Y-92988342D01*
X121585646Y-92875304D01*
X121585646Y-92875302D01*
X121585647Y-92875301D01*
X121585647Y-92875300D01*
X121585646Y-92875300D01*
X121586555Y-92873518D01*
X121587173Y-92865666D01*
X121588397Y-92857936D01*
X121589699Y-92849713D01*
X121600125Y-92815994D01*
X121604816Y-92806100D01*
X121606823Y-92801864D01*
X121618684Y-92788564D01*
X121619624Y-92786583D01*
X121621485Y-92785423D01*
X121653324Y-92749723D01*
X121658937Y-92746227D01*
X121724464Y-92727500D01*
X133521209Y-92727500D01*
X133556144Y-92732523D01*
X133571142Y-92736927D01*
X133629918Y-92774700D01*
X133634235Y-92779682D01*
X133662996Y-92841488D01*
X133668350Y-92875293D01*
X133668350Y-92875294D01*
X133668703Y-92876354D01*
X133670670Y-92879850D01*
X133725950Y-92988342D01*
X133725952Y-92988344D01*
X133725954Y-92988347D01*
X133815652Y-93078045D01*
X133815653Y-93078045D01*
X133815657Y-93078049D01*
X133815662Y-93078053D01*
X133815882Y-93078164D01*
X133920132Y-93131283D01*
X133920133Y-93131283D01*
X133928698Y-93135647D01*
X134022220Y-93150458D01*
X134022457Y-93150497D01*
X134022466Y-93150497D01*
X134022475Y-93150499D01*
X134022481Y-93150500D01*
X136085518Y-93150499D01*
X136179304Y-93135646D01*
X136292342Y-93078050D01*
X136382050Y-92988342D01*
X136439646Y-92875304D01*
X136439646Y-92875302D01*
X136439647Y-92875301D01*
X136439648Y-92875293D01*
X136440785Y-92870560D01*
X136440785Y-92870558D01*
X136440789Y-92870539D01*
X136441173Y-92865668D01*
X136454111Y-92783979D01*
X136454437Y-92782154D01*
X136454499Y-92781523D01*
X136454500Y-92781519D01*
X136454499Y-91618482D01*
X136439646Y-91524696D01*
X136387406Y-91422170D01*
X136376025Y-91388773D01*
X136371914Y-91366881D01*
X136374811Y-91309048D01*
X136376068Y-91304769D01*
X136378845Y-91297783D01*
X136378888Y-91297362D01*
X136379138Y-91297045D01*
X136384556Y-91283423D01*
X136385744Y-91281092D01*
X136439646Y-91175304D01*
X136439646Y-91175302D01*
X136439647Y-91175301D01*
X136439649Y-91175291D01*
X136440785Y-91170560D01*
X136440785Y-91170558D01*
X136440789Y-91170539D01*
X136441173Y-91165668D01*
X136454111Y-91083979D01*
X136454437Y-91082154D01*
X136454499Y-91081523D01*
X136454500Y-91081519D01*
X136454499Y-89918482D01*
X136439646Y-89824696D01*
X136387406Y-89722170D01*
X136376025Y-89688773D01*
X136371914Y-89666881D01*
X136374811Y-89609048D01*
X136376068Y-89604769D01*
X136378845Y-89597783D01*
X136378888Y-89597362D01*
X136379138Y-89597045D01*
X136384556Y-89583423D01*
X136384794Y-89582956D01*
X136439646Y-89475304D01*
X136439646Y-89475302D01*
X136439647Y-89475301D01*
X136439647Y-89475299D01*
X136439706Y-89475184D01*
X136440765Y-89470818D01*
X136455826Y-89444718D01*
X136468726Y-89417502D01*
X136473207Y-89414599D01*
X136475687Y-89410302D01*
X136496077Y-89399784D01*
X136523799Y-89381827D01*
X136585360Y-89362310D01*
X136693057Y-89295250D01*
X136745861Y-89249495D01*
X136815042Y-89171923D01*
X136869389Y-89057285D01*
X136889074Y-88990246D01*
X136905500Y-88876000D01*
X136905500Y-87879500D01*
X136925185Y-87812461D01*
X136977989Y-87766706D01*
X137029500Y-87755500D01*
X152970500Y-87755500D01*
X153037539Y-87775185D01*
X153083294Y-87827989D01*
X153094500Y-87879500D01*
X153094500Y-88876008D01*
X153103767Y-88962197D01*
X153114973Y-89013706D01*
X153114974Y-89013710D01*
X153137690Y-89085360D01*
X153137691Y-89085361D01*
X153137691Y-89085362D01*
X153204751Y-89193059D01*
X153250498Y-89245854D01*
X153250502Y-89245857D01*
X153250505Y-89245861D01*
X153328077Y-89315042D01*
X153328078Y-89315042D01*
X153328079Y-89315043D01*
X153442712Y-89369388D01*
X153442714Y-89369388D01*
X153442715Y-89369389D01*
X153509754Y-89389074D01*
X153570308Y-89397780D01*
X153633864Y-89426804D01*
X153663320Y-89464563D01*
X153668172Y-89474159D01*
X153668354Y-89475304D01*
X153720698Y-89578035D01*
X153720761Y-89578159D01*
X153720827Y-89578518D01*
X153731973Y-89611225D01*
X153735065Y-89627688D01*
X153735675Y-89630832D01*
X153736223Y-89633656D01*
X153729665Y-89703218D01*
X153724977Y-89713565D01*
X153668353Y-89824695D01*
X153668353Y-89824697D01*
X153663126Y-89857698D01*
X153659115Y-89867941D01*
X153658982Y-89875370D01*
X153648123Y-89896018D01*
X153644391Y-89905550D01*
X153644481Y-89905606D01*
X153644178Y-89906094D01*
X153643744Y-89907205D01*
X153641118Y-89911133D01*
X153640855Y-89911469D01*
X153640760Y-89911669D01*
X153639146Y-89914084D01*
X153638149Y-89914916D01*
X153636630Y-89916856D01*
X153636216Y-89916531D01*
X153614015Y-89935079D01*
X153595665Y-89951545D01*
X153596496Y-89952879D01*
X153595068Y-89953768D01*
X153592311Y-89954556D01*
X153589524Y-89957057D01*
X153584431Y-89959491D01*
X153584217Y-89959045D01*
X153570652Y-89960746D01*
X153529534Y-89972500D01*
X141386792Y-89972500D01*
X141386787Y-89972499D01*
X141386785Y-89972500D01*
X141351851Y-89967475D01*
X141336852Y-89963070D01*
X141278082Y-89925300D01*
X141273764Y-89920317D01*
X141245001Y-89858509D01*
X141241171Y-89834327D01*
X141240788Y-89829456D01*
X141240785Y-89829441D01*
X141240785Y-89829440D01*
X141239649Y-89824714D01*
X141239647Y-89824699D01*
X141239646Y-89824697D01*
X141239646Y-89824696D01*
X141182050Y-89711658D01*
X141182046Y-89711654D01*
X141182045Y-89711652D01*
X141092347Y-89621954D01*
X141092344Y-89621952D01*
X141092342Y-89621950D01*
X141092340Y-89621949D01*
X141092339Y-89621948D01*
X141015519Y-89582805D01*
X141015519Y-89582806D01*
X141007101Y-89578517D01*
X140979301Y-89564352D01*
X140979299Y-89564351D01*
X140979298Y-89564351D01*
X140979296Y-89564350D01*
X140885530Y-89549500D01*
X140885524Y-89549500D01*
X138822482Y-89549500D01*
X138822478Y-89549500D01*
X138757846Y-89559736D01*
X138757842Y-89559737D01*
X138741519Y-89562323D01*
X138728696Y-89564354D01*
X138615658Y-89621950D01*
X138615657Y-89621951D01*
X138615652Y-89621954D01*
X138612652Y-89624953D01*
X138612649Y-89624955D01*
X138525953Y-89711651D01*
X138520044Y-89723249D01*
X138507021Y-89748809D01*
X138506752Y-89749336D01*
X138506751Y-89749337D01*
X138468353Y-89824695D01*
X138468350Y-89824703D01*
X138453500Y-89918469D01*
X138453500Y-91081519D01*
X138457063Y-91104011D01*
X138460387Y-91125000D01*
X138468354Y-91175304D01*
X138523619Y-91283767D01*
X138525996Y-91290014D01*
X138526368Y-91294780D01*
X138531973Y-91311227D01*
X138536084Y-91333118D01*
X138533194Y-91390928D01*
X138531938Y-91395207D01*
X138523443Y-91416578D01*
X138468352Y-91524698D01*
X138468350Y-91524703D01*
X138453500Y-91618469D01*
X138453500Y-91618475D01*
X138453500Y-92781517D01*
X138456426Y-92799989D01*
X138456426Y-92800001D01*
X138468352Y-92875299D01*
X138468352Y-92875300D01*
X138468353Y-92875303D01*
X138468354Y-92875304D01*
X138525950Y-92988342D01*
X138525952Y-92988344D01*
X138525954Y-92988347D01*
X138615652Y-93078045D01*
X138615653Y-93078045D01*
X138615657Y-93078049D01*
X138615662Y-93078053D01*
X138615882Y-93078164D01*
X138720132Y-93131283D01*
X138720133Y-93131283D01*
X138728698Y-93135647D01*
X138822220Y-93150458D01*
X138822457Y-93150497D01*
X138822466Y-93150497D01*
X138822475Y-93150499D01*
X138822481Y-93150500D01*
X140885518Y-93150499D01*
X140979304Y-93135646D01*
X141092342Y-93078050D01*
X141182050Y-92988342D01*
X141239646Y-92875304D01*
X141239646Y-92875302D01*
X141239647Y-92875301D01*
X141239647Y-92875300D01*
X141239646Y-92875300D01*
X141240555Y-92873518D01*
X141241173Y-92865666D01*
X141242397Y-92857936D01*
X141243699Y-92849713D01*
X141254125Y-92815994D01*
X141258816Y-92806100D01*
X141260823Y-92801864D01*
X141272684Y-92788564D01*
X141273624Y-92786583D01*
X141275485Y-92785423D01*
X141307324Y-92749723D01*
X141312937Y-92746227D01*
X141378464Y-92727500D01*
X153521209Y-92727500D01*
X153556144Y-92732523D01*
X153571142Y-92736927D01*
X153629918Y-92774700D01*
X153634235Y-92779682D01*
X153662996Y-92841488D01*
X153668350Y-92875293D01*
X153668350Y-92875294D01*
X153668703Y-92876354D01*
X153670670Y-92879850D01*
X153725950Y-92988342D01*
X153725952Y-92988344D01*
X153725954Y-92988347D01*
X153815652Y-93078045D01*
X153815653Y-93078045D01*
X153815657Y-93078049D01*
X153815662Y-93078053D01*
X153815882Y-93078164D01*
X153920132Y-93131283D01*
X153920133Y-93131283D01*
X153928698Y-93135647D01*
X154022220Y-93150458D01*
X154022457Y-93150497D01*
X154022466Y-93150497D01*
X154022475Y-93150499D01*
X154022481Y-93150500D01*
X156085518Y-93150499D01*
X156179304Y-93135646D01*
X156292342Y-93078050D01*
X156382050Y-92988342D01*
X156439646Y-92875304D01*
X156439646Y-92875302D01*
X156439647Y-92875301D01*
X156439648Y-92875293D01*
X156440785Y-92870560D01*
X156440785Y-92870558D01*
X156440789Y-92870539D01*
X156441173Y-92865668D01*
X156454111Y-92783979D01*
X156454437Y-92782154D01*
X156454499Y-92781523D01*
X156454500Y-92781519D01*
X156454499Y-91618482D01*
X156439646Y-91524696D01*
X156387406Y-91422170D01*
X156376025Y-91388773D01*
X156371914Y-91366881D01*
X156374811Y-91309048D01*
X156376068Y-91304769D01*
X156378845Y-91297783D01*
X156378888Y-91297362D01*
X156379138Y-91297045D01*
X156384556Y-91283423D01*
X156385744Y-91281092D01*
X156439646Y-91175304D01*
X156439646Y-91175302D01*
X156439647Y-91175301D01*
X156439649Y-91175291D01*
X156440785Y-91170560D01*
X156440785Y-91170558D01*
X156440789Y-91170539D01*
X156441173Y-91165668D01*
X156454111Y-91083979D01*
X156454437Y-91082154D01*
X156454499Y-91081523D01*
X156454500Y-91081519D01*
X156454499Y-89918482D01*
X156439646Y-89824696D01*
X156387406Y-89722170D01*
X156376025Y-89688773D01*
X156371914Y-89666881D01*
X156374811Y-89609048D01*
X156376068Y-89604769D01*
X156378845Y-89597783D01*
X156378888Y-89597362D01*
X156379138Y-89597045D01*
X156384556Y-89583423D01*
X156384794Y-89582956D01*
X156439646Y-89475304D01*
X156439646Y-89475302D01*
X156439647Y-89475301D01*
X156439647Y-89475299D01*
X156439706Y-89475184D01*
X156440765Y-89470818D01*
X156455826Y-89444718D01*
X156468726Y-89417502D01*
X156473207Y-89414599D01*
X156475687Y-89410302D01*
X156496077Y-89399784D01*
X156523799Y-89381827D01*
X156585360Y-89362310D01*
X156693057Y-89295250D01*
X156745861Y-89249495D01*
X156815042Y-89171923D01*
X156869389Y-89057285D01*
X156889074Y-88990246D01*
X156905500Y-88876000D01*
X156905500Y-87879500D01*
X156925185Y-87812461D01*
X156977989Y-87766706D01*
X157029500Y-87755500D01*
X161470500Y-87755500D01*
X161537539Y-87775185D01*
X161583294Y-87827989D01*
X161594500Y-87879500D01*
X161594500Y-92598500D01*
X161591949Y-92607185D01*
X161593238Y-92616147D01*
X161582259Y-92640187D01*
X161574815Y-92665539D01*
X161567974Y-92671466D01*
X161564213Y-92679703D01*
X161541978Y-92693992D01*
X161522011Y-92711294D01*
X161511496Y-92713581D01*
X161505435Y-92717477D01*
X161470500Y-92722500D01*
X161396330Y-92722500D01*
X161361389Y-92717475D01*
X161346390Y-92713070D01*
X161331385Y-92703430D01*
X161329291Y-92702815D01*
X161327862Y-92701166D01*
X161287644Y-92675327D01*
X161286457Y-92673958D01*
X161258981Y-92619097D01*
X161258339Y-92616147D01*
X161257335Y-92611533D01*
X161254499Y-92585177D01*
X161254499Y-91618482D01*
X161254499Y-91618480D01*
X161254499Y-91618477D01*
X161253811Y-91614135D01*
X161253810Y-91614132D01*
X161252046Y-91602994D01*
X161239646Y-91524696D01*
X161183662Y-91414823D01*
X161180927Y-91407050D01*
X161180683Y-91402441D01*
X161176025Y-91388773D01*
X161171914Y-91366881D01*
X161174811Y-91309048D01*
X161176068Y-91304769D01*
X161184556Y-91283423D01*
X161185744Y-91281092D01*
X161239646Y-91175304D01*
X161239646Y-91175302D01*
X161239647Y-91175301D01*
X161239649Y-91175291D01*
X161240785Y-91170560D01*
X161240785Y-91170558D01*
X161240789Y-91170539D01*
X161241173Y-91165668D01*
X161254111Y-91083979D01*
X161254437Y-91082154D01*
X161254499Y-91081523D01*
X161254500Y-91081519D01*
X161254499Y-89918482D01*
X161239646Y-89824696D01*
X161182050Y-89711658D01*
X161182046Y-89711654D01*
X161182045Y-89711652D01*
X161092347Y-89621954D01*
X161092344Y-89621952D01*
X161092342Y-89621950D01*
X161092340Y-89621949D01*
X161092339Y-89621948D01*
X161015519Y-89582805D01*
X161015519Y-89582806D01*
X161007101Y-89578517D01*
X160979301Y-89564352D01*
X160979299Y-89564351D01*
X160979298Y-89564351D01*
X160979296Y-89564350D01*
X160885530Y-89549500D01*
X160885524Y-89549500D01*
X158822482Y-89549500D01*
X158822478Y-89549500D01*
X158757846Y-89559736D01*
X158757842Y-89559737D01*
X158741519Y-89562323D01*
X158728696Y-89564354D01*
X158615658Y-89621950D01*
X158615657Y-89621951D01*
X158615652Y-89621954D01*
X158612652Y-89624953D01*
X158612649Y-89624955D01*
X158525953Y-89711651D01*
X158520044Y-89723249D01*
X158507021Y-89748809D01*
X158506752Y-89749336D01*
X158506751Y-89749337D01*
X158468353Y-89824695D01*
X158468350Y-89824703D01*
X158460966Y-89871328D01*
X158453613Y-89898010D01*
X158452181Y-89901586D01*
X158450299Y-89905557D01*
X158450087Y-89906818D01*
X158447466Y-89913367D01*
X158428692Y-89937241D01*
X158411762Y-89962518D01*
X158406192Y-89967163D01*
X158404458Y-89968062D01*
X158404279Y-89968290D01*
X158403497Y-89968560D01*
X158358869Y-89991707D01*
X158296388Y-90008448D01*
X158282272Y-90016597D01*
X158282250Y-90016612D01*
X158207477Y-90059782D01*
X158207477Y-90059783D01*
X158184442Y-90073083D01*
X158184441Y-90073083D01*
X158176109Y-90077893D01*
X158176103Y-90077897D01*
X158176098Y-90077901D01*
X157577900Y-90676099D01*
X157577893Y-90676107D01*
X157560588Y-90706081D01*
X157558892Y-90709020D01*
X157558891Y-90709022D01*
X157558890Y-90709021D01*
X157555584Y-90714748D01*
X157555577Y-90714761D01*
X157553181Y-90718913D01*
X157508448Y-90796392D01*
X157501080Y-90823892D01*
X157498118Y-90834942D01*
X157498115Y-90834949D01*
X157472500Y-90930551D01*
X157472500Y-90930553D01*
X157472500Y-93069446D01*
X157489069Y-93131283D01*
X157508448Y-93203608D01*
X157508450Y-93203613D01*
X157517279Y-93218905D01*
X157524716Y-93231785D01*
X157524717Y-93231786D01*
X157553187Y-93281098D01*
X157575393Y-93319562D01*
X157577892Y-93323889D01*
X157577894Y-93323892D01*
X157577897Y-93323895D01*
X157577903Y-93323902D01*
X157685579Y-93431578D01*
X157685616Y-93431613D01*
X158426107Y-94172105D01*
X158546392Y-94241552D01*
X158579787Y-94250500D01*
X158680553Y-94277500D01*
X158680554Y-94277500D01*
X158680555Y-94277500D01*
X164819445Y-94277500D01*
X164819446Y-94277500D01*
X164819447Y-94277500D01*
X164920213Y-94250500D01*
X164953608Y-94241552D01*
X165013750Y-94206828D01*
X165067269Y-94175928D01*
X165099727Y-94162888D01*
X165108382Y-94160766D01*
X165113385Y-94158833D01*
X165158074Y-94150500D01*
X166090548Y-94150500D01*
X166090551Y-94150500D01*
X166177259Y-94136765D01*
X166269409Y-94122171D01*
X166355524Y-94094191D01*
X166441636Y-94066212D01*
X166441639Y-94066211D01*
X166602994Y-93983996D01*
X166688180Y-93922105D01*
X166738300Y-93885691D01*
X166760452Y-93872865D01*
X166775677Y-93866041D01*
X166844903Y-93856583D01*
X166908254Y-93886054D01*
X166945491Y-93944666D01*
X166948596Y-93955380D01*
X166953500Y-93989904D01*
X166953500Y-97357670D01*
X166948475Y-97392614D01*
X166944070Y-97407612D01*
X166934439Y-97422601D01*
X166929432Y-97439675D01*
X166906327Y-97466355D01*
X166904958Y-97467542D01*
X166850097Y-97495018D01*
X166842539Y-97496663D01*
X166816168Y-97499500D01*
X68142330Y-97499500D01*
X68107389Y-97494475D01*
X68092390Y-97490070D01*
X68077402Y-97480440D01*
X68060324Y-97475432D01*
X68033644Y-97452327D01*
X68032457Y-97450958D01*
X68004977Y-97396083D01*
X68003332Y-97388521D01*
X68000500Y-97362168D01*
X68000500Y-93944745D01*
X68005521Y-93909818D01*
X68008707Y-93898965D01*
X68018345Y-93883964D01*
X68023368Y-93866857D01*
X68036839Y-93855183D01*
X68046477Y-93840184D01*
X68062697Y-93832775D01*
X68076170Y-93821100D01*
X68093814Y-93818562D01*
X68110031Y-93811155D01*
X68127679Y-93813691D01*
X68145328Y-93811153D01*
X68179183Y-93821091D01*
X68186172Y-93824283D01*
X68222340Y-93849394D01*
X68238987Y-93866041D01*
X68250501Y-93877555D01*
X68250524Y-93877572D01*
X68344980Y-93946198D01*
X68344985Y-93946201D01*
X68349786Y-93949689D01*
X68397006Y-93983996D01*
X68482385Y-94027499D01*
X68533688Y-94053640D01*
X68558359Y-94066211D01*
X68558363Y-94066212D01*
X68609871Y-94082947D01*
X68609872Y-94082948D01*
X68609873Y-94082948D01*
X68730584Y-94122169D01*
X68730585Y-94122169D01*
X68730591Y-94122171D01*
X68813429Y-94135291D01*
X68909449Y-94150500D01*
X68909454Y-94150500D01*
X70090548Y-94150500D01*
X70090551Y-94150500D01*
X70177259Y-94136765D01*
X70269409Y-94122171D01*
X70355524Y-94094191D01*
X70441636Y-94066212D01*
X70441639Y-94066211D01*
X70602994Y-93983996D01*
X70749501Y-93877553D01*
X70877553Y-93749501D01*
X70877555Y-93749497D01*
X70877558Y-93749495D01*
X70986862Y-93599050D01*
X70987038Y-93599177D01*
X70999098Y-93583416D01*
X71011932Y-93569827D01*
X71069701Y-93535275D01*
X71082552Y-93531799D01*
X71114925Y-93527500D01*
X71712311Y-93527500D01*
X71747243Y-93532521D01*
X71772487Y-93539934D01*
X71825233Y-93571230D01*
X72077893Y-93823890D01*
X72077895Y-93823893D01*
X72176107Y-93922105D01*
X72230670Y-93953607D01*
X72273654Y-93978424D01*
X72293537Y-93989904D01*
X72296392Y-93991552D01*
X72363473Y-94009526D01*
X72430553Y-94027500D01*
X72430554Y-94027500D01*
X72430555Y-94027500D01*
X76069445Y-94027500D01*
X76069446Y-94027500D01*
X76069447Y-94027500D01*
X76136527Y-94009526D01*
X76203608Y-93991552D01*
X76269330Y-93953607D01*
X76323893Y-93922105D01*
X76422105Y-93823893D01*
X76422105Y-93823892D01*
X76439543Y-93806454D01*
X76439545Y-93806451D01*
X76813683Y-93432313D01*
X76813688Y-93432309D01*
X76823891Y-93422105D01*
X76823893Y-93422105D01*
X76922105Y-93323893D01*
X76975283Y-93231786D01*
X76975284Y-93231785D01*
X76991550Y-93203611D01*
X76999715Y-93189469D01*
X76999715Y-93189468D01*
X77002034Y-93185450D01*
X77000759Y-93180192D01*
X77004845Y-93153996D01*
X77010932Y-93131281D01*
X77013151Y-93122996D01*
X77027500Y-93069447D01*
X77027500Y-90931618D01*
X76991552Y-90797458D01*
X76991552Y-90797457D01*
X76946204Y-90718913D01*
X76922105Y-90677172D01*
X76823893Y-90578960D01*
X76823890Y-90578958D01*
X76503425Y-90258493D01*
X76482273Y-90230237D01*
X76469666Y-90207148D01*
X76454499Y-90147723D01*
X76454499Y-89918481D01*
X76452452Y-89905557D01*
X76449820Y-89888938D01*
X76439646Y-89824696D01*
X76387406Y-89722170D01*
X76376025Y-89688773D01*
X76371914Y-89666881D01*
X76374811Y-89609048D01*
X76376068Y-89604769D01*
X76378845Y-89597783D01*
X76378888Y-89597362D01*
X76379138Y-89597045D01*
X76384556Y-89583423D01*
X76384794Y-89582956D01*
X76439646Y-89475304D01*
X76439646Y-89475302D01*
X76439647Y-89475301D01*
X76439647Y-89475299D01*
X76439706Y-89475184D01*
X76440765Y-89470818D01*
X76455826Y-89444718D01*
X76468726Y-89417502D01*
X76473207Y-89414599D01*
X76475687Y-89410302D01*
X76496077Y-89399784D01*
X76523799Y-89381827D01*
X76585360Y-89362310D01*
X76693057Y-89295250D01*
X76745861Y-89249495D01*
X76815042Y-89171923D01*
X76869389Y-89057285D01*
X76889074Y-88990246D01*
X76905500Y-88876000D01*
X76905500Y-87879500D01*
X76925185Y-87812461D01*
X76977989Y-87766706D01*
X77029500Y-87755500D01*
X92970500Y-87755500D01*
X93037539Y-87775185D01*
G37*
%TD.AperFunction*%
%TA.AperFunction,Conductor*%
G36*
X166846606Y-73505523D02*
G01*
X166861604Y-73509927D01*
X166876594Y-73519557D01*
X166893675Y-73524567D01*
X166920355Y-73547672D01*
X166921542Y-73549041D01*
X166949018Y-73603902D01*
X166950663Y-73611460D01*
X166953500Y-73637831D01*
X166953500Y-77009871D01*
X166948477Y-77044807D01*
X166945249Y-77055800D01*
X166907473Y-77114578D01*
X166843917Y-77143602D01*
X166775168Y-77133843D01*
X166760263Y-77127101D01*
X166738482Y-77114440D01*
X166613597Y-77023706D01*
X166613581Y-77023695D01*
X166602997Y-77016006D01*
X166602996Y-77016005D01*
X166602994Y-77016004D01*
X166596914Y-77012906D01*
X166596911Y-77012904D01*
X166541088Y-76984461D01*
X166541088Y-76984460D01*
X166541086Y-76984460D01*
X166441639Y-76933788D01*
X166441635Y-76933786D01*
X166441612Y-76933778D01*
X166269412Y-76877829D01*
X166269413Y-76877829D01*
X166135265Y-76856582D01*
X166090551Y-76849500D01*
X166090550Y-76849500D01*
X164909450Y-76849500D01*
X164909449Y-76849500D01*
X164873677Y-76855165D01*
X164730585Y-76877829D01*
X164558386Y-76933778D01*
X164558363Y-76933786D01*
X164558359Y-76933788D01*
X164397005Y-77016004D01*
X164397002Y-77016005D01*
X164397002Y-77016006D01*
X164348169Y-77051484D01*
X164250499Y-77122445D01*
X164250491Y-77122452D01*
X164122450Y-77250493D01*
X164122428Y-77250522D01*
X164013140Y-77400946D01*
X164012968Y-77400821D01*
X164000894Y-77416590D01*
X163988072Y-77430166D01*
X163930307Y-77464721D01*
X163917459Y-77468197D01*
X163885075Y-77472500D01*
X163430550Y-77472500D01*
X163337479Y-77497436D01*
X163337455Y-77497444D01*
X163296390Y-77508448D01*
X163296389Y-77508449D01*
X163273548Y-77521636D01*
X163273543Y-77521638D01*
X163207476Y-77559782D01*
X163207465Y-77559787D01*
X163176118Y-77577886D01*
X163176108Y-77577893D01*
X163176103Y-77577897D01*
X163112346Y-77641654D01*
X163112346Y-77641656D01*
X163077895Y-77676107D01*
X163077893Y-77676109D01*
X162790990Y-77963013D01*
X162530429Y-78223573D01*
X162512366Y-78237095D01*
X162502178Y-78244722D01*
X162479090Y-78257330D01*
X162419660Y-78272500D01*
X161386792Y-78272500D01*
X161351851Y-78267475D01*
X161336852Y-78263070D01*
X161278082Y-78225300D01*
X161273764Y-78220317D01*
X161245001Y-78158509D01*
X161241172Y-78134327D01*
X161239647Y-78124698D01*
X161221011Y-78088123D01*
X161182050Y-78011658D01*
X161182046Y-78011654D01*
X161182045Y-78011652D01*
X161092347Y-77921954D01*
X161092344Y-77921952D01*
X161092342Y-77921950D01*
X161092340Y-77921949D01*
X161092339Y-77921948D01*
X161015519Y-77882805D01*
X161015519Y-77882806D01*
X161014258Y-77882163D01*
X160979301Y-77864352D01*
X160979299Y-77864351D01*
X160979298Y-77864351D01*
X160979296Y-77864350D01*
X160885530Y-77849500D01*
X160885524Y-77849500D01*
X158822482Y-77849500D01*
X158822478Y-77849500D01*
X158757846Y-77859736D01*
X158757842Y-77859737D01*
X158741519Y-77862323D01*
X158728696Y-77864354D01*
X158615658Y-77921950D01*
X158615657Y-77921951D01*
X158615652Y-77921954D01*
X158612652Y-77924953D01*
X158612649Y-77924955D01*
X158525955Y-78011649D01*
X158525946Y-78011664D01*
X158468353Y-78124695D01*
X158468350Y-78124703D01*
X158453500Y-78218469D01*
X158453500Y-79381522D01*
X158459426Y-79418942D01*
X158459428Y-79418948D01*
X158461512Y-79432103D01*
X158468354Y-79475304D01*
X158523407Y-79583351D01*
X158525661Y-79589143D01*
X158526068Y-79593901D01*
X158531973Y-79611227D01*
X158536084Y-79633118D01*
X158533194Y-79690928D01*
X158531938Y-79695207D01*
X158523443Y-79716577D01*
X158484007Y-79793974D01*
X158468352Y-79824698D01*
X158468350Y-79824703D01*
X158453500Y-79918469D01*
X158453500Y-81081517D01*
X158453499Y-81081517D01*
X158460220Y-81123948D01*
X158460220Y-81123950D01*
X158462365Y-81137487D01*
X158468354Y-81175304D01*
X158523237Y-81283017D01*
X158525386Y-81288442D01*
X158525820Y-81293172D01*
X158531973Y-81311227D01*
X158536084Y-81333118D01*
X158533194Y-81390928D01*
X158531938Y-81395207D01*
X158523443Y-81416577D01*
X158480687Y-81500489D01*
X158468352Y-81524698D01*
X158468350Y-81524702D01*
X158463232Y-81557018D01*
X158433301Y-81620152D01*
X158406304Y-81642879D01*
X158306944Y-81704749D01*
X158306940Y-81704752D01*
X158254145Y-81750498D01*
X158184956Y-81828079D01*
X158130611Y-81942712D01*
X158110926Y-82009752D01*
X158110924Y-82009760D01*
X158094500Y-82123999D01*
X158094500Y-83570500D01*
X158074815Y-83637539D01*
X158022011Y-83683294D01*
X157970500Y-83694500D01*
X141529500Y-83694500D01*
X141462461Y-83674815D01*
X141416706Y-83622011D01*
X141405500Y-83570500D01*
X141405500Y-82124008D01*
X141405499Y-82123999D01*
X141396232Y-82037801D01*
X141385026Y-81986290D01*
X141362310Y-81914640D01*
X141362306Y-81914633D01*
X141319237Y-81845464D01*
X141300499Y-81779921D01*
X141300499Y-81618482D01*
X141297233Y-81597861D01*
X141285646Y-81524696D01*
X141233405Y-81422168D01*
X141222062Y-81388974D01*
X141218930Y-81372294D01*
X141217704Y-81365980D01*
X141217674Y-81365819D01*
X141221076Y-81331330D01*
X141224326Y-81296800D01*
X141224525Y-81296358D01*
X141224533Y-81296286D01*
X141224593Y-81296209D01*
X141229021Y-81286436D01*
X141285646Y-81175304D01*
X141290873Y-81142298D01*
X141294886Y-81132049D01*
X141295021Y-81124613D01*
X141305864Y-81104011D01*
X141309602Y-81094464D01*
X141309509Y-81094407D01*
X141309824Y-81093897D01*
X141310262Y-81092779D01*
X141312868Y-81088880D01*
X141313144Y-81088529D01*
X141313243Y-81088320D01*
X141314859Y-81085903D01*
X141315857Y-81085069D01*
X141317417Y-81083081D01*
X141317840Y-81083412D01*
X141340058Y-81064854D01*
X141358331Y-81048454D01*
X141357501Y-81047121D01*
X141358929Y-81046232D01*
X141361686Y-81045443D01*
X141364474Y-81042942D01*
X141364502Y-81042928D01*
X141369594Y-81040496D01*
X141369808Y-81040945D01*
X141383368Y-81039246D01*
X141424463Y-81027500D01*
X153521209Y-81027500D01*
X153556144Y-81032523D01*
X153571142Y-81036927D01*
X153629918Y-81074700D01*
X153634235Y-81079682D01*
X153662996Y-81141488D01*
X153668350Y-81175293D01*
X153668350Y-81175294D01*
X153668703Y-81176354D01*
X153670670Y-81179850D01*
X153725950Y-81288342D01*
X153725952Y-81288344D01*
X153725954Y-81288347D01*
X153815652Y-81378045D01*
X153815654Y-81378046D01*
X153815658Y-81378050D01*
X153928694Y-81435645D01*
X153928698Y-81435647D01*
X154022220Y-81450458D01*
X154022457Y-81450497D01*
X154022466Y-81450497D01*
X154022475Y-81450499D01*
X154022481Y-81450500D01*
X156085518Y-81450499D01*
X156179304Y-81435646D01*
X156292342Y-81378050D01*
X156382050Y-81288342D01*
X156439646Y-81175304D01*
X156439646Y-81175302D01*
X156439647Y-81175301D01*
X156439648Y-81175293D01*
X156440785Y-81170560D01*
X156440785Y-81170558D01*
X156440789Y-81170539D01*
X156441173Y-81165668D01*
X156454111Y-81083979D01*
X156454437Y-81082154D01*
X156454499Y-81081523D01*
X156454500Y-81081519D01*
X156454499Y-79918482D01*
X156439646Y-79824696D01*
X156387406Y-79722170D01*
X156376025Y-79688773D01*
X156371914Y-79666881D01*
X156374811Y-79609048D01*
X156376068Y-79604769D01*
X156378845Y-79597783D01*
X156378888Y-79597362D01*
X156379138Y-79597045D01*
X156384556Y-79583423D01*
X156387374Y-79577893D01*
X156439646Y-79475304D01*
X156439646Y-79475302D01*
X156439647Y-79475301D01*
X156439648Y-79475294D01*
X156440785Y-79470560D01*
X156440785Y-79470558D01*
X156440789Y-79470539D01*
X156441173Y-79465668D01*
X156454111Y-79383979D01*
X156454437Y-79382154D01*
X156454499Y-79381523D01*
X156454499Y-79381522D01*
X156454500Y-79381519D01*
X156454499Y-78218482D01*
X156439646Y-78124696D01*
X156382050Y-78011658D01*
X156382046Y-78011654D01*
X156382045Y-78011652D01*
X156292347Y-77921954D01*
X156292344Y-77921952D01*
X156292342Y-77921950D01*
X156292340Y-77921949D01*
X156292339Y-77921948D01*
X156215519Y-77882805D01*
X156215519Y-77882806D01*
X156214258Y-77882163D01*
X156179301Y-77864352D01*
X156179299Y-77864351D01*
X156179298Y-77864351D01*
X156179296Y-77864350D01*
X156085530Y-77849500D01*
X156085524Y-77849500D01*
X154022482Y-77849500D01*
X154022478Y-77849500D01*
X153957846Y-77859736D01*
X153957842Y-77859737D01*
X153941519Y-77862323D01*
X153928696Y-77864354D01*
X153815658Y-77921950D01*
X153815657Y-77921951D01*
X153815652Y-77921954D01*
X153812652Y-77924953D01*
X153812649Y-77924955D01*
X153725955Y-78011649D01*
X153725943Y-78011668D01*
X153725942Y-78011670D01*
X153668352Y-78124696D01*
X153667209Y-78129456D01*
X153666825Y-78134342D01*
X153664298Y-78150293D01*
X153653874Y-78184004D01*
X153647178Y-78198130D01*
X153635307Y-78211442D01*
X153634366Y-78213427D01*
X153632502Y-78214587D01*
X153600678Y-78250275D01*
X153595085Y-78253758D01*
X153529536Y-78272500D01*
X141432792Y-78272500D01*
X141432787Y-78272499D01*
X141432785Y-78272500D01*
X141397851Y-78267475D01*
X141382852Y-78263070D01*
X141324082Y-78225300D01*
X141319764Y-78220317D01*
X141291001Y-78158509D01*
X141287171Y-78134327D01*
X141286788Y-78129456D01*
X141286785Y-78129441D01*
X141286785Y-78129440D01*
X141285649Y-78124714D01*
X141285647Y-78124699D01*
X141285646Y-78124697D01*
X141285646Y-78124696D01*
X141228099Y-78011755D01*
X141228051Y-78011659D01*
X141228050Y-78011658D01*
X141228045Y-78011653D01*
X141228045Y-78011652D01*
X141138347Y-77921954D01*
X141138344Y-77921952D01*
X141138342Y-77921950D01*
X141138340Y-77921949D01*
X141138339Y-77921948D01*
X141061519Y-77882805D01*
X141061519Y-77882806D01*
X141060258Y-77882163D01*
X141025301Y-77864352D01*
X141025299Y-77864351D01*
X141025298Y-77864351D01*
X141025296Y-77864350D01*
X140931530Y-77849500D01*
X140931524Y-77849500D01*
X138868482Y-77849500D01*
X138868478Y-77849500D01*
X138803846Y-77859736D01*
X138803842Y-77859737D01*
X138787519Y-77862323D01*
X138774696Y-77864354D01*
X138661658Y-77921950D01*
X138661657Y-77921951D01*
X138661652Y-77921954D01*
X138658652Y-77924953D01*
X138658649Y-77924955D01*
X138571955Y-78011649D01*
X138571946Y-78011664D01*
X138514353Y-78124695D01*
X138514350Y-78124703D01*
X138499500Y-78218469D01*
X138499500Y-79381522D01*
X138505426Y-79418942D01*
X138505428Y-79418948D01*
X138507512Y-79432103D01*
X138514354Y-79475304D01*
X138569407Y-79583351D01*
X138571661Y-79589143D01*
X138572068Y-79593901D01*
X138577973Y-79611227D01*
X138582084Y-79633118D01*
X138579194Y-79690928D01*
X138577938Y-79695207D01*
X138569443Y-79716577D01*
X138530007Y-79793974D01*
X138514352Y-79824698D01*
X138514350Y-79824703D01*
X138499500Y-79918469D01*
X138499500Y-81081517D01*
X138499499Y-81081517D01*
X138506220Y-81123948D01*
X138506220Y-81123950D01*
X138508365Y-81137487D01*
X138514354Y-81175304D01*
X138569237Y-81283017D01*
X138571386Y-81288442D01*
X138571820Y-81293172D01*
X138577973Y-81311227D01*
X138582084Y-81333118D01*
X138579194Y-81390928D01*
X138577938Y-81395207D01*
X138569443Y-81416578D01*
X138514350Y-81524700D01*
X138512763Y-81534726D01*
X138482833Y-81597861D01*
X138427768Y-81633528D01*
X138414640Y-81637690D01*
X138414637Y-81637691D01*
X138306940Y-81704751D01*
X138306940Y-81704752D01*
X138254145Y-81750498D01*
X138184956Y-81828079D01*
X138130611Y-81942712D01*
X138110926Y-82009752D01*
X138110924Y-82009760D01*
X138094500Y-82123999D01*
X138094500Y-83570500D01*
X138074815Y-83637539D01*
X138022011Y-83683294D01*
X137970500Y-83694500D01*
X121529500Y-83694500D01*
X121462461Y-83674815D01*
X121416706Y-83622011D01*
X121405500Y-83570500D01*
X121405500Y-82124008D01*
X121405499Y-82123999D01*
X121396232Y-82037801D01*
X121385026Y-81986290D01*
X121362310Y-81914640D01*
X121295250Y-81806943D01*
X121295249Y-81806942D01*
X121295248Y-81806940D01*
X121284785Y-81794865D01*
X121255761Y-81731309D01*
X121254499Y-81713664D01*
X121254499Y-81618482D01*
X121251233Y-81597861D01*
X121239646Y-81524696D01*
X121187405Y-81422168D01*
X121176062Y-81388974D01*
X121172930Y-81372294D01*
X121171704Y-81365980D01*
X121171674Y-81365819D01*
X121175076Y-81331330D01*
X121178326Y-81296800D01*
X121178525Y-81296358D01*
X121178533Y-81296286D01*
X121178593Y-81296209D01*
X121183021Y-81286436D01*
X121239646Y-81175304D01*
X121244873Y-81142298D01*
X121248886Y-81132049D01*
X121249021Y-81124613D01*
X121259864Y-81104011D01*
X121263602Y-81094464D01*
X121263509Y-81094407D01*
X121263824Y-81093897D01*
X121264262Y-81092779D01*
X121266868Y-81088880D01*
X121267144Y-81088529D01*
X121267243Y-81088320D01*
X121268859Y-81085903D01*
X121269857Y-81085069D01*
X121271417Y-81083081D01*
X121271840Y-81083412D01*
X121294058Y-81064854D01*
X121312331Y-81048454D01*
X121311501Y-81047121D01*
X121312929Y-81046232D01*
X121315686Y-81045443D01*
X121318474Y-81042942D01*
X121318502Y-81042928D01*
X121323594Y-81040496D01*
X121323808Y-81040945D01*
X121337368Y-81039246D01*
X121378463Y-81027500D01*
X133567209Y-81027500D01*
X133602144Y-81032523D01*
X133617142Y-81036927D01*
X133675918Y-81074700D01*
X133680235Y-81079682D01*
X133708996Y-81141488D01*
X133714350Y-81175293D01*
X133714350Y-81175294D01*
X133714703Y-81176354D01*
X133716670Y-81179850D01*
X133771950Y-81288342D01*
X133771952Y-81288344D01*
X133771954Y-81288347D01*
X133861652Y-81378045D01*
X133861654Y-81378046D01*
X133861658Y-81378050D01*
X133974694Y-81435645D01*
X133974698Y-81435647D01*
X134068220Y-81450458D01*
X134068457Y-81450497D01*
X134068466Y-81450497D01*
X134068475Y-81450499D01*
X134068481Y-81450500D01*
X136131518Y-81450499D01*
X136225304Y-81435646D01*
X136338342Y-81378050D01*
X136428050Y-81288342D01*
X136485646Y-81175304D01*
X136485646Y-81175302D01*
X136485647Y-81175301D01*
X136485648Y-81175293D01*
X136486785Y-81170560D01*
X136486785Y-81170558D01*
X136486789Y-81170539D01*
X136487173Y-81165668D01*
X136500111Y-81083979D01*
X136500437Y-81082154D01*
X136500499Y-81081523D01*
X136500500Y-81081519D01*
X136500499Y-79918482D01*
X136485646Y-79824696D01*
X136433406Y-79722170D01*
X136422025Y-79688773D01*
X136417914Y-79666881D01*
X136420811Y-79609048D01*
X136422068Y-79604769D01*
X136424845Y-79597783D01*
X136424888Y-79597362D01*
X136425138Y-79597045D01*
X136430556Y-79583423D01*
X136433374Y-79577893D01*
X136485646Y-79475304D01*
X136485646Y-79475302D01*
X136485647Y-79475301D01*
X136485648Y-79475294D01*
X136486785Y-79470560D01*
X136486785Y-79470558D01*
X136486789Y-79470539D01*
X136487173Y-79465668D01*
X136500111Y-79383979D01*
X136500437Y-79382154D01*
X136500499Y-79381523D01*
X136500499Y-79381522D01*
X136500500Y-79381519D01*
X136500499Y-78218482D01*
X136485646Y-78124696D01*
X136428050Y-78011658D01*
X136428046Y-78011654D01*
X136428045Y-78011652D01*
X136338347Y-77921954D01*
X136338344Y-77921952D01*
X136338342Y-77921950D01*
X136338340Y-77921949D01*
X136338339Y-77921948D01*
X136261519Y-77882805D01*
X136261519Y-77882806D01*
X136260258Y-77882163D01*
X136225301Y-77864352D01*
X136225299Y-77864351D01*
X136225298Y-77864351D01*
X136225296Y-77864350D01*
X136131530Y-77849500D01*
X136131524Y-77849500D01*
X134068482Y-77849500D01*
X134068478Y-77849500D01*
X134003846Y-77859736D01*
X134003842Y-77859737D01*
X133987519Y-77862323D01*
X133974696Y-77864354D01*
X133861658Y-77921950D01*
X133861657Y-77921951D01*
X133861652Y-77921954D01*
X133858652Y-77924953D01*
X133858649Y-77924955D01*
X133771955Y-78011649D01*
X133771943Y-78011668D01*
X133771942Y-78011670D01*
X133714352Y-78124696D01*
X133713209Y-78129456D01*
X133712825Y-78134342D01*
X133710298Y-78150293D01*
X133699874Y-78184004D01*
X133693178Y-78198130D01*
X133681307Y-78211442D01*
X133680366Y-78213427D01*
X133678502Y-78214587D01*
X133646678Y-78250275D01*
X133641085Y-78253758D01*
X133575536Y-78272500D01*
X121386792Y-78272500D01*
X121386787Y-78272499D01*
X121386785Y-78272500D01*
X121351851Y-78267475D01*
X121336852Y-78263070D01*
X121278082Y-78225300D01*
X121273764Y-78220317D01*
X121245001Y-78158509D01*
X121241171Y-78134327D01*
X121240788Y-78129456D01*
X121240785Y-78129441D01*
X121240785Y-78129440D01*
X121239649Y-78124714D01*
X121239647Y-78124699D01*
X121239646Y-78124697D01*
X121239646Y-78124696D01*
X121182099Y-78011755D01*
X121182051Y-78011659D01*
X121182050Y-78011658D01*
X121182045Y-78011653D01*
X121182045Y-78011652D01*
X121092347Y-77921954D01*
X121092344Y-77921952D01*
X121092342Y-77921950D01*
X121092340Y-77921949D01*
X121092339Y-77921948D01*
X121015519Y-77882805D01*
X121015519Y-77882806D01*
X121014258Y-77882163D01*
X120979301Y-77864352D01*
X120979299Y-77864351D01*
X120979298Y-77864351D01*
X120979296Y-77864350D01*
X120885530Y-77849500D01*
X120885524Y-77849500D01*
X118822482Y-77849500D01*
X118822478Y-77849500D01*
X118757846Y-77859736D01*
X118757842Y-77859737D01*
X118741519Y-77862323D01*
X118728696Y-77864354D01*
X118615658Y-77921950D01*
X118615657Y-77921951D01*
X118615652Y-77921954D01*
X118612652Y-77924953D01*
X118612649Y-77924955D01*
X118525955Y-78011649D01*
X118525946Y-78011664D01*
X118468353Y-78124695D01*
X118468350Y-78124703D01*
X118453500Y-78218469D01*
X118453500Y-79381522D01*
X118459426Y-79418942D01*
X118459428Y-79418948D01*
X118461512Y-79432103D01*
X118468354Y-79475304D01*
X118523407Y-79583351D01*
X118525661Y-79589143D01*
X118526068Y-79593901D01*
X118531973Y-79611227D01*
X118536084Y-79633118D01*
X118533194Y-79690928D01*
X118531938Y-79695207D01*
X118523443Y-79716577D01*
X118484007Y-79793974D01*
X118468352Y-79824698D01*
X118468350Y-79824703D01*
X118453500Y-79918469D01*
X118453500Y-81081517D01*
X118453499Y-81081517D01*
X118460220Y-81123948D01*
X118460220Y-81123950D01*
X118462365Y-81137487D01*
X118468354Y-81175304D01*
X118523237Y-81283017D01*
X118525386Y-81288442D01*
X118525820Y-81293172D01*
X118531973Y-81311227D01*
X118536084Y-81333118D01*
X118533194Y-81390928D01*
X118531938Y-81395207D01*
X118523443Y-81416577D01*
X118480687Y-81500489D01*
X118468352Y-81524698D01*
X118468350Y-81524702D01*
X118463232Y-81557018D01*
X118433301Y-81620152D01*
X118406304Y-81642879D01*
X118306944Y-81704749D01*
X118306940Y-81704752D01*
X118254145Y-81750498D01*
X118184956Y-81828079D01*
X118130611Y-81942712D01*
X118110926Y-82009752D01*
X118110924Y-82009760D01*
X118094500Y-82123999D01*
X118094500Y-83570500D01*
X118074815Y-83637539D01*
X118022011Y-83683294D01*
X117970500Y-83694500D01*
X103029500Y-83694500D01*
X102962461Y-83674815D01*
X102916706Y-83622011D01*
X102905500Y-83570500D01*
X102905500Y-82124008D01*
X102905499Y-82123999D01*
X102896232Y-82037801D01*
X102885026Y-81986290D01*
X102862310Y-81914640D01*
X102862306Y-81914633D01*
X102819237Y-81845464D01*
X102800499Y-81779921D01*
X102800499Y-81618482D01*
X102797233Y-81597861D01*
X102785646Y-81524696D01*
X102733405Y-81422168D01*
X102722062Y-81388974D01*
X102718930Y-81372294D01*
X102717704Y-81365980D01*
X102717674Y-81365819D01*
X102721076Y-81331330D01*
X102724326Y-81296800D01*
X102724525Y-81296358D01*
X102724533Y-81296286D01*
X102724593Y-81296209D01*
X102729021Y-81286436D01*
X102785646Y-81175304D01*
X102790873Y-81142298D01*
X102794886Y-81132049D01*
X102795021Y-81124613D01*
X102805864Y-81104011D01*
X102809602Y-81094464D01*
X102809509Y-81094407D01*
X102809824Y-81093897D01*
X102810262Y-81092779D01*
X102812868Y-81088880D01*
X102813144Y-81088529D01*
X102813243Y-81088320D01*
X102814859Y-81085903D01*
X102815857Y-81085069D01*
X102817417Y-81083081D01*
X102817840Y-81083412D01*
X102840058Y-81064854D01*
X102858331Y-81048454D01*
X102857501Y-81047121D01*
X102858929Y-81046232D01*
X102861686Y-81045443D01*
X102864474Y-81042942D01*
X102864502Y-81042928D01*
X102869594Y-81040496D01*
X102869808Y-81040945D01*
X102883368Y-81039246D01*
X102924463Y-81027500D01*
X113521209Y-81027500D01*
X113556144Y-81032523D01*
X113571142Y-81036927D01*
X113629918Y-81074700D01*
X113634235Y-81079682D01*
X113662996Y-81141488D01*
X113668350Y-81175293D01*
X113668350Y-81175294D01*
X113668703Y-81176354D01*
X113670670Y-81179850D01*
X113725950Y-81288342D01*
X113725952Y-81288344D01*
X113725954Y-81288347D01*
X113815652Y-81378045D01*
X113815654Y-81378046D01*
X113815658Y-81378050D01*
X113928694Y-81435645D01*
X113928698Y-81435647D01*
X114022220Y-81450458D01*
X114022457Y-81450497D01*
X114022466Y-81450497D01*
X114022475Y-81450499D01*
X114022481Y-81450500D01*
X116085518Y-81450499D01*
X116179304Y-81435646D01*
X116292342Y-81378050D01*
X116382050Y-81288342D01*
X116439646Y-81175304D01*
X116439646Y-81175302D01*
X116439647Y-81175301D01*
X116439648Y-81175293D01*
X116440785Y-81170560D01*
X116440785Y-81170558D01*
X116440789Y-81170539D01*
X116441173Y-81165668D01*
X116454111Y-81083979D01*
X116454437Y-81082154D01*
X116454499Y-81081523D01*
X116454500Y-81081519D01*
X116454499Y-79918482D01*
X116439646Y-79824696D01*
X116387406Y-79722170D01*
X116376025Y-79688773D01*
X116371914Y-79666881D01*
X116374811Y-79609048D01*
X116376068Y-79604769D01*
X116378845Y-79597783D01*
X116378888Y-79597362D01*
X116379138Y-79597045D01*
X116384556Y-79583423D01*
X116387374Y-79577893D01*
X116439646Y-79475304D01*
X116439646Y-79475302D01*
X116439647Y-79475301D01*
X116439648Y-79475294D01*
X116440785Y-79470560D01*
X116440785Y-79470558D01*
X116440789Y-79470539D01*
X116441173Y-79465668D01*
X116454111Y-79383979D01*
X116454437Y-79382154D01*
X116454499Y-79381523D01*
X116454499Y-79381522D01*
X116454500Y-79381519D01*
X116454499Y-78218482D01*
X116439646Y-78124696D01*
X116382050Y-78011658D01*
X116382046Y-78011654D01*
X116382045Y-78011652D01*
X116292347Y-77921954D01*
X116292344Y-77921952D01*
X116292342Y-77921950D01*
X116292340Y-77921949D01*
X116292339Y-77921948D01*
X116215519Y-77882805D01*
X116215519Y-77882806D01*
X116214258Y-77882163D01*
X116179301Y-77864352D01*
X116179299Y-77864351D01*
X116179298Y-77864351D01*
X116179296Y-77864350D01*
X116085530Y-77849500D01*
X116085524Y-77849500D01*
X114022482Y-77849500D01*
X114022478Y-77849500D01*
X113957846Y-77859736D01*
X113957842Y-77859737D01*
X113941519Y-77862323D01*
X113928696Y-77864354D01*
X113815658Y-77921950D01*
X113815657Y-77921951D01*
X113815652Y-77921954D01*
X113812652Y-77924953D01*
X113812649Y-77924955D01*
X113725955Y-78011649D01*
X113725943Y-78011668D01*
X113725942Y-78011670D01*
X113668352Y-78124696D01*
X113667209Y-78129456D01*
X113666825Y-78134342D01*
X113664298Y-78150293D01*
X113653874Y-78184004D01*
X113647178Y-78198130D01*
X113635307Y-78211442D01*
X113634366Y-78213427D01*
X113632502Y-78214587D01*
X113600678Y-78250275D01*
X113595085Y-78253758D01*
X113529536Y-78272500D01*
X102932792Y-78272500D01*
X102932787Y-78272499D01*
X102932785Y-78272500D01*
X102897851Y-78267475D01*
X102882852Y-78263070D01*
X102824082Y-78225300D01*
X102819764Y-78220317D01*
X102791001Y-78158509D01*
X102787171Y-78134327D01*
X102786788Y-78129456D01*
X102786785Y-78129441D01*
X102786785Y-78129440D01*
X102785649Y-78124714D01*
X102785647Y-78124699D01*
X102785646Y-78124697D01*
X102785646Y-78124696D01*
X102728099Y-78011755D01*
X102728051Y-78011659D01*
X102728050Y-78011658D01*
X102728045Y-78011653D01*
X102728045Y-78011652D01*
X102638347Y-77921954D01*
X102638344Y-77921952D01*
X102638342Y-77921950D01*
X102638340Y-77921949D01*
X102638339Y-77921948D01*
X102561519Y-77882805D01*
X102561519Y-77882806D01*
X102560258Y-77882163D01*
X102525301Y-77864352D01*
X102525299Y-77864351D01*
X102525298Y-77864351D01*
X102525296Y-77864350D01*
X102431530Y-77849500D01*
X102431524Y-77849500D01*
X100368482Y-77849500D01*
X100368478Y-77849500D01*
X100303846Y-77859736D01*
X100303842Y-77859737D01*
X100287519Y-77862323D01*
X100274696Y-77864354D01*
X100161658Y-77921950D01*
X100161657Y-77921951D01*
X100161652Y-77921954D01*
X100158652Y-77924953D01*
X100158649Y-77924955D01*
X100071955Y-78011649D01*
X100071946Y-78011664D01*
X100014353Y-78124695D01*
X100014350Y-78124703D01*
X99999500Y-78218469D01*
X99999500Y-79381522D01*
X100005426Y-79418942D01*
X100005428Y-79418948D01*
X100007512Y-79432103D01*
X100014354Y-79475304D01*
X100069407Y-79583351D01*
X100071661Y-79589143D01*
X100072068Y-79593901D01*
X100077973Y-79611227D01*
X100082084Y-79633118D01*
X100079194Y-79690928D01*
X100077938Y-79695207D01*
X100069443Y-79716577D01*
X100030007Y-79793974D01*
X100014352Y-79824698D01*
X100014350Y-79824703D01*
X99999500Y-79918469D01*
X99999500Y-81081517D01*
X99999499Y-81081517D01*
X100006220Y-81123948D01*
X100006220Y-81123950D01*
X100008365Y-81137487D01*
X100014354Y-81175304D01*
X100069237Y-81283017D01*
X100071386Y-81288442D01*
X100071820Y-81293172D01*
X100077973Y-81311227D01*
X100082084Y-81333118D01*
X100079194Y-81390928D01*
X100077938Y-81395207D01*
X100069443Y-81416578D01*
X100014350Y-81524700D01*
X100012763Y-81534726D01*
X99982833Y-81597861D01*
X99927768Y-81633528D01*
X99914640Y-81637690D01*
X99914637Y-81637691D01*
X99806940Y-81704751D01*
X99806940Y-81704752D01*
X99754145Y-81750498D01*
X99684956Y-81828079D01*
X99630611Y-81942712D01*
X99610926Y-82009752D01*
X99610924Y-82009760D01*
X99594500Y-82123999D01*
X99594500Y-83570500D01*
X99574815Y-83637539D01*
X99522011Y-83683294D01*
X99470500Y-83694500D01*
X99000000Y-83694500D01*
X96624000Y-83694500D01*
X96623991Y-83694500D01*
X96623990Y-83694501D01*
X96516549Y-83706052D01*
X96516537Y-83706054D01*
X96465027Y-83717260D01*
X96362502Y-83751383D01*
X96362496Y-83751386D01*
X96241462Y-83829171D01*
X96241451Y-83829179D01*
X96188659Y-83874923D01*
X96094433Y-83983664D01*
X96094430Y-83983668D01*
X96034664Y-84114534D01*
X96014976Y-84181582D01*
X95994500Y-84324001D01*
X95994500Y-84620500D01*
X95974815Y-84687539D01*
X95922011Y-84733294D01*
X95870500Y-84744500D01*
X90129351Y-84744500D01*
X90062312Y-84724815D01*
X90016557Y-84672011D01*
X90005351Y-84620548D01*
X90005223Y-84290476D01*
X92263075Y-84290476D01*
X92263075Y-84290477D01*
X92273684Y-84297567D01*
X92273687Y-84297568D01*
X92273726Y-84297589D01*
X92274366Y-84297850D01*
X92400120Y-84349938D01*
X92437479Y-84365413D01*
X92437487Y-84365415D01*
X92437511Y-84365419D01*
X92437512Y-84365420D01*
X92596160Y-84396977D01*
X92611353Y-84399999D01*
X92611357Y-84400000D01*
X92788643Y-84400000D01*
X92788646Y-84399999D01*
X92962512Y-84365415D01*
X92962524Y-84365412D01*
X93065801Y-84322633D01*
X93126302Y-84297574D01*
X93126303Y-84297573D01*
X93126306Y-84297572D01*
X93136923Y-84290476D01*
X93663075Y-84290476D01*
X93663075Y-84290477D01*
X93673684Y-84297567D01*
X93673687Y-84297568D01*
X93673726Y-84297589D01*
X93674366Y-84297850D01*
X93800120Y-84349938D01*
X93837479Y-84365413D01*
X93837487Y-84365415D01*
X93837511Y-84365419D01*
X93837512Y-84365420D01*
X93996160Y-84396977D01*
X94011353Y-84399999D01*
X94011357Y-84400000D01*
X94188643Y-84400000D01*
X94188646Y-84399999D01*
X94362512Y-84365415D01*
X94362524Y-84365412D01*
X94475632Y-84318561D01*
X94520650Y-84299915D01*
X94534123Y-84297234D01*
X94536923Y-84290475D01*
X94170617Y-83924170D01*
X94100001Y-83853554D01*
X94100000Y-83853554D01*
X93663075Y-84290476D01*
X93136923Y-84290476D01*
X93136922Y-84290475D01*
X93136922Y-84290474D01*
X92770617Y-83924170D01*
X92700001Y-83853554D01*
X92700000Y-83853554D01*
X92263075Y-84290476D01*
X90005223Y-84290476D01*
X90005159Y-84126311D01*
X90000342Y-84081612D01*
X89993599Y-84019027D01*
X89982406Y-83967591D01*
X89948336Y-83865196D01*
X89870578Y-83744138D01*
X89824836Y-83691323D01*
X89815076Y-83682862D01*
X89798353Y-83668364D01*
X89716127Y-83597078D01*
X89716125Y-83597077D01*
X89585274Y-83537279D01*
X89585262Y-83537274D01*
X89518237Y-83517575D01*
X89518222Y-83517571D01*
X89375808Y-83497060D01*
X89375812Y-83497060D01*
X81529470Y-83495160D01*
X81462435Y-83475459D01*
X81416693Y-83422644D01*
X81405500Y-83371160D01*
X81405500Y-82711349D01*
X91100000Y-82711349D01*
X91100000Y-82888649D01*
X91134578Y-83062486D01*
X91134586Y-83062521D01*
X91202429Y-83226309D01*
X91202431Y-83226314D01*
X91209521Y-83236923D01*
X91209521Y-83236922D01*
X91209522Y-83236923D01*
X91646446Y-82800000D01*
X91209522Y-82363076D01*
X91209521Y-82363076D01*
X91202433Y-82373684D01*
X91202431Y-82373688D01*
X91202429Y-82373691D01*
X91157941Y-82481096D01*
X91134586Y-82537479D01*
X91134578Y-82537512D01*
X91100000Y-82711349D01*
X81405500Y-82711349D01*
X81405500Y-82124008D01*
X81405499Y-82123999D01*
X81402919Y-82099999D01*
X91653554Y-82099999D01*
X91653554Y-82100000D01*
X92000000Y-82446446D01*
X92346446Y-82100000D01*
X92000000Y-81753554D01*
X91929384Y-81824170D01*
X91929383Y-81824170D01*
X91653554Y-82099999D01*
X81402919Y-82099999D01*
X81396232Y-82037801D01*
X81385026Y-81986290D01*
X81362310Y-81914640D01*
X81295250Y-81806943D01*
X81295249Y-81806942D01*
X81295248Y-81806940D01*
X81284785Y-81794865D01*
X81255761Y-81731309D01*
X81254499Y-81713664D01*
X81254499Y-81618482D01*
X81251233Y-81597861D01*
X81239646Y-81524696D01*
X81187405Y-81422168D01*
X81180404Y-81405531D01*
X81178336Y-81399403D01*
X81178109Y-81393712D01*
X81176021Y-81388750D01*
X81175511Y-81386032D01*
X81176174Y-81385907D01*
X81172444Y-81372120D01*
X81171926Y-81366946D01*
X81171702Y-81365753D01*
X81171719Y-81365508D01*
X81171548Y-81364315D01*
X81171660Y-81364298D01*
X81171660Y-81364293D01*
X81171795Y-81364279D01*
X81171807Y-81364277D01*
X81172819Y-81350169D01*
X81169685Y-81337487D01*
X81174607Y-81311349D01*
X91100000Y-81311349D01*
X91100000Y-81488649D01*
X91134578Y-81662486D01*
X91134586Y-81662521D01*
X91202429Y-81826309D01*
X91202431Y-81826314D01*
X91209521Y-81836923D01*
X91209521Y-81836922D01*
X91209522Y-81836923D01*
X91646446Y-81400000D01*
X91209522Y-80963076D01*
X91209521Y-80963076D01*
X91202433Y-80973684D01*
X91202430Y-80973689D01*
X91202429Y-80973691D01*
X91165253Y-81063442D01*
X91134586Y-81137479D01*
X91134578Y-81137512D01*
X91100000Y-81311349D01*
X81174607Y-81311349D01*
X81176216Y-81302802D01*
X81176473Y-81302049D01*
X81183337Y-81285814D01*
X81239646Y-81175304D01*
X81243699Y-81149712D01*
X81254121Y-81116001D01*
X81260822Y-81101866D01*
X81307321Y-81049724D01*
X81312937Y-81046227D01*
X81378464Y-81027500D01*
X81569445Y-81027500D01*
X81569446Y-81027500D01*
X81569447Y-81027500D01*
X81673945Y-80999500D01*
X81703608Y-80991552D01*
X81792165Y-80940423D01*
X81823893Y-80922105D01*
X81922105Y-80823893D01*
X81922106Y-80823890D01*
X82669574Y-80076423D01*
X82697824Y-80055275D01*
X82720916Y-80042667D01*
X82780341Y-80027500D01*
X91817111Y-80027500D01*
X91852038Y-80032522D01*
X91852045Y-80032523D01*
X91865113Y-80036360D01*
X91923891Y-80074134D01*
X91952917Y-80137689D01*
X91945966Y-80199715D01*
X91943011Y-80207425D01*
X91930326Y-80231938D01*
X91902439Y-80273672D01*
X91902424Y-80273699D01*
X91837018Y-80431605D01*
X91832327Y-80441638D01*
X91819125Y-80466870D01*
X91770604Y-80517145D01*
X91770598Y-80517148D01*
X91753338Y-80526973D01*
X91739448Y-80533770D01*
X91707062Y-80547185D01*
X91573691Y-80602429D01*
X91573690Y-80602430D01*
X91573684Y-80602433D01*
X91563076Y-80609520D01*
X91563076Y-80609522D01*
X91965702Y-81012148D01*
X91999187Y-81073471D01*
X91994203Y-81143163D01*
X91952331Y-81199096D01*
X91925475Y-81214390D01*
X91886709Y-81230447D01*
X91830447Y-81286709D01*
X91823829Y-81302687D01*
X91823829Y-81302688D01*
X91800000Y-81360218D01*
X91800000Y-81439782D01*
X91823829Y-81497311D01*
X91823829Y-81497312D01*
X91830446Y-81513289D01*
X91830448Y-81513291D01*
X91886709Y-81569552D01*
X91960218Y-81600000D01*
X92039782Y-81600000D01*
X92113291Y-81569552D01*
X92169552Y-81513291D01*
X92185608Y-81474526D01*
X92229448Y-81420123D01*
X92295742Y-81398057D01*
X92363442Y-81415335D01*
X92387851Y-81434297D01*
X92786266Y-81832712D01*
X92819751Y-81894035D01*
X92818360Y-81952485D01*
X92797897Y-82028858D01*
X92796479Y-82028478D01*
X92771822Y-82084210D01*
X92764835Y-82091804D01*
X92756640Y-82099999D01*
X92756640Y-82100000D01*
X92764834Y-82108194D01*
X92773011Y-82122542D01*
X92783752Y-82132529D01*
X92791583Y-82155131D01*
X92797280Y-82165127D01*
X92800000Y-82175753D01*
X92800000Y-82178991D01*
X92818523Y-82248121D01*
X92818712Y-82248858D01*
X92817513Y-82283078D01*
X92816697Y-82317364D01*
X92816288Y-82318033D01*
X92816266Y-82318685D01*
X92813167Y-82323153D01*
X92786266Y-82367287D01*
X92387851Y-82765702D01*
X92326528Y-82799187D01*
X92256836Y-82794203D01*
X92200903Y-82752331D01*
X92185608Y-82725473D01*
X92169552Y-82686709D01*
X92113291Y-82630448D01*
X92113289Y-82630446D01*
X92097313Y-82623829D01*
X92097311Y-82623829D01*
X92039782Y-82600000D01*
X91960218Y-82600000D01*
X91902689Y-82623829D01*
X91902688Y-82623829D01*
X91886709Y-82630447D01*
X91830447Y-82686709D01*
X91823829Y-82702687D01*
X91823829Y-82702688D01*
X91800000Y-82760218D01*
X91800000Y-82839782D01*
X91823829Y-82897311D01*
X91823829Y-82897312D01*
X91830446Y-82913289D01*
X91886709Y-82969552D01*
X91886708Y-82969552D01*
X91903855Y-82976654D01*
X91925472Y-82985608D01*
X91979875Y-83029447D01*
X92001941Y-83095741D01*
X91984663Y-83163440D01*
X91965701Y-83187850D01*
X91563075Y-83590475D01*
X91563075Y-83590476D01*
X91563075Y-83590477D01*
X91573302Y-83597312D01*
X91573683Y-83597566D01*
X91573683Y-83597567D01*
X91573689Y-83597569D01*
X91573692Y-83597571D01*
X91731568Y-83662965D01*
X91741586Y-83667648D01*
X91742954Y-83668363D01*
X91742954Y-83668364D01*
X91757877Y-83676170D01*
X91766860Y-83680869D01*
X91817139Y-83729385D01*
X91817139Y-83729386D01*
X91826957Y-83746628D01*
X91833763Y-83760533D01*
X91881144Y-83874923D01*
X91902430Y-83926311D01*
X91909522Y-83936922D01*
X92312151Y-83534294D01*
X92373471Y-83500811D01*
X92443163Y-83505795D01*
X92499096Y-83547667D01*
X92514390Y-83574525D01*
X92530445Y-83613288D01*
X92530448Y-83613291D01*
X92586709Y-83669552D01*
X92660218Y-83700000D01*
X92739782Y-83700000D01*
X92813291Y-83669552D01*
X92869552Y-83613291D01*
X92900000Y-83539782D01*
X92900000Y-83500000D01*
X93053554Y-83500000D01*
X93400000Y-83846446D01*
X93746446Y-83500000D01*
X93400000Y-83153554D01*
X93124170Y-83429383D01*
X93124170Y-83429384D01*
X93053554Y-83500000D01*
X92900000Y-83500000D01*
X92900000Y-83460218D01*
X92869552Y-83386709D01*
X92813291Y-83330448D01*
X92813289Y-83330446D01*
X92774525Y-83314390D01*
X92720122Y-83270549D01*
X92698057Y-83204255D01*
X92715336Y-83136555D01*
X92734293Y-83112152D01*
X93132714Y-82713731D01*
X93142639Y-82708312D01*
X93149743Y-82699510D01*
X93172753Y-82691868D01*
X93194035Y-82680248D01*
X93207034Y-82680484D01*
X93216052Y-82677490D01*
X93249062Y-82681249D01*
X93251141Y-82681287D01*
X93251827Y-82681462D01*
X93321009Y-82700000D01*
X93324249Y-82700000D01*
X93334872Y-82702719D01*
X93358770Y-82716920D01*
X93384197Y-82728166D01*
X93391805Y-82735165D01*
X93399999Y-82743359D01*
X93400000Y-82743360D01*
X93408194Y-82735165D01*
X93422541Y-82726988D01*
X93432527Y-82716249D01*
X93455124Y-82708419D01*
X93465125Y-82702720D01*
X93475751Y-82700000D01*
X93478991Y-82700000D01*
X93548181Y-82681459D01*
X93548857Y-82681287D01*
X93583079Y-82682485D01*
X93617362Y-82683302D01*
X93618031Y-82683710D01*
X93618684Y-82683733D01*
X93623159Y-82686835D01*
X93667287Y-82713733D01*
X94065702Y-83112148D01*
X94099187Y-83173471D01*
X94094203Y-83243163D01*
X94052331Y-83299096D01*
X94025475Y-83314390D01*
X93986709Y-83330447D01*
X93930447Y-83386709D01*
X93923829Y-83402687D01*
X93923829Y-83402688D01*
X93900000Y-83460218D01*
X93900000Y-83539782D01*
X93923829Y-83597311D01*
X93923829Y-83597312D01*
X93930446Y-83613289D01*
X93930448Y-83613291D01*
X93986709Y-83669552D01*
X94060218Y-83700000D01*
X94139782Y-83700000D01*
X94213291Y-83669552D01*
X94269552Y-83613291D01*
X94285608Y-83574526D01*
X94329448Y-83520123D01*
X94395742Y-83498057D01*
X94463442Y-83515335D01*
X94487849Y-83534295D01*
X94590889Y-83637335D01*
X94890475Y-83936923D01*
X94890475Y-83936922D01*
X94890476Y-83936923D01*
X94890476Y-83936922D01*
X94896385Y-83934474D01*
X94899915Y-83920649D01*
X94927706Y-83853554D01*
X94962966Y-83768427D01*
X94967645Y-83758419D01*
X94968363Y-83757044D01*
X94968365Y-83757045D01*
X94980870Y-83733136D01*
X95029378Y-83682862D01*
X95046598Y-83673054D01*
X95060507Y-83666247D01*
X95220650Y-83599915D01*
X95234123Y-83597234D01*
X95236923Y-83590475D01*
X94834297Y-83187851D01*
X94800812Y-83126528D01*
X94805796Y-83056837D01*
X94847667Y-83000903D01*
X94874524Y-82985609D01*
X94913291Y-82969552D01*
X94969552Y-82913291D01*
X95000000Y-82839782D01*
X95000000Y-82799999D01*
X95153554Y-82799999D01*
X95153554Y-82800001D01*
X95224170Y-82870617D01*
X95590475Y-83236923D01*
X95590475Y-83236922D01*
X95590476Y-83236923D01*
X95590476Y-83236922D01*
X95597234Y-83234123D01*
X95599915Y-83220649D01*
X95613501Y-83187850D01*
X95665412Y-83062524D01*
X95665415Y-83062512D01*
X95699999Y-82888646D01*
X95700000Y-82888643D01*
X95700000Y-82711357D01*
X95699999Y-82711353D01*
X95694500Y-82683710D01*
X95665420Y-82537512D01*
X95665419Y-82537511D01*
X95665415Y-82537487D01*
X95665413Y-82537479D01*
X95642058Y-82481096D01*
X95597850Y-82374366D01*
X95597589Y-82373726D01*
X95597569Y-82373688D01*
X95597568Y-82373686D01*
X95597567Y-82373684D01*
X95590477Y-82363075D01*
X95590476Y-82363075D01*
X95224170Y-82729382D01*
X95153554Y-82799999D01*
X95000000Y-82799999D01*
X95000000Y-82760218D01*
X94976170Y-82702686D01*
X94976170Y-82702684D01*
X94969554Y-82686712D01*
X94969552Y-82686709D01*
X94913289Y-82630446D01*
X94897313Y-82623829D01*
X94897311Y-82623829D01*
X94839782Y-82600000D01*
X94760218Y-82600000D01*
X94702689Y-82623829D01*
X94702688Y-82623829D01*
X94686709Y-82630447D01*
X94630447Y-82686709D01*
X94614390Y-82725475D01*
X94570548Y-82779878D01*
X94504254Y-82801942D01*
X94436555Y-82784662D01*
X94412148Y-82765702D01*
X94013733Y-82367287D01*
X94008312Y-82357360D01*
X93999509Y-82350256D01*
X93991867Y-82327243D01*
X93980248Y-82305964D01*
X93980484Y-82292963D01*
X93977490Y-82283946D01*
X93981249Y-82250935D01*
X93981287Y-82248857D01*
X93981454Y-82248202D01*
X94000000Y-82178991D01*
X94000000Y-82175751D01*
X94002720Y-82165125D01*
X94016925Y-82141220D01*
X94028175Y-82115792D01*
X94035155Y-82108204D01*
X94043360Y-82100000D01*
X94043359Y-82099999D01*
X94453554Y-82099999D01*
X94453554Y-82100000D01*
X94800000Y-82446446D01*
X95146446Y-82100000D01*
X94800000Y-81753554D01*
X94729384Y-81824170D01*
X94729383Y-81824170D01*
X94453554Y-82099999D01*
X94043359Y-82099999D01*
X94035166Y-82091806D01*
X94001681Y-82030483D01*
X94000085Y-82021330D01*
X94000000Y-82021012D01*
X94000000Y-82021009D01*
X93981639Y-81952485D01*
X93983302Y-81882637D01*
X94013731Y-81832714D01*
X94412150Y-81434295D01*
X94440938Y-81418576D01*
X94469163Y-81401830D01*
X94471456Y-81401911D01*
X94473471Y-81400812D01*
X94506207Y-81403153D01*
X94538988Y-81404324D01*
X94540872Y-81405632D01*
X94543163Y-81405796D01*
X94569433Y-81425462D01*
X94596381Y-81444172D01*
X94597943Y-81446805D01*
X94599096Y-81447668D01*
X94614390Y-81474525D01*
X94630446Y-81513289D01*
X94630448Y-81513291D01*
X94686709Y-81569552D01*
X94760218Y-81600000D01*
X94839782Y-81600000D01*
X94913291Y-81569552D01*
X94969552Y-81513291D01*
X94985608Y-81474527D01*
X95029446Y-81420125D01*
X95095740Y-81398058D01*
X95163440Y-81415336D01*
X95187850Y-81434298D01*
X95590475Y-81836923D01*
X95590475Y-81836922D01*
X95590476Y-81836923D01*
X95590476Y-81836922D01*
X95597234Y-81834123D01*
X95599915Y-81820649D01*
X95665412Y-81662524D01*
X95665415Y-81662512D01*
X95684256Y-81567792D01*
X95695998Y-81534511D01*
X95696277Y-81533979D01*
X95703245Y-81520656D01*
X95751757Y-81470381D01*
X95758149Y-81466741D01*
X95819502Y-81450499D01*
X97631517Y-81450499D01*
X97631518Y-81450499D01*
X97725304Y-81435646D01*
X97838342Y-81378050D01*
X97928050Y-81288342D01*
X97985646Y-81175304D01*
X97985646Y-81175302D01*
X97985647Y-81175301D01*
X97985648Y-81175293D01*
X97986785Y-81170560D01*
X97986785Y-81170558D01*
X97986789Y-81170539D01*
X97987173Y-81165668D01*
X98000111Y-81083979D01*
X98000437Y-81082154D01*
X98000499Y-81081523D01*
X98000500Y-81081519D01*
X98000499Y-79918482D01*
X97985646Y-79824696D01*
X97933406Y-79722170D01*
X97922025Y-79688773D01*
X97917914Y-79666881D01*
X97920811Y-79609048D01*
X97922068Y-79604769D01*
X97924845Y-79597783D01*
X97924888Y-79597362D01*
X97925138Y-79597045D01*
X97930556Y-79583423D01*
X97933374Y-79577893D01*
X97985646Y-79475304D01*
X97985646Y-79475302D01*
X97985647Y-79475301D01*
X97985648Y-79475294D01*
X97986785Y-79470560D01*
X97986785Y-79470558D01*
X97986789Y-79470539D01*
X97987173Y-79465668D01*
X98000111Y-79383979D01*
X98000437Y-79382154D01*
X98000499Y-79381523D01*
X98000499Y-79381522D01*
X98000500Y-79381519D01*
X98000499Y-78218482D01*
X97985646Y-78124696D01*
X97928050Y-78011658D01*
X97928046Y-78011654D01*
X97928045Y-78011652D01*
X97838347Y-77921954D01*
X97838344Y-77921952D01*
X97838342Y-77921950D01*
X97838340Y-77921949D01*
X97838339Y-77921948D01*
X97761519Y-77882805D01*
X97761519Y-77882806D01*
X97760258Y-77882163D01*
X97725301Y-77864352D01*
X97725299Y-77864351D01*
X97725298Y-77864351D01*
X97725296Y-77864350D01*
X97631530Y-77849500D01*
X97631524Y-77849500D01*
X95568482Y-77849500D01*
X95568478Y-77849500D01*
X95503846Y-77859736D01*
X95503842Y-77859737D01*
X95487519Y-77862323D01*
X95474696Y-77864354D01*
X95361658Y-77921950D01*
X95361657Y-77921951D01*
X95361652Y-77921954D01*
X95358652Y-77924953D01*
X95358649Y-77924955D01*
X95271955Y-78011649D01*
X95271943Y-78011668D01*
X95271942Y-78011670D01*
X95214352Y-78124696D01*
X95213209Y-78129456D01*
X95212825Y-78134342D01*
X95210298Y-78150293D01*
X95199874Y-78184004D01*
X95193178Y-78198130D01*
X95181307Y-78211442D01*
X95180366Y-78213427D01*
X95178502Y-78214587D01*
X95146678Y-78250275D01*
X95141085Y-78253758D01*
X95075536Y-78272500D01*
X81386792Y-78272500D01*
X81386787Y-78272499D01*
X81386785Y-78272500D01*
X81351851Y-78267475D01*
X81336852Y-78263070D01*
X81278082Y-78225300D01*
X81273764Y-78220317D01*
X81245001Y-78158509D01*
X81241171Y-78134327D01*
X81240788Y-78129456D01*
X81240785Y-78129441D01*
X81240785Y-78129440D01*
X81239649Y-78124714D01*
X81239647Y-78124699D01*
X81239646Y-78124697D01*
X81239646Y-78124696D01*
X81182099Y-78011755D01*
X81182051Y-78011659D01*
X81182050Y-78011658D01*
X81182045Y-78011653D01*
X81182045Y-78011652D01*
X81092347Y-77921954D01*
X81092344Y-77921952D01*
X81092342Y-77921950D01*
X81092340Y-77921949D01*
X81092339Y-77921948D01*
X81015519Y-77882805D01*
X81015519Y-77882806D01*
X81014258Y-77882163D01*
X80979301Y-77864352D01*
X80979299Y-77864351D01*
X80979298Y-77864351D01*
X80979296Y-77864350D01*
X80885530Y-77849500D01*
X80885524Y-77849500D01*
X78822482Y-77849500D01*
X78822478Y-77849500D01*
X78757846Y-77859736D01*
X78757842Y-77859737D01*
X78741519Y-77862323D01*
X78728696Y-77864354D01*
X78615658Y-77921950D01*
X78615657Y-77921951D01*
X78615652Y-77921954D01*
X78612652Y-77924953D01*
X78612649Y-77924955D01*
X78525955Y-78011649D01*
X78525946Y-78011664D01*
X78468353Y-78124695D01*
X78468350Y-78124703D01*
X78453500Y-78218469D01*
X78453500Y-79381522D01*
X78459426Y-79418942D01*
X78459428Y-79418948D01*
X78461512Y-79432103D01*
X78468354Y-79475304D01*
X78523407Y-79583351D01*
X78525661Y-79589143D01*
X78526068Y-79593901D01*
X78531973Y-79611227D01*
X78536084Y-79633118D01*
X78533194Y-79690928D01*
X78531938Y-79695207D01*
X78523443Y-79716577D01*
X78484007Y-79793974D01*
X78468352Y-79824698D01*
X78468350Y-79824703D01*
X78453500Y-79918469D01*
X78453500Y-80672100D01*
X78448860Y-80705704D01*
X78448672Y-80706368D01*
X78446364Y-80714231D01*
X78446287Y-80714840D01*
X78444927Y-80719674D01*
X78428560Y-80745777D01*
X78414038Y-80772954D01*
X78410165Y-80775114D01*
X78407811Y-80778870D01*
X78379952Y-80791970D01*
X78360110Y-80803040D01*
X78360676Y-80804844D01*
X78359342Y-80805262D01*
X78356021Y-80805321D01*
X78353032Y-80806990D01*
X78351064Y-80807437D01*
X78350677Y-80805737D01*
X78344584Y-80808603D01*
X78324146Y-80805897D01*
X78289484Y-80806523D01*
X78274813Y-80801496D01*
X78218917Y-80778343D01*
X78218907Y-80778340D01*
X78105431Y-80755768D01*
X78100294Y-80753755D01*
X78097136Y-80753820D01*
X78065766Y-80740223D01*
X78064737Y-80739820D01*
X78064675Y-80739782D01*
X78056619Y-80734811D01*
X78056353Y-80734672D01*
X78054329Y-80733429D01*
X78032252Y-80708982D01*
X78011988Y-80688002D01*
X78011133Y-80688490D01*
X78010504Y-80687386D01*
X78010151Y-80686100D01*
X78009368Y-80685290D01*
X78009296Y-80685153D01*
X78008954Y-80684498D01*
X78009616Y-80684152D01*
X78009523Y-80683813D01*
X78007501Y-80681574D01*
X78005385Y-80668737D01*
X77994264Y-80628214D01*
X77994126Y-80620477D01*
X77996489Y-80594080D01*
X78000500Y-80573918D01*
X78000500Y-80426082D01*
X78000500Y-80426079D01*
X78000500Y-80426076D01*
X77971419Y-80279884D01*
X77969332Y-80275472D01*
X77968586Y-80273672D01*
X77925291Y-80169147D01*
X77925291Y-80169146D01*
X77925290Y-80169143D01*
X77915095Y-80144528D01*
X77915087Y-80144511D01*
X77915085Y-80144508D01*
X77915080Y-80144498D01*
X77832951Y-80021584D01*
X77832948Y-80021580D01*
X77832943Y-80021574D01*
X77826425Y-80015056D01*
X77826423Y-80015055D01*
X77805273Y-79986800D01*
X77792667Y-79963713D01*
X77777500Y-79904288D01*
X77777500Y-79680555D01*
X77777500Y-79680553D01*
X77749148Y-79574743D01*
X77745775Y-79562154D01*
X77745774Y-79562148D01*
X77741552Y-79546391D01*
X77672109Y-79426112D01*
X77672104Y-79426106D01*
X77672089Y-79426090D01*
X76933513Y-78687516D01*
X76929175Y-78683178D01*
X76929173Y-78683175D01*
X76823895Y-78577897D01*
X76823893Y-78577895D01*
X76821345Y-78576424D01*
X76770788Y-78547233D01*
X76770788Y-78547234D01*
X76759337Y-78540623D01*
X76717748Y-78516611D01*
X76717743Y-78516607D01*
X76703609Y-78508447D01*
X76636956Y-78490588D01*
X76636849Y-78490560D01*
X76636577Y-78490487D01*
X76636531Y-78490459D01*
X76636528Y-78490474D01*
X76563875Y-78471007D01*
X76563125Y-78471049D01*
X76533282Y-78459194D01*
X76530260Y-78458181D01*
X76529757Y-78457896D01*
X76524404Y-78454789D01*
X76523842Y-78454540D01*
X76520783Y-78452805D01*
X76498337Y-78429619D01*
X76478469Y-78410858D01*
X76477462Y-78411523D01*
X76475009Y-78407804D01*
X76474881Y-78407469D01*
X76474880Y-78407468D01*
X76474862Y-78407438D01*
X76473869Y-78405736D01*
X76474158Y-78405567D01*
X76473579Y-78404045D01*
X76472185Y-78402605D01*
X76471240Y-78397895D01*
X76455800Y-78357302D01*
X76455779Y-78357157D01*
X76454499Y-78339384D01*
X76454499Y-78218483D01*
X76454499Y-78218482D01*
X76454498Y-78218475D01*
X76439646Y-78124696D01*
X76382050Y-78011658D01*
X76382046Y-78011654D01*
X76382045Y-78011652D01*
X76292347Y-77921954D01*
X76292344Y-77921952D01*
X76292342Y-77921950D01*
X76292340Y-77921949D01*
X76292339Y-77921948D01*
X76215519Y-77882805D01*
X76215519Y-77882806D01*
X76214258Y-77882163D01*
X76179301Y-77864352D01*
X76179299Y-77864351D01*
X76179298Y-77864351D01*
X76179296Y-77864350D01*
X76085530Y-77849500D01*
X76085524Y-77849500D01*
X74022482Y-77849500D01*
X74022478Y-77849500D01*
X73957846Y-77859736D01*
X73957842Y-77859737D01*
X73941519Y-77862323D01*
X73928696Y-77864354D01*
X73815658Y-77921950D01*
X73815657Y-77921951D01*
X73815652Y-77921954D01*
X73812652Y-77924953D01*
X73812649Y-77924955D01*
X73725955Y-78011649D01*
X73725943Y-78011668D01*
X73725942Y-78011670D01*
X73668352Y-78124696D01*
X73667209Y-78129456D01*
X73666825Y-78134342D01*
X73664298Y-78150293D01*
X73653874Y-78184004D01*
X73647178Y-78198130D01*
X73635307Y-78211442D01*
X73634366Y-78213427D01*
X73632502Y-78214587D01*
X73600678Y-78250275D01*
X73595085Y-78253758D01*
X73529536Y-78272500D01*
X71587689Y-78272500D01*
X71555449Y-78268235D01*
X71554067Y-78267863D01*
X71540418Y-78263855D01*
X71533985Y-78262455D01*
X71531049Y-78261665D01*
X71503725Y-78244964D01*
X71475609Y-78229612D01*
X71433513Y-78187516D01*
X71433504Y-78187506D01*
X71396291Y-78150293D01*
X71323895Y-78077897D01*
X71323893Y-78077895D01*
X71263750Y-78043171D01*
X71263749Y-78043170D01*
X71226345Y-78021574D01*
X71224790Y-78020614D01*
X71222967Y-78018586D01*
X71200200Y-78000681D01*
X71187210Y-77987057D01*
X71156451Y-77930727D01*
X71152437Y-77914181D01*
X71152436Y-77914181D01*
X71150199Y-77904959D01*
X71148232Y-77895136D01*
X71125324Y-77750500D01*
X71122171Y-77730591D01*
X71074894Y-77585084D01*
X71066212Y-77558363D01*
X71066211Y-77558360D01*
X71019754Y-77467185D01*
X71009724Y-77447500D01*
X70983999Y-77397011D01*
X70983994Y-77397003D01*
X70900405Y-77281952D01*
X70895714Y-77275495D01*
X70877558Y-77250505D01*
X70877554Y-77250500D01*
X70749499Y-77122445D01*
X70749494Y-77122441D01*
X70646306Y-77047471D01*
X72244237Y-77047471D01*
X72272506Y-77189581D01*
X72278340Y-77218907D01*
X72278343Y-77218915D01*
X72278344Y-77218919D01*
X72334908Y-77355481D01*
X72334913Y-77355490D01*
X72334923Y-77355507D01*
X72417049Y-77478417D01*
X72417050Y-77478418D01*
X72417055Y-77478424D01*
X72521574Y-77582943D01*
X72521580Y-77582948D01*
X72521584Y-77582951D01*
X72644498Y-77665080D01*
X72644511Y-77665087D01*
X72781082Y-77721656D01*
X72781087Y-77721658D01*
X72781091Y-77721658D01*
X72781092Y-77721659D01*
X72781357Y-77721711D01*
X72781358Y-77721712D01*
X72781382Y-77721717D01*
X72926077Y-77750500D01*
X73073920Y-77750500D01*
X73073921Y-77750500D01*
X73123967Y-77740544D01*
X73174015Y-77730589D01*
X73174016Y-77730589D01*
X73185315Y-77728341D01*
X73218913Y-77721658D01*
X73328883Y-77676107D01*
X73355488Y-77665087D01*
X73355488Y-77665086D01*
X73355495Y-77665084D01*
X73478416Y-77582951D01*
X73582951Y-77478416D01*
X73665084Y-77355495D01*
X73670630Y-77342107D01*
X73695546Y-77281952D01*
X73721658Y-77218913D01*
X73737571Y-77138917D01*
X73750500Y-77073920D01*
X73750500Y-77059274D01*
X73752121Y-77049347D01*
X73753908Y-77045622D01*
X73755523Y-77034393D01*
X73759559Y-77020650D01*
X73759927Y-77019394D01*
X73797672Y-76960644D01*
X73799041Y-76959457D01*
X73853920Y-76931977D01*
X73861479Y-76930333D01*
X73887832Y-76927500D01*
X96001311Y-76927500D01*
X96033580Y-76932139D01*
X96036243Y-76932521D01*
X96061487Y-76939934D01*
X96114233Y-76971230D01*
X96382554Y-77239551D01*
X96382564Y-77239562D01*
X96386894Y-77243892D01*
X96386895Y-77243893D01*
X96485107Y-77342105D01*
X96485109Y-77342106D01*
X96485110Y-77342107D01*
X96531196Y-77368714D01*
X96531198Y-77368716D01*
X96531199Y-77368716D01*
X96605392Y-77411552D01*
X96644777Y-77422105D01*
X96739553Y-77447500D01*
X96739554Y-77447500D01*
X96878446Y-77447500D01*
X97896940Y-77447500D01*
X97931872Y-77452521D01*
X97957116Y-77459934D01*
X98009865Y-77491233D01*
X98021576Y-77502945D01*
X98021580Y-77502948D01*
X98021584Y-77502951D01*
X98144498Y-77585080D01*
X98144511Y-77585087D01*
X98281082Y-77641656D01*
X98281087Y-77641658D01*
X98281091Y-77641658D01*
X98281092Y-77641659D01*
X98281357Y-77641711D01*
X98281358Y-77641712D01*
X98281382Y-77641717D01*
X98426077Y-77670500D01*
X98426079Y-77670500D01*
X98426082Y-77670500D01*
X98573920Y-77670500D01*
X98671462Y-77651096D01*
X98718913Y-77641658D01*
X98855495Y-77585084D01*
X98978416Y-77502951D01*
X99082951Y-77398416D01*
X99165084Y-77275495D01*
X99221658Y-77138913D01*
X99245251Y-77020308D01*
X99250500Y-76993920D01*
X99250500Y-76846079D01*
X99250500Y-76846076D01*
X99221419Y-76699885D01*
X99219333Y-76695474D01*
X99198218Y-76644497D01*
X99165092Y-76564524D01*
X99165087Y-76564511D01*
X99165080Y-76564498D01*
X99082951Y-76441584D01*
X99082948Y-76441580D01*
X99082943Y-76441574D01*
X98978424Y-76337055D01*
X98978418Y-76337050D01*
X98978417Y-76337049D01*
X98855507Y-76254923D01*
X98855506Y-76254922D01*
X98855501Y-76254919D01*
X98855488Y-76254912D01*
X98855481Y-76254908D01*
X98718919Y-76198344D01*
X98718920Y-76198344D01*
X98718917Y-76198343D01*
X98718907Y-76198340D01*
X98718905Y-76198339D01*
X98718900Y-76198338D01*
X98573922Y-76169500D01*
X98573920Y-76169500D01*
X98573918Y-76169500D01*
X98426082Y-76169500D01*
X98426080Y-76169500D01*
X98426078Y-76169500D01*
X98281096Y-76198338D01*
X98281079Y-76198344D01*
X98144517Y-76254908D01*
X98144508Y-76254913D01*
X98144491Y-76254923D01*
X98021588Y-76337045D01*
X98021583Y-76337048D01*
X98015051Y-76343580D01*
X97988227Y-76363659D01*
X97986803Y-76364725D01*
X97963718Y-76377331D01*
X97904289Y-76392500D01*
X97096689Y-76392500D01*
X97061753Y-76387477D01*
X97036511Y-76380065D01*
X96983766Y-76348769D01*
X96722513Y-76087516D01*
X96718175Y-76083178D01*
X96718173Y-76083175D01*
X96612895Y-75977897D01*
X96612893Y-75977895D01*
X96610450Y-75976484D01*
X96559787Y-75947233D01*
X96506746Y-75916610D01*
X96492608Y-75908447D01*
X96459068Y-75899461D01*
X96459067Y-75899461D01*
X96425527Y-75890474D01*
X96425524Y-75890473D01*
X96397173Y-75882875D01*
X96397173Y-75882876D01*
X96358450Y-75872500D01*
X96358447Y-75872500D01*
X73530553Y-75872500D01*
X73530547Y-75872500D01*
X73405301Y-75906058D01*
X73405289Y-75906063D01*
X73396390Y-75908448D01*
X73396389Y-75908449D01*
X73378018Y-75919055D01*
X73378002Y-75919063D01*
X73307476Y-75959782D01*
X73307465Y-75959787D01*
X73276118Y-75977886D01*
X73276107Y-75977893D01*
X73276104Y-75977896D01*
X73218278Y-76035722D01*
X73177893Y-76076108D01*
X73160453Y-76093549D01*
X73160452Y-76093549D01*
X73053427Y-76200574D01*
X73025177Y-76221723D01*
X73002091Y-76234330D01*
X72942660Y-76249500D01*
X72926078Y-76249500D01*
X72781096Y-76278338D01*
X72781079Y-76278344D01*
X72644517Y-76334908D01*
X72644508Y-76334913D01*
X72644491Y-76334923D01*
X72521581Y-76417049D01*
X72521580Y-76417050D01*
X72521574Y-76417055D01*
X72417055Y-76521574D01*
X72417050Y-76521580D01*
X72417049Y-76521581D01*
X72334923Y-76644491D01*
X72334920Y-76644497D01*
X72334908Y-76644517D01*
X72278344Y-76781079D01*
X72278338Y-76781098D01*
X72249500Y-76926076D01*
X72249500Y-77029551D01*
X72244237Y-77047471D01*
X70646306Y-77047471D01*
X70610216Y-77021250D01*
X70609474Y-77020695D01*
X70609440Y-77020650D01*
X70602987Y-77015998D01*
X70602623Y-77015815D01*
X70541088Y-76984461D01*
X70541088Y-76984460D01*
X70541086Y-76984460D01*
X70441639Y-76933788D01*
X70441635Y-76933786D01*
X70441612Y-76933778D01*
X70269412Y-76877829D01*
X70269413Y-76877829D01*
X70135265Y-76856582D01*
X70090551Y-76849500D01*
X70090550Y-76849500D01*
X68909450Y-76849500D01*
X68909449Y-76849500D01*
X68873677Y-76855165D01*
X68730585Y-76877829D01*
X68558386Y-76933778D01*
X68558363Y-76933786D01*
X68558359Y-76933788D01*
X68397005Y-77016004D01*
X68397002Y-77016005D01*
X68397002Y-77016006D01*
X68348169Y-77051484D01*
X68250499Y-77122445D01*
X68250492Y-77122451D01*
X68224791Y-77148152D01*
X68224790Y-77148155D01*
X68196536Y-77169307D01*
X68186611Y-77174727D01*
X68118339Y-77189581D01*
X68052874Y-77165167D01*
X68011000Y-77109235D01*
X68008313Y-77102029D01*
X68000500Y-77058709D01*
X68000500Y-73642329D01*
X68005523Y-73607393D01*
X68009927Y-73592395D01*
X68019557Y-73577404D01*
X68024567Y-73560324D01*
X68047672Y-73533644D01*
X68049041Y-73532457D01*
X68103920Y-73504977D01*
X68111479Y-73503333D01*
X68137832Y-73500500D01*
X166811670Y-73500500D01*
X166846606Y-73505523D01*
G37*
%TD.AperFunction*%
%TA.AperFunction,Conductor*%
G36*
X68179186Y-80821093D02*
G01*
X68186172Y-80824283D01*
X68222340Y-80849394D01*
X68238988Y-80866042D01*
X68250501Y-80877555D01*
X68250524Y-80877572D01*
X68357613Y-80955376D01*
X68368212Y-80963076D01*
X68397006Y-80983996D01*
X68491289Y-81032036D01*
X68558360Y-81066211D01*
X68558363Y-81066212D01*
X68605490Y-81081524D01*
X68627050Y-81088529D01*
X68730584Y-81122169D01*
X68730585Y-81122169D01*
X68730591Y-81122171D01*
X68813429Y-81135291D01*
X68909449Y-81150500D01*
X68909454Y-81150500D01*
X70090548Y-81150500D01*
X70090551Y-81150500D01*
X70177259Y-81136765D01*
X70269409Y-81122171D01*
X70441639Y-81066211D01*
X70472301Y-81050588D01*
X70478000Y-81047684D01*
X70505353Y-81037590D01*
X70533119Y-81030924D01*
X70562060Y-81027500D01*
X73521208Y-81027500D01*
X73556144Y-81032523D01*
X73571142Y-81036927D01*
X73629918Y-81074700D01*
X73634235Y-81079682D01*
X73662996Y-81141488D01*
X73668350Y-81175293D01*
X73668350Y-81175294D01*
X73668703Y-81176354D01*
X73670670Y-81179850D01*
X73725950Y-81288342D01*
X73725952Y-81288344D01*
X73725954Y-81288347D01*
X73815652Y-81378045D01*
X73815654Y-81378046D01*
X73815658Y-81378050D01*
X73928694Y-81435645D01*
X73928698Y-81435647D01*
X74022220Y-81450458D01*
X74022457Y-81450497D01*
X74022466Y-81450497D01*
X74022475Y-81450499D01*
X74022481Y-81450500D01*
X75635310Y-81450499D01*
X75661381Y-81454247D01*
X75670242Y-81455520D01*
X75695486Y-81462933D01*
X75748232Y-81494229D01*
X75950573Y-81696570D01*
X75971718Y-81724813D01*
X75975317Y-81731404D01*
X75988106Y-81766645D01*
X76028338Y-81968899D01*
X76028344Y-81968919D01*
X76084908Y-82105481D01*
X76084913Y-82105490D01*
X76084923Y-82105507D01*
X76167049Y-82228417D01*
X76167050Y-82228418D01*
X76167055Y-82228424D01*
X76271574Y-82332943D01*
X76271580Y-82332948D01*
X76271584Y-82332951D01*
X76394498Y-82415080D01*
X76394511Y-82415087D01*
X76516667Y-82465685D01*
X76521188Y-82467557D01*
X76521587Y-82467723D01*
X76525478Y-82469335D01*
X76529885Y-82471419D01*
X76676076Y-82500500D01*
X76676079Y-82500500D01*
X76676082Y-82500500D01*
X76823920Y-82500500D01*
X76921462Y-82481096D01*
X76968913Y-82471658D01*
X77105495Y-82415084D01*
X77228416Y-82332951D01*
X77332951Y-82228416D01*
X77379579Y-82158630D01*
X77403157Y-82132382D01*
X77415154Y-82122356D01*
X77479209Y-82094473D01*
X77481013Y-82094247D01*
X77541865Y-82101889D01*
X77549064Y-82104722D01*
X77572555Y-82117009D01*
X77644498Y-82165080D01*
X77644511Y-82165087D01*
X77781082Y-82221656D01*
X77781087Y-82221658D01*
X77781091Y-82221658D01*
X77781092Y-82221659D01*
X77781357Y-82221711D01*
X77781358Y-82221712D01*
X77781382Y-82221717D01*
X77926077Y-82250500D01*
X77926079Y-82250500D01*
X77926082Y-82250500D01*
X77935310Y-82250500D01*
X77970242Y-82255521D01*
X77995486Y-82262934D01*
X78048232Y-82294230D01*
X78058181Y-82304179D01*
X78091666Y-82365502D01*
X78094500Y-82391860D01*
X78094500Y-83370297D01*
X78074815Y-83437336D01*
X78022011Y-83483091D01*
X77970470Y-83494297D01*
X68124470Y-83491913D01*
X68057435Y-83472212D01*
X68011693Y-83419397D01*
X68000500Y-83367913D01*
X68000500Y-80944745D01*
X68005521Y-80909818D01*
X68008707Y-80898965D01*
X68046477Y-80840184D01*
X68110031Y-80811155D01*
X68179186Y-80821093D01*
G37*
%TD.AperFunction*%
%TA.AperFunction,Conductor*%
G36*
X93746794Y-80032521D02*
G01*
X93772038Y-80039934D01*
X93824784Y-80071230D01*
X94065702Y-80312148D01*
X94099187Y-80373471D01*
X94094203Y-80443163D01*
X94052331Y-80499096D01*
X94025475Y-80514390D01*
X93986709Y-80530447D01*
X93930447Y-80586709D01*
X93923829Y-80602687D01*
X93923829Y-80602688D01*
X93900000Y-80660218D01*
X93900000Y-80739782D01*
X93923829Y-80797311D01*
X93923829Y-80797312D01*
X93930446Y-80813289D01*
X93930448Y-80813291D01*
X93986709Y-80869552D01*
X94025473Y-80885608D01*
X94079877Y-80929449D01*
X94101942Y-80995743D01*
X94084663Y-81063442D01*
X94065702Y-81087851D01*
X93667287Y-81486266D01*
X93657359Y-81491686D01*
X93650256Y-81500489D01*
X93627245Y-81508130D01*
X93605964Y-81519751D01*
X93592964Y-81519514D01*
X93583947Y-81522509D01*
X93550937Y-81518749D01*
X93548858Y-81518712D01*
X93548143Y-81518529D01*
X93478991Y-81500000D01*
X93475754Y-81500000D01*
X93465127Y-81497280D01*
X93441222Y-81483075D01*
X93415791Y-81471824D01*
X93408194Y-81464834D01*
X93400000Y-81456640D01*
X93399999Y-81456640D01*
X93391804Y-81464835D01*
X93377455Y-81473011D01*
X93367470Y-81483752D01*
X93344866Y-81491584D01*
X93334872Y-81497280D01*
X93324245Y-81500000D01*
X93321009Y-81500000D01*
X93251887Y-81518520D01*
X93251141Y-81518712D01*
X93216920Y-81517513D01*
X93182635Y-81516697D01*
X93181965Y-81516288D01*
X93181314Y-81516266D01*
X93176845Y-81513167D01*
X93132712Y-81486266D01*
X92734297Y-81087851D01*
X92700812Y-81026528D01*
X92705796Y-80956836D01*
X92747668Y-80900903D01*
X92774524Y-80885609D01*
X92813291Y-80869552D01*
X92869552Y-80813291D01*
X92900000Y-80739782D01*
X92900000Y-80700000D01*
X93053554Y-80700000D01*
X93400000Y-81046446D01*
X93746446Y-80700000D01*
X93400000Y-80353554D01*
X93124170Y-80629383D01*
X93124170Y-80629384D01*
X93053554Y-80700000D01*
X92900000Y-80700000D01*
X92900000Y-80660218D01*
X92869552Y-80586709D01*
X92813291Y-80530448D01*
X92813289Y-80530446D01*
X92774525Y-80514390D01*
X92720122Y-80470549D01*
X92698057Y-80404255D01*
X92715336Y-80336555D01*
X92734293Y-80312152D01*
X92970027Y-80076418D01*
X92998272Y-80055275D01*
X93021364Y-80042667D01*
X93080789Y-80027500D01*
X93711862Y-80027500D01*
X93746794Y-80032521D01*
G37*
%TD.AperFunction*%
%TD*%
M02*
