%TF.GenerationSoftware,KiCad,Pcbnew,10.0.3*%
%TF.CreationDate,2026-06-22T12:07:45+03:00*%
%TF.ProjectId,rover_bms_ble_controller_hw,726f7665-725f-4626-9d73-5f626c655f63,rev?*%
%TF.SameCoordinates,Original*%
%TF.FileFunction,Soldermask,Top*%
%TF.FilePolarity,Negative*%
%FSLAX46Y46*%
G04 Gerber Fmt 4.6, Leading zero omitted, Abs format (unit mm)*
G04 Created by KiCad (PCBNEW 10.0.3) date 2026-06-22 12:07:45*
%MOMM*%
%LPD*%
G01*
G04 APERTURE LIST*
%ADD10C,1.701600*%
%ADD11O,2.500000X1.500000*%
%ADD12R,2.000000X1.100000*%
%ADD13O,4.000000X3.000000*%
%ADD14C,0.800000*%
%ADD15C,5.000000*%
G04 APERTURE END LIST*
D10*
%TO.C,U4*%
X93400000Y-82100000D03*
%TD*%
D11*
%TO.C,J14*%
X69500000Y-91000000D03*
%TD*%
D12*
%TO.C,D3*%
X75054000Y-78800000D03*
X75054000Y-80500000D03*
X75054000Y-82200000D03*
X79854000Y-82200000D03*
X79854000Y-80500000D03*
X79854000Y-78800000D03*
%TD*%
%TO.C,D12*%
X159854000Y-92200000D03*
X159854000Y-90500000D03*
X159854000Y-88800000D03*
X155054000Y-88800000D03*
X155054000Y-90500000D03*
X155054000Y-92200000D03*
%TD*%
%TO.C,D8*%
X79854000Y-92200000D03*
X79854000Y-90500000D03*
X79854000Y-88800000D03*
X75054000Y-88800000D03*
X75054000Y-90500000D03*
X75054000Y-92200000D03*
%TD*%
D13*
%TO.C,J4*%
X164750000Y-85500000D03*
%TD*%
D11*
%TO.C,J12*%
X69500000Y-78000000D03*
%TD*%
D12*
%TO.C,D9*%
X99854000Y-92200000D03*
X99854000Y-90500000D03*
X99854000Y-88800000D03*
X95054000Y-88800000D03*
X95054000Y-90500000D03*
X95054000Y-92200000D03*
%TD*%
%TO.C,D10*%
X120200000Y-92200000D03*
X120200000Y-90500000D03*
X120200000Y-88800000D03*
X115400000Y-88800000D03*
X115400000Y-90500000D03*
X115400000Y-92200000D03*
%TD*%
%TO.C,D4*%
X96600000Y-78800000D03*
X96600000Y-80500000D03*
X96600000Y-82200000D03*
X101400000Y-82200000D03*
X101400000Y-80500000D03*
X101400000Y-78800000D03*
%TD*%
D13*
%TO.C,J6*%
X70250000Y-75250000D03*
%TD*%
%TO.C,J9*%
X70250000Y-95750000D03*
%TD*%
D14*
%TO.C,H3*%
X157614281Y-98000000D03*
X158163456Y-96674175D03*
X158163456Y-99325825D03*
X159489281Y-96125000D03*
D15*
X159489281Y-98000000D03*
D14*
X159489281Y-99875000D03*
X160815106Y-96674175D03*
X160815106Y-99325825D03*
X161364281Y-98000000D03*
%TD*%
D13*
%TO.C,J8*%
X164750000Y-75250000D03*
%TD*%
D11*
%TO.C,J17*%
X165500000Y-93000000D03*
%TD*%
D12*
%TO.C,D6*%
X135100000Y-78800000D03*
X135100000Y-80500000D03*
X135100000Y-82200000D03*
X139900000Y-82200000D03*
X139900000Y-80500000D03*
X139900000Y-78800000D03*
%TD*%
%TO.C,D7*%
X155054000Y-78800000D03*
X155054000Y-80500000D03*
X155054000Y-82200000D03*
X159854000Y-82200000D03*
X159854000Y-80500000D03*
X159854000Y-78800000D03*
%TD*%
D14*
%TO.C,H4*%
X73625000Y-98000000D03*
X74174175Y-96674175D03*
X74174175Y-99325825D03*
X75500000Y-96125000D03*
D15*
X75500000Y-98000000D03*
D14*
X75500000Y-99875000D03*
X76825825Y-96674175D03*
X76825825Y-99325825D03*
X77375000Y-98000000D03*
%TD*%
D11*
%TO.C,J13*%
X69500000Y-80000000D03*
%TD*%
D13*
%TO.C,J3*%
X70250000Y-85500000D03*
%TD*%
%TO.C,J5*%
X164750000Y-95750000D03*
%TD*%
D12*
%TO.C,D5*%
X115054000Y-78800000D03*
X115054000Y-80500000D03*
X115054000Y-82200000D03*
X119854000Y-82200000D03*
X119854000Y-80500000D03*
X119854000Y-78800000D03*
%TD*%
D11*
%TO.C,J11*%
X165500000Y-80000000D03*
%TD*%
%TO.C,J15*%
X165500000Y-91000000D03*
%TD*%
%TO.C,J10*%
X165500000Y-78000000D03*
%TD*%
D14*
%TO.C,H5*%
X73625000Y-73000000D03*
X74174175Y-71674175D03*
X74174175Y-74325825D03*
X75500000Y-71125000D03*
D15*
X75500000Y-73000000D03*
D14*
X75500000Y-74875000D03*
X76825825Y-71674175D03*
X76825825Y-74325825D03*
X77375000Y-73000000D03*
%TD*%
D11*
%TO.C,J16*%
X69500000Y-93000000D03*
%TD*%
D12*
%TO.C,D11*%
X139854000Y-92200000D03*
X139854000Y-90500000D03*
X139854000Y-88800000D03*
X135054000Y-88800000D03*
X135054000Y-90500000D03*
X135054000Y-92200000D03*
%TD*%
D14*
%TO.C,H2*%
X157606583Y-73000000D03*
X158155758Y-71674175D03*
X158155758Y-74325825D03*
X159481583Y-71125000D03*
D15*
X159481583Y-73000000D03*
D14*
X159481583Y-74875000D03*
X160807408Y-71674175D03*
X160807408Y-74325825D03*
X161356583Y-73000000D03*
%TD*%
M02*
