M48
; DRILL file KiCad 10.0.3 date 2026-06-22T12:07:50
; FORMAT={-:-/ absolute / metric / decimal}
; #@! TF.CreationDate,2026-06-22T12:07:50+03:00
; #@! TF.GenerationSoftware,Kicad,Pcbnew,10.0.3
; #@! TF.FileFunction,Plated,1,2,PTH
FMAT,2
METRIC
; #@! TA.AperFunction,Plated,PTH,ViaDrill
T1C0.400
; #@! TA.AperFunction,Plated,PTH,ComponentDrill
T2C0.400
; #@! TA.AperFunction,Plated,PTH,ComponentDrill
T3C0.500
; #@! TA.AperFunction,Plated,PTH,ComponentDrill
T4C1.200
; #@! TA.AperFunction,Plated,PTH,ComponentDrill
T5C2.500
%
G90
G05
T1
X68.75Y-81.75
X70.25Y-75.25
X70.25Y-95.75
X70.75Y-81.75
X73.0Y-77.0
X73.25Y-82.0
X73.5Y-95.0
X76.75Y-81.75
X77.2Y-90.0
X77.25Y-80.5
X77.6Y-92.2
X78.0Y-81.5
X78.5Y-93.5
X80.0Y-96.5
X81.25Y-88.75
X83.0Y-93.0
X83.0Y-96.5
X85.75Y-75.0
X85.75Y-77.75
X85.75Y-81.5
X86.0Y-89.0
X86.0Y-96.5
X88.0Y-89.0
X89.0Y-96.5
X89.5Y-75.0
X89.5Y-77.75
X89.5Y-81.5
X90.0Y-89.0
X92.0Y-89.0
X92.5Y-96.5
X92.75Y-75.0
X92.75Y-77.75
X95.75Y-96.5
X96.5Y-75.0
X97.75Y-89.0
X98.5Y-76.92
X98.75Y-78.75
X98.75Y-80.25
X98.75Y-81.75
X99.0Y-96.5
X102.25Y-96.5
X102.5Y-89.0
X102.5Y-91.5
X104.5Y-85.0
X104.75Y-77.75
X105.25Y-96.5
X106.0Y-77.75
X107.5Y-89.0
X107.5Y-91.5
X109.0Y-74.5
X110.0Y-88.75
X112.0Y-74.5
X112.25Y-88.75
X114.6Y-83.2
X115.0Y-74.5
X115.0Y-96.0
X118.0Y-74.5
X118.0Y-96.0
X118.5Y-88.75
X119.0Y-84.8
X120.0Y-77.0
X121.0Y-74.5
X121.5Y-96.0
X122.25Y-77.0
X123.5Y-88.75
X125.5Y-96.5
X126.25Y-88.75
X127.5Y-76.5
X128.75Y-88.75
X129.0Y-96.0
X130.0Y-76.5
X131.5Y-88.75
X132.25Y-96.0
X135.5Y-96.0
X138.25Y-75.0
X138.5Y-96.0
X141.5Y-74.25
X141.5Y-96.0
X144.0Y-75.0
X144.5Y-88.75
X144.5Y-96.0
X146.75Y-75.0
X147.0Y-96.0
X149.75Y-96.0
X150.0Y-75.0
X150.25Y-88.75
X152.0Y-96.0
X152.25Y-88.75
X152.5Y-75.0
X155.0Y-96.0
X155.5Y-75.0
X162.5Y-91.25
X162.5Y-92.25
X163.25Y-90.5
X163.25Y-91.75
X164.75Y-75.25
X164.75Y-95.75
T2
X92.0Y-81.4
X92.0Y-82.8
X92.7Y-80.7
X92.7Y-83.5
X94.1Y-80.7
X94.1Y-83.5
X94.8Y-81.4
X94.8Y-82.8
T3
X73.625Y-73.0
X73.625Y-98.0
X74.174Y-71.674
X74.174Y-74.326
X74.174Y-96.674
X74.174Y-99.326
X75.5Y-71.125
X75.5Y-74.875
X75.5Y-96.125
X75.5Y-99.875
X76.826Y-71.674
X76.826Y-74.326
X76.826Y-96.674
X76.826Y-99.326
X77.375Y-73.0
X77.375Y-98.0
X157.607Y-73.0
X157.614Y-98.0
X158.156Y-71.674
X158.156Y-74.326
X158.163Y-96.674
X158.163Y-99.326
X159.482Y-71.125
X159.482Y-74.875
X159.489Y-96.125
X159.489Y-99.875
X160.807Y-71.674
X160.807Y-74.326
X160.815Y-96.674
X160.815Y-99.326
X161.357Y-73.0
X161.364Y-98.0
T4
X93.4Y-82.1
T5
X75.5Y-73.0
X75.5Y-98.0
X159.482Y-73.0
X159.489Y-98.0
M30
